<svg xmlns="http://www.w3.org/2000/svg" viewBox="0 0 3481.77 3533.61"><defs><style>.cls-1{fill:#ed5b79;}.cls-2{fill:#fefafb;}.cls-3{fill:#fffbfc;}.cls-4{fill:#fef8fa;}.cls-5{fill:#fef5f6;}.cls-6{fill:#fef4f6;}.cls-7{fill:#fef6f8;}.cls-8{fill:#fef5f7;}.cls-9{fill:#fef6f7;}.cls-10{fill:#fdf5f6;}.cls-11{fill:#fef2f4;}</style></defs><title>5Asset 1</title><g id="Layer_2" data-name="Layer 2"><g id="Layer_1-2" data-name="Layer 1"><g id="Layer_1-2-2" data-name="Layer 1-2"><path class="cls-1" d="M345.48,1566.33l-2.43-2.72c.27-2.56-.45-4.56-3.15-5.4l-2.52-3c.09-4.16-2.38-6.7-5.55-8.81l.15.21a12,12,0,0,0-5.77-8.54l.15.2c-.74-3.6-2.3-6.58-6-8l-2.49-2.94c.26-2.53-.45-4.51-3.09-5.37l-2.52-3c.09-4.15-2.35-6.73-5.54-8.83l.16.22c-1.82-5.33-4-10.43-8.7-14l.1.14c-.77-3.52-2.22-6.55-5.8-8l-2.43-2.93c.24-2.56-.57-4.51-3.15-5.43l-2.43-2.93a5.52,5.52,0,0,0-3-5.87l.09.12-5.65-8.51.1.14c-.8-3.48-2.1-6.6-5.8-8l-2.74-3.09c.13-4.08-2.08-6.74-5.3-8.8l.17.21a11.48,11.48,0,0,0-5.71-8.6l.17.25-3.17-5.62.11.15q-2.82-4.27-5.65-8.56l.13.17q-2.81-4.31-5.62-8.62l.15.21c-.42-4-2.7-6.8-5.66-9.21-5-8.83-9.86-17.8-15.15-26.48-41.36-67.83-79.4-137.46-112.92-209.51C84.93,1115.81,63.47,1063,48.16,1007.78c-9.94-35.81-17.44-72-21-109.15C24.23,868,24.74,837.5,27,806.88c1.44-19.91,3.16-39.75,5.74-59.55a853.29,853.29,0,0,1,21.93-109,712,712,0,0,1,33.61-98.72c13-30.27,27.58-59.82,43.44-88.76a782.61,782.61,0,0,1,85.57-125.11c63-75.6,136.69-138.88,221.85-188.39,25.26-14.68,51.56-27.52,78-40.06,53.12-25.2,108.85-42.45,166-55a811.64,811.64,0,0,1,103.1-15.48c42.22-3.72,84.44-3.66,126.64-1.84a676.74,676.74,0,0,1,87,9.86c4.53.79,9.2.81,13.82,1.19,3.56,3,7.82,2.53,12,2.45a1.9,1.9,0,0,0,2.15.27c3.51,2.86,7.69,2.7,11.84,2.67a1.25,1.25,0,0,0,1.73.23c2.66,2.61,6,2.55,9.35,2.32a2.15,2.15,0,0,0,2.29.31c3.41,2.89,7.55,2.74,11.64,2.86l-.17-.1c2.31,2.67,5.38,2.69,8.53,2.47a2.22,2.22,0,0,0,2.25.38c2.5,2.52,5.67,2.68,8.93,2.5a1.6,1.6,0,0,0,1.92.38c2.57,2.66,5.88,2.68,9.22,2.63l-.11,0,8.49,2.63a1.51,1.51,0,0,0,1.85.39l6.49,2.32a1.78,1.78,0,0,0,2,.43l9.1,2.91-.22-.16c2.19,2.93,5.41,2.85,8.57,3l-.23-.15,5.87,2.35a1.8,1.8,0,0,0,2,.46l6.36,2.39a1.59,1.59,0,0,0,1.88.44q3.26,1.16,6.48,2.33a1.44,1.44,0,0,0,1.78.48l6.6,2.55-.09,0,8.38,3.11-.22-.15,5.88,2.61-.06,0,8.29,3.25-.25-.18,5.91,2.7-.15-.1,5.68,3-.2-.14,5.83,2.77-.14-.09,5.75,2.75-.06,0,8.26,3.33-.26-.18,5.83,2.93-.23-.19,5.82,3-.23-.18,5.82,2.94-.23-.17,5.81,3-.23-.17,5.8,3-.23-.17,5.79,3-.23-.19,5.78,3-.23-.2q2.88,1.86,5.74,3.74l3,1.47,5.55,3-.11-.07,5.64,3-.18-.13,5.66,3.14-.25-.18,8.74,5.4-.11-.08,5.59,3.15L1293,142l8.69,5.47-.13-.08,5.51,3.78,2.83,1.75,5.64,3.17-.23-.16,8.62,5.63-.17-.15,5.6,3.9,2.76,1.58,8.57,5.76-.16-.12,8.38,6.29,2.79,2,5.54,4.05,2.49,1.65,8.64,6.68,5.64,4.34,8.35,6.42,2.51,2.06,11.42,9.15,5.51,4.71,14,12,11,10.35L1471.68,287q6.42,6.92,12.84,13.83,6.12,7,12.25,14l10.12,11,9.29,11.55,2,2.37q3.24,4.23,6.47,8.48c.67.88,1.34,1.76,2,2.65l9,11.28-.15-.21c1.93,4.52,2.74,9.86,8.51,11.55l-.31-.29a12.09,12.09,0,0,0,5.91,8.44l-.14-.2a12.14,12.14,0,0,0,5.75,8.53l-.14-.19a12.16,12.16,0,0,0,5.72,8.55l-.14-.18a12.1,12.1,0,0,0,5.69,8.57l-.15-.2a12.1,12.1,0,0,0,5.63,8.64l-.17-.24q1.6,2.79,3.19,5.58l-.08-.12,5.5,8.66-.15-.23,3.09,5.63-.08-.12a12,12,0,0,0,5.38,8.76l-.19-.25,3.05,5.76-.17-.23q1.53,2.86,3,5.73l-.14-.21,3,5.73-.12-.16q12.63,25.14,25.25,50.28l-.08-.14c.93,1.94,1.85,3.89,2.78,5.83l-.14-.21c1,2,1.89,3.91,2.84,5.86l-.17-.24c.12,5.45,2.63,9.91,5.86,14.07l-.13-.18c.93,1.95,1.87,3.91,2.8,5.87l-.18-.25c0,3.19.46,6.23,3.15,8.42l-.08-.14q1.35,3,2.68,5.91l-.17-.25c.08,3.17.16,6.35,3.07,8.5l-.13-.19c1,2.81,2,5.63,3,8.44l-.06-.12c.87,2,1.75,4,2.62,5.93l-.17-.25c.07,3.18.08,6.38,3,8.56l-.17-.22c0,3.19.06,6.38,3,8.58l-.17-.23c0,3.19,0,6.4,2.94,8.6l-.17-.22c.06,3.18,0,6.41,2.93,8.61l-.18-.25c.19,4,0,8.1,3.12,11.27l-.12-.18c0,7.12,2.24,13.6,5.65,19.74l-.14-.21c.17,4-.12,8.1,3,11.31l-.1-.18c.07,4-.21,8.1,2.89,11.33l-.11-.17c.24,4-.59,8.21,2.81,11.4l-.17-.22c.23,4.86-.33,9.9,3,14.08l-.11-.17c.1,4,.1,8,2.92,11.3l-.09-.16c.15,4.88-.72,10,2.78,14.18l-.16-.21c.29,5.77-.6,11.74,3,16.94l-.17-.21c.49,6.65-.89,13.58,3,19.72l-.17-.21c.53,8.48-.81,17.17,3,25.25l-.11-.18c.32,10.47.57,21,1.05,31.41.08,1.69,1.22,3.33,1.87,5l-.09-.16q0,41.78-.08,83.55l.14-.19c-3.53,8.13-2.54,16.79-2.92,25.28l.13-.19c-3.45,5.26-2.74,11.19-2.73,17a1.2,1.2,0,0,0-.2,1.74c-3.32,4.5-2.73,9.76-2.87,14.87l.17-.21c-3.93,8-5.36,16.53-5.52,25.34l.07-.13a38.09,38.09,0,0,0-5.73,19.63l.11-.16c-3.18,3.17-2.91,7.28-3.09,11.27l.17-.23c-2.92,2.24-2.65,5.49-2.74,8.64l.09-.15c-3.16,3.15-3,7.24-3.15,11.23l.18-.24c-3,2.19-2.9,5.42-2.93,8.61l.18-.22c-2.93,2.19-2.93,5.4-3,8.59l.17-.22c-2.91,2.19-2.94,5.39-3,8.58l.18-.22c-2.93,2.18-3,5.38-3,8.57l.18-.22c-3,2.16-3,5.37-3,8.55l.19-.25-2.64,5.93.09-.13-3.05,8.46.15-.21c-2.93,2.15-3,5.32-3.09,8.51l.19-.25c-.9,2-1.79,3.94-2.69,5.92l.1-.15c-2.73,2.18-3.16,5.22-3.15,8.43l.18-.25-2.7,5.91.1-.15c-2.75,2.17-3.17,5.22-3.18,8.42l.18-.26q-1.39,3-2.81,5.89l.15-.2c-3.28,4.15-5.77,8.62-5.87,14.08l.18-.24q-1.41,2.94-2.84,5.86l.15-.19a24.24,24.24,0,0,0-5.88,14.07l.17-.25q-1.44,2.93-2.89,5.85l.18-.22q-1.38,2.94-2.77,5.87l.12-.16-2.85,5.75.09-.14a72.05,72.05,0,0,0-11.6,25.1l.18-.25-3,5.81.19-.23-3,5.82.2-.24-3,5.81.19-.23-3,5.81.19-.24q-1.48,2.91-3,5.8l.19-.23-3,5.8.21-.24c-5.49,5.63-8.66,12.54-11,19.91l.09-.12-2.92,5.7.11-.16-3.06,5.67.15-.22q-1.51,2.88-3,5.75l.19-.23-3,5.77.2-.24a25.93,25.93,0,0,0-8.23,14.31l.1-.14c-1,1.89-2,3.78-3.08,5.66l.16-.22q-1.53,2.87-3.08,5.73l.18-.25a11.57,11.57,0,0,0-5.39,8.75l.09-.12-3,5.67.13-.19c-1,1.89-2.09,3.78-3.14,5.66l.19-.24c-4.8,3.59-6.53,8.94-8.24,14.31l.1-.14-3.11,5.64.17-.23c-4.61,3.66-7.12,8.57-8.48,14.17l.16-.19c-4.48,3.72-7,8.64-8.53,14.12l.15-.2a10.78,10.78,0,0,0-5.84,8.5l.18-.2c-3.29,2-4.88,5-5.55,8.68l.13-.17-3.16,5.65.18-.26a11.26,11.26,0,0,0-5.62,8.67l.16-.2-5.61,8.62.12-.16-3.16,5.63.17-.25a11.43,11.43,0,0,0-5.69,8.61l.17-.2c-3.31,1.95-4.91,5-5.6,8.65l.14-.18-5.67,8.57.12-.17a11.82,11.82,0,0,0-5.53,8.59l.06-.09-3.24,5.51.17-.24a11.43,11.43,0,0,0-5.73,8.59l.17-.21a11.54,11.54,0,0,0-5.74,8.58l.17-.21a11.53,11.53,0,0,0-5.73,8.58l.17-.21a11.51,11.51,0,0,0-5.75,8.57l.17-.21a11.58,11.58,0,0,0-5.75,8.57l.17-.21a11.27,11.27,0,0,0-5.72,8.6l.17-.2-5.59,8.63.13-.16a11.87,11.87,0,0,0-5.74,8.51l.14-.18a12.25,12.25,0,0,0-5.86,8.47l.17-.21a11.46,11.46,0,0,0-5.79,8.55l.18-.22a20.51,20.51,0,0,0-8.3,11.5l.12-.17a12,12,0,0,0-5.77,8.5l.14-.19a11.29,11.29,0,0,0-5.88,8.46l.18-.21a20.48,20.48,0,0,0-8.33,11.47l.13-.16a12.23,12.23,0,0,0-5.89,8.43l.17-.21a20.55,20.55,0,0,0-8.35,11.46l.13-.16-6.49,8.36-1.86,2.6-5.76,8.7.14-.19a19.8,19.8,0,0,0-8.45,11.37l.12-.17-6.68,8.34-4.46,5.41L1318,1647l.16-.22a19.41,19.41,0,0,0-8.48,11.39l.16-.2a20.72,20.72,0,0,0-8.5,11.37l.15-.2a19.5,19.5,0,0,0-8.37,11.42l.12-.15-6.42,8.34c-.66.85-1.32,1.7-2,2.56l-6.66,8.56-1.73,2.52q-3.33,4.32-6.67,8.63l-1.71,2.47L1259,1725c-.68.86-1.35,1.72-2,2.57l-6.65,8.54-1.75,2.51-9.08,11.48-2,2.61-6.68,8.49-1.75,2.48-9.34,11.46-1.8,2.52-9.33,11.43c-.61.84-1.21,1.69-1.81,2.53l-9.1,11.44-2,2.54-9.13,11.4-2,2.53-9.38,11.37-1.8,2.49-9.48,11.45-1.73,2.33-9.1,11.64-4.78,5.25-12,14.25-1.93,2.52q-5.9,7.14-11.8,14.26l-2.13,2.5q-6,7.1-12,14.18l-1.93,2.51c-4.75,4-9.27,8.21-11.46,14.27l.16-.22a72.11,72.11,0,0,0-17.22,19.73l-2.14,2.49q-6.15,7.08-12.28,14.17-2.24,2.67-4.45,5.36l-12.28,14.16-4.46,5.32-15,17-4.48,5.36-15,16.94-1.71,2.54-12.15,14.19-7.38,8.06L963.11,2079l-1.78,2.29L938,2106.88l-4.54,5.1-26.11,28.35-4.52,5.22-34.51,36.6c-.59.6-1.19,1.2-1.78,1.81-3.56,2.09-6.75,1.94-9.76-1.2-7.53-7.83-15.09-15.61-22.76-23.3a59.7,59.7,0,0,0-6.22-4.79l-11-11.22c-1.51-2.67-2.6-5.72-4.61-7.95-5.76-6.39-11.79-12.56-17.92-18.61-3.49-3.44-7.37-6.47-11.07-9.69-.85-.92-1.69-1.84-2.54-2.75-4.69-8.71-12.28-17.19-22.55-25.21-.83-.88-1.65-1.77-2.47-2.66a42.67,42.67,0,0,0-17-19.27c-1.79-1.95-3.57-3.9-5.36-5.84-2.55-7.37-8-12.28-14.16-16.49l-5.24-5.79c-1.42-6.62-6.05-10.56-11.49-13.83q-4-4.24-8-8.48c-1.3-6.71-6.15-10.48-11.48-13.86l-5.31-5.67c-1.28-6.69-6.13-10.43-11.42-13.81l-5.43-5.73c-1.31-6.61-6-10.48-11.3-13.79l-5.3-5.7c-1.3-6.69-6.13-10.47-11.43-13.87l-5.24-5.63c-.3-1.28-.19-2.93-1-3.76-5.14-5.53-10.48-10.88-15.75-16.28l.15.22c-2.41-5.78-6-10.59-11.65-13.54-.89-1-1.78-2-2.66-2.93-1.63-6.35-5.74-10.67-11.28-13.82l-2.64-2.9a14.58,14.58,0,0,0-8.51-10.93l-2.73-3c-1.06-5-3.67-8.87-8.43-11.08l-2.69-2.85a14.15,14.15,0,0,0-8.46-10.93l-2.75-3c-.82-5.13-3.76-8.61-8.4-10.77l-2.8-3.18c-.79-5.13-3.74-8.57-8.35-10.73l-5.35-5.94c0-4-2.12-6.61-5.8-8-.94-1.06-1.87-2.13-2.81-3.2-.79-5.13-3.73-8.59-8.34-10.76l-2.78-3.18a14.08,14.08,0,0,0-8.38-10.91c-.91-1-1.82-2-2.72-3a14.42,14.42,0,0,0-8.43-11.11l-2.59-2.79c0-4-2.09-6.62-5.77-8l-2.76-3.17a14.43,14.43,0,0,0-8.4-11.13l-2.56-2.77c-.1-4-2.12-6.71-5.8-8.21-.88-1-1.75-2-2.63-3-1.17-6.71-5.91-10.68-11-14.36l.15.21a19.8,19.8,0,0,0-8.54-11.33l.14.2a21.1,21.1,0,0,0-8.36-11.47l.17.21c-.7-3.71-2.4-6.65-6.15-8-.84-.93-1.67-1.87-2.51-2.81-.09-4.08-2.16-6.78-5.85-8.35l-2.5-2.79c-.1-4.1-2.16-6.82-5.87-8.38-.82-.93-1.64-1.85-2.47-2.77-.1-4.12-2.17-6.86-5.89-8.44l-2.42-2.7c.2-4.27-2.34-6.81-5.62-8.87l.16.21c-.81-3.56-2.37-6.55-6.06-7.9-.84-1-1.68-2-2.53-3-.08-4.1-2.14-6.82-5.84-8.4-.8-.91-1.61-1.81-2.42-2.71.25-2.54-.47-4.52-3.14-5.33-.9-1-1.79-2.08-2.69-3.11a8.79,8.79,0,0,0-5.68-8.33c-.82-.92-1.64-1.85-2.47-2.77.1-4.19-2.19-6.86-5.56-8.87l.16.21C350.71,1570.86,349.25,1567.73,345.48,1566.33Zm516.78-320c215.53,3.09,403.1-174.93,402.78-402.85-.14-106.27-36.23-199.34-108.91-276.91-76.75-81.91-185-126.83-294.59-127.42-105.23-.55-216,48.08-285.42,119.26-77.23,79.19-118,173.93-118.2,284.39C457.44,1070.75,647.84,1250.06,862.26,1246.33Z" transform="translate(-25.13 -23.73)"/><path class="cls-1" d="M1774.41,2343.86l-4.47,5.33c-5.66,4.92-11.19,9.95-14.24,17l.16-.22c-6.78,5.59-13,11.64-16.61,19.88l.1-.13q-4.75,5.54-9.5,11.06c-1.54,1.69-3.07,3.39-4.6,5.08l-12.06,14.44-4.6,5.27-9.26,11.47-4.62,5.44-9.4,11.28c-.63.74-1.27,1.48-1.9,2.23-6.61,5.91-13,12-16.84,20.2l.15-.2-11.85,14.05-2,2.5-9.16,11.43-2,2.47-9.42,11.44-1.75,2.45-9.4,11.49-1.75,2.45-9.39,11.49-1.76,2.47-9.12,11.5-2,2.54-4,5.82-1.72,2.25-9.22,11.67-1.92,2.32L1571.2,2592c-.66.86-1.32,1.71-2,2.57l-6.54,8.56-1.84,2.54-6.7,8.6-1.75,2.31-9.08,11.67-2,2.54-12.1,14.16-4.71,5.13-12,14.39-4.76,5.13a80.56,80.56,0,0,0-17.58,20l-4.65,5.33c-4.77,4-9.3,8.16-11.48,14.23l.16-.21c-6.77,5.6-13.15,11.54-16.88,19.73l.16-.21c-5.39,3.5-9.09,8.43-11.9,14.1l-4.7,5.23q-4.73,5.74-9.44,11.48l-7.21,8.25-9.39,11.28c-1.57,1.68-3.13,3.37-4.69,5.05l-12,14.47-4.68,5.21-12,14.31-4.71,5.24q-4.71,5.73-9.4,11.47l-4.56,5.21-12,14.32-4.69,5.23-9.42,11.48-4.58,5.06c-9,9-18.14,17.88-27,27-1.8,1.86-2.64,4.64-3.92,7l.17-.19c-2.54,1.16-2.95,3.39-2.95,5.83l.19-.25-9.22,11.3-4.64,5.1-12,14.43-4.66,5.33-9.51,11.38-4.52,5.1q-6,7.23-12,14.44l-4.68,5.33-9.39,11.38-4.63,5.1-12,14.43-4.68,5.33-9.37,11.38-4.59,5.32-12,14.22-4.69,5.34-9.34,11.37c-1.54,1.77-3.07,3.55-4.61,5.33q-4.71,5.7-9.44,11.39l-4.6,5-12,14.5c-1.56,1.74-3.12,3.47-4.67,5.21l-9.41,11.5-4.54,5.21-9.44,11.52-4.56,5-12.09,14.5-4.5,5.42-9.48,11.3-4.59,5.05-9.39,11.68-4.56,5q-6,7.25-12,14.5l-4.61,5.41-9.48,11.3c-1.51,1.74-3,3.47-4.54,5.2l-12,14.34-2,2.22c-4.42,4.36-9.53,8.19-11.27,14.62l.15-.2c-5,3.75-9.25,8-11.43,14l.16-.21-17.65,19.69q-3.63,4.07-7.24,8.14l-9.35,11.38q-2.31,2.65-4.6,5.33-4.68,5.7-9.38,11.39-2.31,2.57-4.64,5.11l-9.33,11.62c-1.52,1.76-3,3.53-4.54,5.29l-12,14.24-2,2.27-12,14.45-4.6,5.33-9.33,11.4-4.61,5.31-12,14.22-2,2.5c-4.6,4.13-9.53,8-11.37,14.33l.16-.2-11.91,14-2,2.46L829.3,3473l-1.75,2.42-12.21,14.31-1.75,2.34-17.48,17.12-2.06,1.9-11.65,9.32-2.29,1.9-8.47,6.45.21-.16a12.15,12.15,0,0,0-8.64,5.64l.25-.18-5.63,3.18.18-.13-5.71,3,.16-.1-5.75,2.87.17-.1-5.91,2.7.25-.17c-3.15.14-6.25.4-8.41,3.17l.14-.08-8.4,3,.07,0-8.19,1.26c-10,1.53-20,3.79-30.11,4.41-19.48,1.19-38.85-.2-57.84-5.28a46,46,0,0,0-6.88-.84c-9.05-3.42-18.15-6.71-27.14-10.28-26.94-10.73-50.83-26.66-73.76-44.06-17.36-13.17-34.25-27-47.37-44.68-12.24-16.5-21.94-34-25.83-54.75-2.52-13.39-.2-25.83,3.07-38.32,4.78-18.22,14.37-34.12,26.06-48.68,9.28-11.56,19.18-22.62,28.66-34,10.94-13.15,21.72-26.45,32.57-39.68,4.12-2.78,7.77-5.92,8.54-11.24q4.1-4.4,8.18-8.78a14.14,14.14,0,0,0,8.59-10.74q4.07-4.38,8.14-8.74c5.46-3.13,9.72-7.28,11.41-13.58q2.65-2.89,5.32-5.78c5.65-3,9.71-7.43,11.44-13.74l8.07-8.73a14.67,14.67,0,0,0,8.68-10.79l13.63-14.3c4.58-2.22,7.84-5.51,8.62-10.78l8.1-8.62c5.27-3.29,9.87-7.11,11.2-13.63l5.53-5.9a9.31,9.31,0,0,0,5.87-8.1l8.07-8.74a13.65,13.65,0,0,0,8.7-10.79l8-8.7a21.6,21.6,0,0,0,11.36-13.57l5.37-5.88c5.66-3,9.73-7.31,11.39-13.65l5.34-5.84c5.69-3,9.75-7.34,11.43-13.68l8.08-8.76a14.34,14.34,0,0,0,8.68-10.76l8-8.73a13.69,13.69,0,0,0,8.72-10.8l8-8.65c5.62-3,9.59-7.4,11.37-13.62l10.93-11.45c5.24-3.31,10-7,11.25-13.62.9-1,1.8-2,2.69-3a14.85,14.85,0,0,0,8.68-11l8-8.7a14.08,14.08,0,0,0,8.73-10.83l8-8.59c5.62-3,9.65-7.4,11.38-13.68l5.34-5.81c5.64-3,9.85-7.28,11.42-13.71l5.31-5.78c5.65-3.05,9.73-7.42,11.45-13.74l8.07-8.73a14.07,14.07,0,0,0,8.7-10.8l8-8.69a13.49,13.49,0,0,0,8.73-10.83l8-8.67a21.39,21.39,0,0,0,11.39-13.61l5.33-5.8c5.65-3,9.7-7.42,11.43-13.72l2.51-2.76c5.77-4.73,12.15-8.95,14.3-16.78l8-8.65c5.62-3,9.59-7.4,11.37-13.62l5.35-5.86c5.64-3,9.63-7.41,11.41-13.66l5.32-5.75c5.59-3.12,9.68-7.48,11.43-13.77l8.09-8.76a14.28,14.28,0,0,0,8.68-10.77l8-8.72a13.69,13.69,0,0,0,8.72-10.8l8-8.65c5.63-3,9.6-7.4,11.38-13.63l5.35-5.86c5.69-3,9.74-7.33,11.41-13.66l5.32-5.75c5.55-3.08,9.81-7.21,11.16-13.71l2.78-3c5.25-3.33,9.9-7.15,11.22-13.7l5.51-5.83c6.89-5.34,13.7-10.76,17-19.3l5.34-5.81c5.65-3,9.69-7.41,11.41-13.71l5.32-5.78c5.65-3.06,9.72-7.42,11.45-13.75l8.07-8.72a14.09,14.09,0,0,0,8.7-10.8l8-8.69a14,14,0,0,0,8.73-10.84l5.18-5.35c5.18-.43,7.58-3.74,8.67-8.4l-.12.15a12.25,12.25,0,0,0,5.75-8.49l-.13.17c3.24-2,5.58-4.63,5.63-8.72l2.54-2.94a8.88,8.88,0,0,0,5.69-8.17l2.67-3c3.8-1.23,5.33-4.24,6.16-7.81l-.18.2c3.93-3,7.37-6.37,8-11.64l2.73-3a14.17,14.17,0,0,0,8.31-10.87l2.84-3.15c3.66-1.47,5.76-4.08,5.94-8.1l5.21-5.85c3.66-1.46,5.77-4.07,5.94-8.09l5.22-5.83a14.07,14.07,0,0,0,8.34-10.81l2.81-3c5.3-3.37,10.1-7.15,11.44-13.8l5.29-5.9a14.86,14.86,0,0,0,8.5-10.79l2.65-3a14.11,14.11,0,0,0,8.61-11l5.33-5.92a14.25,14.25,0,0,0,8.48-10.77l2.67-3a14.09,14.09,0,0,0,8.61-11q2.66-3,5.33-5.93a14.25,14.25,0,0,0,8.48-10.77l2.67-3c4.82-2,7.16-6.08,8.9-10.65l-.16.21c4-3,7.49-6.37,8.24-11.67l5.33-5.91c4.58-2.19,7.62-5.6,8.4-10.77l2.75-3c4.63-2.28,7.75-5.75,8.57-11l5.37-5.95c3.65-1.42,5.75-4,5.85-8l5.3-5.77c4.64-2.22,7.58-5.75,8.42-10.9l2.73-3c4.66-2.25,7.63-5.79,8.46-11l5.48-6c3.62-1.43,5.72-4,5.81-8l5.34-5.94c4.57-2.21,7.58-5.63,8.42-10.75l5.52-5.77a15,15,0,0,0,8.49-11c.89-1,1.78-2,2.66-3a14.38,14.38,0,0,0,8.55-11l2.61-2.95a14.12,14.12,0,0,0,8.41-11l2.74-3.08a8.55,8.55,0,0,0,5.94-8.14c.8-.88,1.61-1.75,2.42-2.63a8.83,8.83,0,0,0,5.93-8.53l5.22-6c3.63-1.39,5.68-3.91,5.7-7.91l2.67-2.89a14.17,14.17,0,0,0,8.42-11l2.73-3.07c3.64-1.49,5.67-4.11,5.76-8.11l2.6-2.83a14.22,14.22,0,0,0,8.44-11.09l2.72-3c3.64-1.49,5.65-4.12,5.74-8.12l2.62-2.85a14.29,14.29,0,0,0,8.32-11l2.83-3.17c3.6-1.46,5.6-4.06,5.67-8l2.7-3c3.63-1.5,5.64-4.13,5.72-8.13l2.64-3c3.66-1.53,5.77-4.19,5.94-8.24l2.42-2.72a9,9,0,0,0,6-8.43l2.41-2.7c4.75-2.22,7.15-6.29,8.74-11l-.14.19c3.25-2.06,5.7-4.63,5.72-8.79l2.41-2.71a9,9,0,0,0,5.92-8.43l5.24-5.87c3.78-1.21,5.24-4.25,6.08-7.77l-.18.2c3.11-2.14,5.46-4.75,5.42-8.82l2.62-3.07c3.67-1.35,5.21-4.32,6-7.86l-.16.2c3.35-2,5.65-4.65,5.56-8.81l2.53-2.85a8.63,8.63,0,0,0,5.61-8.25l2.75-3.21c2.62-.8,3.33-2.72,3.07-5.22l2.51-2.84c3.75-1.39,5.19-4.49,6-8.07l-.15.2c3.17-2.09,5.6-4.64,5.51-8.78l2.59-3.06c2.63-.85,3.36-2.81,3.1-5.34.83-.93,1.65-1.87,2.47-2.8,3.74-1.42,5.18-4.53,6-8.11l-.15.19a11.92,11.92,0,0,0,5.76-8.54l-.15.2a12.06,12.06,0,0,0,5.78-8.53l-.17.21c3.34-2,5.56-4.69,5.44-8.82l2.62-3.14,3.33-5-.18.23a11.13,11.13,0,0,0,5.71-8.6l-.17.2a12,12,0,0,0,5.68-8.61l-.16.2a12,12,0,0,0,5.69-8.59l-.15.19a11.7,11.7,0,0,0,5.6-8.61l-.11.15a5.43,5.43,0,0,0,2.91-5.89l2.52-3.1,3.21-5-.16.21a11.47,11.47,0,0,0,5.54-8.65l-.1.13,3-5.68-.14.19q1.61-2.8,3.19-5.63l-.17.25c3.29-2,4.89-5,5.49-8.73l-.14.18,3.17-5.65-.18.25c3.27-2,4.86-5.07,5.46-8.74l-.12.16q1.51-2.85,3.05-5.7l-.17.23c4.68-3.65,6.73-8.79,8.18-14.29l0,.06c1-1.85,2-3.71,3.05-5.57l-.13.18q1.5-2.86,3-5.73l-.14.2,3-5.76-.15.21,3-5.77-.16.22c1-1.94,2-3.87,3-5.8l-.16.22q1.47-2.89,3-5.79l-.18.23c6.47-6.17,9.61-14,11.33-22.55l-.17.24c.94-2,1.87-3.91,2.8-5.87l-.12.18c3.24-4.17,5.74-8.63,5.75-14.11l-.15.19c6.42-10.33,9.58-21.75,11.21-33.68l-.11.17c3.41-4.19,2.84-9.22,3-14.1l-.16.19c4.42-8,2.62-16.73,2.78-25.2.07-4,.29-8.23-2.76-11.57l.17.21c-.51-7.55.68-15.33-3-22.44l.09.16c-.27-13.93-.78-27.85-.75-41.78,0-17.64.52-35.28.81-52.93l-.12.19c3.74-7.13,2.54-14.91,3-22.48l-.14.2c3.54-5.2,2.69-11.16,3-16.92l-.16.2c3.45-4.2,2.73-9.27,3-14.13l-.15.21c3.2-3.23,2.77-7.37,2.87-11.38l-.13.19c3.14-3.22,2.83-7.33,2.93-11.34l-.13.19c3.79-6,5.28-12.7,5.74-19.69l-.14.21c2.78-2.25,2.9-5.39,2.9-8.58l-.13.19c2.74-2.25,2.92-5.37,2.93-8.55l-.13.2c2.77-2.22,2.92-5.36,3-8.53l-.17.22a23.86,23.86,0,0,0,5.61-14.19l-.12.18a24.84,24.84,0,0,0,5.8-14.09l-.15.22,2.8-5.83-.11.16,22.4-44.76-.1.14,2.86-5.74-.09.15c1-1.9,2-3.79,3-5.69l-.13.2q1.58-2.83,3.17-5.65l-.18.25c3.33-2,4.94-5,5.5-8.71l-.13.17a12.12,12.12,0,0,0,5.63-8.57l-.11.14a5.37,5.37,0,0,0,2.93-5.88c.84-1,1.67-2.07,2.51-3.09,2.49-.91,3.36-2.77,3.11-5.29l2.46-2.91c3.66-1.44,5.06-4.53,5.89-8l-.13.16c3.26-2,5.59-4.62,5.65-8.71.85-1,1.69-1.93,2.53-2.9a8.83,8.83,0,0,0,5.85-8.25l2.52-2.85a14.77,14.77,0,0,0,8.59-11.08l5.35-6a14.82,14.82,0,0,0,8.67-10.79l5.22-5.32c3.68-.19,5.72-2,5.83-5.8q19.39-19.46,38.8-38.92c3.76.28,5.77-2.52,8-4.71,8.62-8.32,17.22-16.67,25.69-25.15,1.88-1.88,3.24-4.28,4.84-6.44l25.49-24.77c8.86-4.87,14.58-10.06,21.89-19.84q12.75-12.4,25.52-24.79c8.74-4.82,16.6-11.92,25-22.61l8.51-8.29c.88-.11,2,.1,2.6-.39,9-7.57,18-15.11,24.88-24.77l22.67-22.1c2-1,4.43-1.45,6-2.9,9.42-9,18.67-18.08,27.89-27.23.92-.9,1.3-2.34,1.93-3.53l25.53-24.81c8.8-4.82,17.31-12.62,24.67-22.59l25.52-24.8a13.92,13.92,0,0,0,10.68-8.66l22.82-22.2c.88-.11,2,.1,2.61-.39,7.94-6.71,16.1-13.21,21.95-22l22.85-22.27c6.14-1.38,10.12-5,11.41-11.25l5.25-5.2c9.06-5,14.32-9.73,21.87-19.83l25.53-24.8c9.09-5,14.3-9.71,21.86-19.81l11.72-11.41c1.29-.28,3-.13,3.8-.92,7-7,13.78-14.06,20.64-21.12L2606.52,493c.88-.12,2,.08,2.6-.4,8.93-7.59,18-15.08,24.85-24.75l36.62-36c8.92-4.9,14.46-9.92,21.85-19.8l28.32-27.55c8.38-3.51,14.31-9.8,19.38-17.06l11.36-11.12c.88-.12,2,.06,2.6-.42,9-7.52,18-15,24.77-24.7l22.79-22.17c.89-.11,2,.09,2.62-.39,8-6.71,16.11-13.25,22-22.05l39.48-38.7c9.1-5,14.32-9.71,21.89-19.85l3.33-3c3.9.06,6.53-2.09,8.68-5l-.23.15,5.8-2.94-.25.16,9.22-2.92,4.68-.55,16.6.05a2.71,2.71,0,0,0,2.44.33l8.63,3.14-.27-.16,8.68,5.52-.16-.11c8.3,6.75,13.49,15.55,16.76,25.59,0,2.31,0,4.62,0,6.93q-1.52,5.9-3.05,11.79l.18-.27q-1.4,2.94-2.8,5.88l.14-.21-5.75,8.52.15-.19-20.56,22.35-7.29,8.1c-10.24,9.75-20.68,19.33-28.95,30.93l-4.57,5.13c-8.42,7.86-16.73,15.81-23,25.57l-4.83,5.11c-8.26,8-16.82,15.75-23.1,25.55l-4.78,5.12-20.57,22.73-10,10.85-9.47,11.46q-3.64,4-7.27,8-10.3,11.31-20.59,22.64l-7.35,7.85-20.51,22.81-12.93,13.48c-8.32,8-16.81,15.77-23.09,25.58l-4.79,5.1c-8.32,8-16.8,15.82-23.2,25.55l-4.68,5.12c-7.74,6.75-14.88,14-20.39,22.76l-4.72,5.06-17.69,20-4.59,5.14-23.29,25.53-4.65,4.94-20.51,22.93-7.3,8c-10.09,9.9-20.8,19.21-28.75,31.09l-7.5,7.93q-10.28,11.37-20.56,22.72l-4.55,5.1c-8.16,8-17.08,15.29-22.49,25.67l.16-.21-20.51,22.42-4.58,5-23.28,25.64-4.6,5q-11.62,12.83-23.26,25.64l-4.56,5.22c-8.41,7.71-16.68,15.55-22.65,25.45l.29-.3c-3.48.5-5.22,2.92-6.5,5.86l-7.41,7.94c-8.29,8-16.79,15.76-23.05,25.56l-7.52,8.16L2329.24,975l-1.72,2.49q-10.32,11.29-20.62,22.6l-7.26,8.07c-7.79,6.7-15,13.94-20.6,22.6l-10,11-17.85,19.7-4.55,5.13-23.31,25.54-4.63,4.92c-4,3.8-8.19,7.39-11.86,11.46-5.81,6.45-11.26,13.23-16.86,19.87q-3.73,3.95-7.46,7.91l-14.95,17.17-4.54,5.22-23.33,25.45c-1.53,1.68-3.07,3.35-4.61,5l-23.25,25.64c-1.49,1.81-3,3.61-4.49,5.42a36.18,36.18,0,0,0-11.18,22.71l.08-.13c-4.07,10.78-4.08,20.46,0,31.06l-.11-.15c-.11,4.75,1.44,8.72,5.41,11.57,0,0-.19-.25-.18-.25l3.24,5.78,8.14,8.06,5.68,3.93,2.68,1.65,5.7,3.73,2.7,1.83,5.67,3.7,2.87,1.82,5.51,3.7,3.06,1.8,5.49,2.61a1.52,1.52,0,0,0,1.81.54l6.52,2.76-.17-.13c4.22,3.73,9.25,2.45,14.1,2.25l5.78,0c4.85.34,9.77,1.12,14-2.32l-.12.06,6.51-2.62a1.58,1.58,0,0,0,1.86-.48l5.75-2.49-.15.09,5.83-2.79-.19.14c2.15-.24,4.31-.48,4.88-3.16l3.38-2.91c8.52-2.65,13.82-8.58,17-16.68l8.07-8.75c4.56-2.24,7.75-5.6,8.67-10.77l5.27-5.74c5.4-3.27,9.92-7.29,11.46-13.78l8.06-8.71c4.6-2.23,7.76-5.62,8.68-10.81l8-8.7c5.19-3.3,9.87-7,11.17-13.53l5.56-6c4.61-2.24,7.79-5.63,8.73-10.83l8-8.68c5.21-3.29,9.89-7,11.19-13.55l5.54-5.88c5.29-3.26,9.83-7.14,11.2-13.63l5.53-5.94a9.1,9.1,0,0,0,5.83-8l8.1-8.79c9-6.76,10.9-9,14.12-16.29l5.4-5.76c5.43-3.23,9.9-7.25,11.34-13.76l8.18-8.71c4.61-2.2,7.71-5.61,8.55-10.8l8.18-8.79c4.57-2.21,7.76-5.53,8.58-10.73l8.14-8.69c5.24-3.27,9.79-7.1,11.14-13.56l5.59-5.95c5.23-3.28,9.82-7.09,11.15-13.57l5.58-5.94c5.25-3.27,9.82-7.09,11.15-13.58l5.58-5.92c5.26-3.26,9.81-7.12,11.16-13.6l2.78-2.94c4.77-2.2,7.43-6.05,8.62-11.06l8.1-8.79a14.17,14.17,0,0,0,8.64-10.72q4-4.39,8.09-8.78a14.25,14.25,0,0,0,8.65-10.74l13.66-14.31c4.58-2.24,7.76-5.6,8.67-10.79l8.05-8.72c4.6-2.23,7.77-5.61,8.69-10.8l8-8.7c4.61-2.24,7.78-5.63,8.7-10.82q4-4.35,8-8.69c4.62-2.23,7.79-5.62,8.71-10.83q4-4.33,8-8.68c4.62-2.23,7.81-5.62,8.72-10.84l8-8.66c5.29-3.22,9.76-7.12,11.14-13.55l2.8-3.09a14.59,14.59,0,0,0,8.62-10.92l8.1-8.79a13.82,13.82,0,0,0,8.63-10.72l8.1-8.77a14,14,0,0,0,8.65-10.76l8.08-8.74a13.48,13.48,0,0,0,8.67-10.78l8.06-8.73,5.68-5.07,0,0c3.94-2.95,7.89-5.88,8.52-11.31l8.15-8.77c4.57-2.22,7.79-5.52,8.59-10.75l8.14-8.76c5.21-3.27,9.86-7,11.15-13.49l5.58-6c5.24-3.24,9.86-7,11.16-13.5l5.57-5.92c5.26-3.27,9.82-7.11,11.16-13.6l2.78-3.18a14.61,14.61,0,0,0,8.61-10.82l8.11-8.74a14.42,14.42,0,0,0,8.63-10.78l8.1-8.76a14.3,14.3,0,0,0,8.65-10.76l8.08-8.76a14.27,14.27,0,0,0,8.67-10.76l8.06-8.74a13.68,13.68,0,0,0,8.68-10.78l8.05-8.69c7.95-6,11.13-9.67,14.27-16.4l8-8.69c4.61-2.24,7.8-5.62,8.71-10.83q4-4.34,8-8.68c4.62-2.23,7.82-5.62,8.72-10.84l8-8.66c4.62-2.24,7.82-5.63,8.73-10.86l2.41-2.82c5.48-3.24,9.73-7.5,11.4-13.88l8.12-8.77a14.59,14.59,0,0,0,8.63-10.75l8.1-8.76a14,14,0,0,0,8.65-10.76l8.08-8.74a14,14,0,0,0,8.66-10.78l8.07-8.73a14,14,0,0,0,8.68-10.79l10.8-10.94c4-.09,6.57-2.45,8.73-5.46l-.22.14,5.75-3-.21.13,8.37-3.08-.07,0,27.81-.24a1.85,1.85,0,0,0,2,.45l6.3,2.83-.2-.13,5.6,3.89,2.67,1.62,8.47,6-.3-.3,5.94,8.4-.14-.23,3,8.52-.11-.19q0,6.91,0,13.83l.11-.18-2.79,8.56.06-.12-2.95,5.66.11-.16-3.79,5.54-4.61,5.34-11.92,14.19-4.81,5.31q-6,7.11-12,14.2l-4.78,5.31c-4.67,4.19-9.53,8.22-12.13,14.18q-2.33,2.61-4.63,5.24l-12,14.28c-1.57,1.75-3.15,3.49-4.72,5.23l-12.12,14.28-4.63,5.19q-6,7.17-12.11,14.32c-.62.76-1.25,1.52-1.87,2.29L3018,528.88l-7.32,8.24-9.43,11.27-7.3,8.25-9.43,11.27q-3.64,4.11-7.3,8.23l-12,14.11-4.74,5.4q-4.72,5.64-9.46,11.29l-7.27,8.22-6.69,8.51-4.5,5.33-12.24,14.18-10.1,10.8-12,14.31-4.7,5.19q-6,7.15-12,14.32l-2,2.28-14.79,17.23-1.94,2.26-15,17.25-7.16,8.32q-4.7,5.61-9.4,11.2l-7.33,8.31q-6,7-12,14l-4.8,5.31-11.94,14.21-4.79,5.3-6.66,8.6-4.49,5.36L2767,821.61l-4.49,5.36-12.26,14.16-1.8,2.21c-7.26,7.19-15.09,13.87-20.28,22.9l-4.74,5.2-12,14.31-4.71,5.21q-6.08,7.14-12.13,14.29l-1.87,2.27-14.86,17.25-4.61,5.2-12.13,14.31-7.29,8.24-9.45,11.28-7.26,8.3-6.71,8.43-4.49,5.37-12.25,14.15c-1.5,1.78-3,3.57-4.49,5.36l-12.24,14.15-4.48,5.36-12.27,14.16-4.57,4.62-6.56,6.52-1.73,2.46-9.27,11.5-4.66,5.28-12.07,14.24c-1.56,1.72-3.13,3.44-4.69,5.17l-12.05,14.34-1.94,2.25q-7.39,8.64-14.8,17.26l-1.93,2.25q-7.41,8.64-14.81,17.27l-4.66,5.16q-4.68,5.79-9.37,11.56l-4.5,5.38q-6.12,7.08-12.25,14.14l-4.49,5.35L2443.54,1198c-1.49,1.78-3,3.57-4.48,5.35l-12.26,14.17-4.47,5.34q-6.12,7.1-12.26,14.17l-4.46,5.35q-6.15,7.08-12.28,14.17l-1.79,2.19c-7.8,6.72-14.87,14.08-20.29,22.92l-4.72,5.19-12.13,14.31c-1.54,1.73-3.07,3.47-4.6,5.2l-12.15,14.31-1.85,2.24-12.13,14.49c-1.49,1.8-3,3.59-4.48,5.38-4.66,4.07-9.37,8.09-11.3,14.32l.13-.17a13.43,13.43,0,0,0-5.9,11.27l.18-.23-2.67,5.91.09-.14c-3.58,4.21-3.26,9.2-2.85,14.21q0,4.11,0,8.22c-.45,7.27.49,14.14,5.64,19.81l-.11-.14a11.7,11.7,0,0,0,5.59,8.94l8.12,7.89,5.79,3.86,2.7,1.66,5.66,3.87,2.85,1.66,5.79,2.68h0c2.22,2.61,5.15,3.09,8.34,2.84a1.32,1.32,0,0,0,1.8.27c10.77,3.4,18.72,3.37,29.43-.11a2.14,2.14,0,0,0,2.25-.3c3.16.2,6.26.2,8.54-2.54l-.15.09,5.93-2.67-.23.17,5.8-3-.21.18c2.22-.26,4.43-.53,5-3.3l3.2-2.8c9.61-3.39,15.62-10.38,19.5-19.51q2.8-3,5.59-6c5.25-3.26,9.8-7.1,11.15-13.56l5.58-5.94c5.26-3.26,9.81-7.11,11.16-13.58,1.86-2,3.72-4,5.57-5.93,5.27-3.26,9.82-7.11,11.17-13.59l5.56-5.91c5.28-3.26,9.83-7.12,11.18-13.61l5.55-5.85c4-1.27,5.79-4.09,5.89-8.16l8.05-8.73a13.73,13.73,0,0,0,8.63-10.77l8.09-8.74a13.75,13.75,0,0,0,8.65-10.78l8.08-8.72a13.82,13.82,0,0,0,8.67-10.8q6.81-7.16,13.64-14.29c4.59-2.24,7.77-5.62,8.68-10.81l8-8.7c4.61-2.24,7.77-5.63,8.71-10.82l8-8.69c4.62-2.24,7.78-5.64,8.73-10.83l8-8.68c5.21-3.3,9.89-7,11.19-13.55l5.54-5.89c5.28-3.26,9.84-7.13,11.2-13.63l5.53-5.87c3.78-1.38,5.5-4.24,5.82-8.11q4.06-4.4,8.12-8.78a14.59,14.59,0,0,0,8.63-10.74l8.09-8.77a13.93,13.93,0,0,0,8.63-10.75l8.1-8.76a13.92,13.92,0,0,0,8.65-10.76l8.08-8.74a14,14,0,0,0,8.67-10.78l8.06-8.73,5.68-5.08,0,.05c3.95-2.93,7.88-5.88,8.53-11.31l8.14-8.69c4.63-2.2,7.73-5.63,8.59-10.83l8.14-8.67c5.23-3.29,9.81-7.1,11.15-13.58l5.58-5.94c5.24-3.27,9.81-7.1,11.15-13.58l5.58-6a9.17,9.17,0,0,0,5.8-8q4.07-4.41,8.14-8.81a14.23,14.23,0,0,0,8.62-10.71l8.1-8.8a14.23,14.23,0,0,0,8.63-10.72l8.1-8.79a14.16,14.16,0,0,0,8.63-10.73l8.1-8.77a13.61,13.61,0,0,0,8.65-10.75q4-4.35,8.08-8.71a13.81,13.81,0,0,0,8.66-10.81l8.07-8.7c8-6.07,11.11-9.65,14.25-16.39q4-4.35,8-8.71c4.61-2.23,7.77-5.62,8.69-10.81l8-8.7c4.61-2.23,7.79-5.61,8.7-10.82l5.23-5.66c4.75-2.21,7.35-6.1,8.6-11l5.35-5.75c5.56-3.13,9.67-7.45,11.38-13.77l8.13-8.81a14.53,14.53,0,0,0,8.62-10.71l8.11-8.78a13.93,13.93,0,0,0,8.63-10.74l8.1-8.77a14,14,0,0,0,8.64-10.75l8.09-8.75a14.63,14.63,0,0,0,8.65-10.77q4-4.37,8.08-8.74a14,14,0,0,0,8.66-10.78l8.06-8.73a14,14,0,0,0,8.68-10.78q6.81-7.17,13.63-14.32c4.57-2.22,7.78-5.53,8.59-10.75l5.35-5.82a15.74,15.74,0,0,0,8.58-10.91c1.78-2,3.57-3.91,5.36-5.87,5.66-3,9.71-7.33,11.37-13.65l5.36-5.86c5.66-3,9.72-7.32,11.38-13.66l5.34-5.76c5.61-3.09,9.75-7.39,11.4-13.75l8.12-8.8a14.22,14.22,0,0,0,8.62-10.72l8.11-8.79a14.32,14.32,0,0,0,8.64-10.74l8.09-8.76a14.27,14.27,0,0,0,8.64-10.75l8.08-8.76a14.27,14.27,0,0,0,8.67-10.76l10.81-10.95c4-.14,6.56-2.46,8.78-5.42l-.24.16,5.7-3.05-.2.12,8.89-2.88a2.24,2.24,0,0,0,2.26-.4l25,.12a1.37,1.37,0,0,0,1.74.42l6.5,2.92-.25-.17c7.61,6.2,12.83,14.14,16.8,23V489.1l-2.82,9.33.14-.23c-1,1.94-1.92,3.86-2.87,5.79l.12-.18-3.94,5.57c-1.49,1.73-3,3.45-4.49,5.18l-12.09,14.32-1.89,2.29-14.75,17.24-7.41,8.24-15.07,16.83q-2.24,2.68-4.49,5.36L3240.93,593l-1.83,2.21-14.92,17.3c-1.5,1.78-3,3.57-4.48,5.35l-9.25,11.4c-1.57,1.77-3.13,3.54-4.7,5.3q-6,7.11-12.05,14.21L3189,654l-12,14.31-4.7,5.2-12,14.31-4.71,5.19-12.21,14.31-1.78,2.27-14.79,17.26q-3.7,4.06-7.4,8.15-6.14,7.07-12.26,14.15c-1.5,1.75-3,3.51-4.51,5.26-7.3,7.07-15.19,13.61-20.29,22.65l-2.07,2.27c-5.43,5.18-11.4,9.93-14.05,17.36l.15-.2-12.17,14-1.8,2.32L3037.57,830l-1.92,2.44-12,14.3-4.75,5.21-12,14.3-4.73,5.2-12,14.31-2,2.27-14.86,17.23-1.87,2.27-14.76,17.26L2949.3,933l-9.44,11.28-7.29,8.24-9.45,11.28-7.36,8q-6,7.17-11.93,14.33l-4.76,5.28-12,14.24-4.74,5.27-12.06,14.23-4.71,5.18-12,14.33-4.7,5.18-12,14.34-4.7,5.16-12.24,14.34-1.75,2.25-14.8,17.28-1.93,2.24q-7.41,8.64-14.81,17.27l-7.32,8.3-9.41,11.22-4.67,5.13q-4.68,5.81-9.38,11.59l-4.48,5.35-17.61,19.76-4.68,5.38L2717,1203.59l-4.74,5.19-12,14.32-4.73,5.2q-6,7.15-12,14.32l-4.72,5.19-12,14.32-2,2.24-14.87,17.26-1.86,2.25-14.88,17.27-7.28,8.22q-4.72,5.66-9.46,11.29l-1.84,2.22-12.14,14.51-4.47,5.36-12.27,14.16-4.46,5.35L2569,1376.42c-.59.77-1.17,1.54-1.76,2.3a95.63,95.63,0,0,0-20.37,22.8l-4.69,5.16q-6,7.18-12,14.36l-1.94,2.25q-7.4,8.64-14.8,17.26l-4.67,5.15c-5.2,5.36-11.47,9.83-14.11,17.28l.15-.21a10.7,10.7,0,0,0-5.76,8.56l.17-.19-3.06,5.75.19-.22-2.73,5.91.13-.17c-3.53,3.12-2.81,7.34-2.93,11.34l.14-.18a17,17,0,0,0,0,17.26l-.19-.2c.08,4-.41,8.19,3,11.29l-.1-.15,2.82,5.82-.14-.21,3,5.85a23.71,23.71,0,0,0,11.1,10.84l5.52,3.73,2.85,1.84,5.51,3.74,2.88,1.83,5.49,3.72,2.88,1.85,5.49,3.7,3,1.82,5.58,2.7.09,0c2.14,2.72,5.1,3.07,8.26,2.84a1.36,1.36,0,0,0,1.84.29,49.1,49.1,0,0,0,32.33-.05,1.79,1.79,0,0,0,2.1-.34l6.65-2.33a1.29,1.29,0,0,0,1.7-.43l5.79-2.56-.15.1c2.15-.19,4.32-.36,4.93-3l3.35-2.77c2.54.6,4.32-.14,5-2.81l14.49-14.49c3.59-1.42,5.73-3.92,5.91-7.9l5.24-5.85c4.56-2.23,7.63-5.62,8.4-10.8l5.54-6.05c3.59-1.44,5.69-4,5.88-8l2.48-2.87c4.55-2.35,7.54-5.9,8.48-11l2.67-3a14,14,0,0,0,8.59-11c1.79-2,3.57-4,5.35-6,3.77-1.33,5.66-4,5.91-8l5.25-5.82a14.19,14.19,0,0,0,8.54-10.87l5.4-6a8.32,8.32,0,0,0,5.88-7.95l5.27-5.79a14.4,14.4,0,0,0,8.53-10.91l5.41-6c5.54-3,9.8-7,11.13-13.5l2.81-3c4.63-2.24,7.69-5.73,8.53-10.93q2.7-3,5.41-5.92a14,14,0,0,0,8.34-10.77l2.81-3a14.11,14.11,0,0,0,8.52-11l5.42-5.93a8.39,8.39,0,0,0,5.84-8l5.31-5.77c3.92-1.3,5.71-4.11,5.76-8.15l5.39-6.06a8.38,8.38,0,0,0,5.83-7.89l5.33-5.92a14.25,14.25,0,0,0,8.48-10.78l2.67-3a14.07,14.07,0,0,0,8.59-11l5.35-5.86a14.65,14.65,0,0,0,8.49-10.84l2.65-2.94a14.36,14.36,0,0,0,8.59-11l5.36-6a8.62,8.62,0,0,0,5.91-8q2.63-2.88,5.24-5.78a14.65,14.65,0,0,0,8.56-10.91l5.38-6a8.18,8.18,0,0,0,5.9-8l5.26-5.8c5.31-3.32,10-7.14,11.45-13.71,1.76-2,3.52-3.93,5.27-5.9,4.57-2.2,7.49-5.68,8.34-10.75l2.81-3a14,14,0,0,0,8.48-11l2.67-2.91c3.76-1.49,5.58-4.35,5.9-8.29l5.26-5.75a14.48,14.48,0,0,0,8.56-11l5.38-6a8.44,8.44,0,0,0,5.86-8l5.29-5.78a15.08,15.08,0,0,0,8.53-10.92l5.41-6a8.62,8.62,0,0,0,5.85-7.91l5.3-5.87a14.77,14.77,0,0,0,8.51-10.83l2.64-3a14.57,14.57,0,0,0,8.62-11l5.33-5.89a14.08,14.08,0,0,0,8.49-10.81l2.65-3a14.54,14.54,0,0,0,8.61-11l5.34-6c3.77-1.33,5.66-4.06,5.92-8l5.23-5.72a14.5,14.5,0,0,0,8.57-11l5.37-5.93a25.86,25.86,0,0,0,11.47-13.42l-.13.17c4.1-2.88,7.7-6.13,8.41-11.5l5.34-5.86a8.83,8.83,0,0,0,5.93-8.1l5.22-5.75a14.74,14.74,0,0,0,8.58-11l5.36-5.95a8.6,8.6,0,0,0,5.9-8l5.25-5.77a14.09,14.09,0,0,0,8.57-10.93l5.37-6a8.19,8.19,0,0,0,5.91-8l5.25-5.79a14.54,14.54,0,0,0,8.5-10.9l5.43-6.05a8.42,8.42,0,0,0,5.85-7.92l5.31-5.89a14.36,14.36,0,0,0,8.52-10.81l2.62-2.9a14.32,14.32,0,0,0,8.62-11.06l5.33-5.85a14.53,14.53,0,0,0,8.49-10.85l2.65-3c3.88-1.33,5.72-4.08,5.66-8.15l5.5-6c3.62-1.43,5.73-4,5.83-8,1.77-1.94,3.55-3.87,5.33-5.81,4.6-2.25,7.68-5.69,8.5-10.89l8.22-8.72a14,14,0,0,0,8.52-10.8l2.63-2.94a14.07,14.07,0,0,0,8.62-11q2.67-3,5.32-6c3.79-1.33,5.68-4.07,5.94-8l5.22-5.77a14.29,14.29,0,0,0,8.59-10.93l5.35-6c3.77-1.33,5.65-4.07,5.92-8l5.23-5.79a14.26,14.26,0,0,0,8.58-10.9l5.36-5.92a8.52,8.52,0,0,0,5.89-8.05l5.26-5.82a14.87,14.87,0,0,0,8.56-10.88l5.38-6c3.76-1.33,5.62-4.05,5.88-8,.82-.93,1.65-1.86,2.48-2.78,4.36-2.52,7.66-5.84,8.4-11.1l2.75-3a14.65,14.65,0,0,0,8.66-11l5.29-5.89L3422.73,571l3.5-2.89a4.84,4.84,0,0,0,5.92-2.38l-.25.15,8.84-3a2.27,2.27,0,0,0,2.25-.37l25,0a1.72,1.72,0,0,0,1.95.43l6.36,2.85-.22-.14,8.59,5.62-.15-.11,5.54,4,2.45,1.65,11.5,11.3-.15-.24,2.94,5.79-.14-.27.15,22.19.1-.19-3.05,8.49.16-.24-3.74,5.65-1.77,2.52q-2.86,4.4-5.71,8.79l.13-.18a11.82,11.82,0,0,0-5.86,8.46l.17-.21-6.4,8.48L3479,659.7l-5.7,8.76.12-.17q-2.89,4.25-5.81,8.48l.16-.2-6.41,8.45c-.6.91-1.21,1.82-1.81,2.74l-5.75,8.59.12-.16-5.81,8.47.15-.2c-4.07,2.86-7.32,6.33-8.52,11.35l.16-.2-6.53,8.43c-.58.89-1.16,1.77-1.73,2.66q-2.85,4.35-5.69,8.69l.11-.15a11.59,11.59,0,0,0-5.82,8.46l.15-.2a12.18,12.18,0,0,0-5.88,8.47l.18-.22-6.53,8.53-1.64,2.6q-2.88,4.35-5.78,8.7l.14-.19a11.77,11.77,0,0,0-5.77,8.53l.16-.21-6.58,8.45c-.56.87-1.11,1.75-1.67,2.63l-9.44,14.1-1.72,2.62-5.79,8.68.15-.19a12,12,0,0,0-5.79,8.52l.17-.2q-3.26,4.23-6.5,8.45l-1.74,2.65-4,5.74c-.57.79-1.13,1.59-1.7,2.39l-5.76,8.87.16-.2-6.49,8.43-1.76,2.67L3332.9,869l-1.67,2.56c-1.93,2.91-3.87,5.8-5.8,8.7l.15-.19a12,12,0,0,0-5.81,8.5l.16-.21-6.49,8.49-1.71,2.63-5.8,8.67.15-.19a12,12,0,0,0-5.79,8.52l.17-.2-6.51,8.45c-.57.88-1.15,1.76-1.73,2.64l-4,5.75c-.57.79-1.14,1.58-1.7,2.38l-5.76,8.88.16-.21-6.5,8.44-1.75,2.66-4,5.73c-1.46,1.79-2.92,3.59-4.39,5.38L3255,980.54l-1.81,2.52-5.72,8.8.14-.18a11.71,11.71,0,0,0-5.86,8.46l.17-.21-6.41,8.49-1.83,2.55-5.7,8.78.13-.17-5.82,8.47.16-.2-6.43,8.45-1.78,2.74-5.76,8.59.12-.16-5.81,8.47.15-.2a11.41,11.41,0,0,0-5.82,8.51l.18-.21-6.44,8.5-1.8,2.51-5.71,8.81.13-.18a11.71,11.71,0,0,0-5.86,8.46l.17-.21-6.42,8.49c-.6.85-1.21,1.69-1.82,2.54l-5.69,8.79.12-.17-5.82,8.47.15-.2-6.42,8.45c-.6.91-1.19,1.82-1.78,2.73l-5.76,8.61.12-.17-5.79,8.48.15-.19-5.62,8.61.12-.17a12,12,0,0,0-5.77,8.5l.14-.19a11.31,11.31,0,0,0-5.87,8.46l.17-.21a20.51,20.51,0,0,0-8.29,11.49l.12-.15a12.05,12.05,0,0,0-5.77,8.49l.14-.19a11.39,11.39,0,0,0-5.87,8.46l.17-.21a20.73,20.73,0,0,0-8.31,11.48l.12-.16q-3.34,4.17-6.7,8.32l-1.68,2.59-5.82,8.7.16-.2a12.08,12.08,0,0,0-5.81,8.52l.17-.22-6.51,8.49-1.7,2.62-5.8,8.68.15-.19a12,12,0,0,0-5.79,8.53l.17-.21-6.53,8.46-1.71,2.63-4,5.76-1.7,2.35-5.76,8.9.16-.2q-3.26,4.21-6.52,8.44l-1.72,2.65-4,5.74-1.65,2.55-5.81,8.71.15-.2q-2.79,4.32-5.59,8.62l.11-.15a11.47,11.47,0,0,0-5.82,8.46l.16-.2a12,12,0,0,0-5.88,8.47l.17-.22a20,20,0,0,0-8.22,11.54l.11-.14q-2.92,4.21-5.83,8.44l.15-.2a11.72,11.72,0,0,0-5.79,8.53l.16-.21-6.6,8.46c-.55.86-1.1,1.73-1.64,2.6l-5.79,8.7.15-.19a11.74,11.74,0,0,0-5.78,8.53l.16-.21-6.6,8.45-1.65,2.62-5.71,8.72.12-.16a11.54,11.54,0,0,0-5.82,8.47l.16-.2-6.55,8.43-1.71,2.63-5.7,8.72.12-.15a11.41,11.41,0,0,0-5.81,8.46l.15-.2c-4,2.94-7.19,6.43-8.59,11.3l.16-.2-6.42,8.48-1.76,2.72-5.76,8.61.12-.17-5.82,8.47.16-.2c-3.36,1.91-4.89,5-5.6,8.63l.12-.16a12,12,0,0,0-5.77,8.49l.14-.19a11.27,11.27,0,0,0-5.86,8.47l.17-.21a20.38,20.38,0,0,0-8.3,11.48l.11-.15a11.94,11.94,0,0,0-5.76,8.49l.14-.18a11.25,11.25,0,0,0-5.87,8.46l.17-.21a20.53,20.53,0,0,0-8.29,11.48l.11-.15a12,12,0,0,0-5.75,8.49l.13-.17a12.14,12.14,0,0,0-5.86,8.45l.16-.21-9.34,11.27-4.46,5.35c-6.39,6.52-12.7,13.12-19.19,19.53-12.35,12.21-24.81,24.31-37.22,36.45l-2.25,1.77-11.31,9.51-5.41,4.44-8.54,6.72c-.87.53-1.75,1.07-2.62,1.62L2726.1,1686l.19-.14-8.59,5.81-2.71,1.81-8.4,6.46.18-.14a12.14,12.14,0,0,0-8.53,5.73l.18-.13a12.09,12.09,0,0,0-8.56,5.69l.19-.13-8.68,5.56.25-.16-5.53,3.22.1-.06-8.66,5.48.22-.15-5.68,3,.14-.1-8.77,5.39.25-.19-5.68,3.16.22-.15-5.72,3,.18-.12-5.73,2.93.17-.11-5.73,2.9.16-.1-5.73,2.9.15-.1-5.72,2.89.15-.1-5.74,2.87.16-.1-5.76,2.87.17-.11-5.78,2.87.19-.13-5.9,2.76.25-.18-8.22,3.32h0l-5.82,2.63.17-.11-5.91,2.71.25-.18c-3.17.11-6.24.45-8.41,3.19l.16-.09-8.34,3h0l-5.94,2.51.25-.17c-3.17.11-6.37.11-8.56,3l.22-.15-8.46,3.05.14-.08c-3.15,0-6.26.17-8.53,2.86l.16-.1c-3.19-.07-6.32,0-8.55,2.86l.18-.11c-7,.27-13.48,2.51-19.65,5.72l.15-.08a181.73,181.73,0,0,0-33.6,8.46l.15-.09c-4.81.38-9.88-.5-14.07,2.89l.13-.07a53.59,53.59,0,0,0-23.32,5.43l-.9-.25-.79.48c-4-.06-8.11-.37-11.35,2.78l.12-.06c-3.14.06-6.36-.13-8.64,2.7l.21-.16a30.62,30.62,0,0,0-17,5.71l.22-.18c-3.17.09-6.37.1-8.59,3l.22-.18c-3.19,0-6.28.34-8.47,3.11l.16-.11-5.93,2.67.25-.18-8.39,3.21.14-.08-5.79,2.81.18-.12-5.9,2.74.24-.17a97.45,97.45,0,0,0-33.68,17l.23-.18-5.45,3.24,0,0-8.83,5.2.25-.17-5.65,3.17.2-.14-5.67,3,.13-.09-8.7,5.48.24-.16-5.62,3.13.13-.1-8.67,5.52.24-.16-5.64,3.17-2.84,1.76-5.77,3.72L2255,1894l-5.8,4-2.56,1.6-5.79,4-2.58,1.63-5.59,4-2.78,1.82-8.45,6.39.2-.15-8.42,5.84.14-.1-8.8,5.63-2.57,1.71-8.63,6.64-2.52,1.7-8.56,6.69-2.57,1.94-8.52,6.45-2.61,2-11.38,9.14-2.57,2-11.36,9.17-5.4,4.45-11.37,9.47-5.36,4.45-16.85,14.94.22-.15c-9.36,4.62-15.93,12.54-23.22,19.61l-7.53,7.68c-9.79,6.3-17.82,14.55-25.63,23.06l-7.84,7.45c-11.19,6.77-19.52,16.62-28.23,26.07l-16.38,15.63a65.48,65.48,0,0,0-6.48,5q-28.29,28.14-56.4,56.44a63.69,63.69,0,0,0-5,6.48l-10.09,10.82c-9.52,8.66-19.29,17.09-26.18,28.2L1878.58,2229c-9.23,9.35-18.54,18.63-27.65,28.11-3.44,3.58-6.41,7.61-9.59,11.43l-1.76,2.37-23.34,25.51-1.76,2.36q-10.26,11.37-20.54,22.73l-1.76,2.38Q1783.3,2333.89,1774.41,2343.86Z" transform="translate(-25.13 -23.73)"/><path class="cls-1" d="M3220,1061.65l2.68-3.2c2.56-.83,3.28-2.72,3-5.2l2.58-3c3.62-1.39,5.13-4.38,5.94-7.89l-.15.2c6.07-2,6.07-2,8.64,2.39l2.05,3.52a1.71,1.71,0,0,0,.13,2.07c.16,8.66-.73,17.43,2.69,25.74a1.76,1.76,0,0,0,.08,2.13c.28,12,.48,24.05.93,36.07.08,2.22,1.13,4.41,1.73,6.62q.11,7.93.19,15.88c-.15,6.5-.45,13-.45,19.49q0,1117.24,0,2234.49c0,7.9,0,15.8-.05,23.69l.45-.41c-7,.14-13.93.38-20.89.38H993.34c-12.07,0-24.16.37-36.22-.08-17.14-.65-34.26-1.9-51.39-2.89-.05-4.16,3.37-6,5.71-8.59,3.56-1.43,5.65-3.95,5.89-7.87l5.26-5.79c5.32-3.24,9.73-7.23,11.14-13.65l5.59-6a14.46,14.46,0,0,0,8.54-10.76l5.4-5.92a14.48,14.48,0,0,0,8.59-10.82l5.35-5.87c5.94-4.39,11.94-8.75,14.06-16.41l5.46-5.94a14,14,0,0,0,8.53-10.8l5.44-5.63c7.43-.1,14.86-.28,22.29-.28H3108.11c4.64,0,9.3.13,13.93-.06,2.67-.11,5.31-.72,8.1-1.12,1.73-6.52,1-12.56,1-18.52q0-1032.1,0-2064.22a109.06,109.06,0,0,1,.07-11.15c.53-5,1.57-10,2.4-15l-.09.13a12,12,0,0,0,5.81-8.43l-.14.18c3.14-2.07,5.4-4.7,5.47-8.7l2.68-3.22c2.53-.84,3.3-2.71,3-5.18l2.55-3.06c3.54-1.47,5.08-4.41,5.85-7.93l-.11.15a5.36,5.36,0,0,0,2.82-5.88l2.59-3.07c3.62-1.4,5.15-4.36,5.91-7.9l-.13.18a12.22,12.22,0,0,0,5.8-8.5l-.15.2c3.29-2,5.56-4.65,5.46-8.77l2.63-3.12c2.61-.84,3.33-2.78,3.06-5.29.84-1,1.67-1.9,2.5-2.86,3.73-1.4,5.17-4.5,6-8.06l-.15.19c3.14-2.09,5.56-4.63,5.47-8.73.89-1.06,1.78-2.11,2.66-3.17,2.59-.83,3.31-2.75,3-5.24l2.53-2.91c3.72-1.39,5.15-4.48,6-8l-.15.18C3217.66,1068.27,3220.08,1065.74,3220,1061.65Z" transform="translate(-25.13 -23.73)"/><path class="cls-1" d="M525.62,3222.1c-9,10-17.88,20.09-26.92,30-2.42,2.66-5.24,5-8.4,7.91-4.34-2.8-8.25-5.16-12-7.77A856.56,856.56,0,0,1,346.1,3137.23c-22.94-24.39-43.63-50.64-63.85-77.3A800.69,800.69,0,0,1,200,2926c-33.23-68.37-58.1-139.58-72.52-214.36a990.49,990.49,0,0,1-14.14-99.14c-1.91-21.34-2.53-42.65-2.54-64q-.09-655.86,0-1311.71c0-4.45.3-8.9.46-13.29,1.28,0,2-.17,2.13,0,2.26,4.06,4.53,8.1,6.63,12.24q44,86.34,95.19,168.55c1.94,3.12,4.34,6,6.52,8.92l3.67,5.63-.13-.2c3.87,6.84,3.11,14.35,3.11,21.72q0,548.63,0,1097.24c0,12.53.16,25.06.57,37.58.13,4.08,1.3,8.12,2,12.18l.15,4.89c.18,9.56-1.16,19.26,2.66,28.47a1.88,1.88,0,0,0,.13,2.2c.1,6.83-.83,13.79,2.63,20.19a1.76,1.76,0,0,0,.18,2.12c0,5.79-.73,11.69,2.7,16.93l-.08-.15c.07,5.09-.5,10.3,2.7,14.82a1.33,1.33,0,0,0,.17,1.83c-.08,4.27-.33,8.58,2.59,12.22a1.16,1.16,0,0,0,.17,1.71c0,4-.49,8.2,2.72,11.48l-.15-.21c0,4.26-.15,8.56,2.83,12.12a1.22,1.22,0,0,0,.25,1.73c-.17,3.42-.05,6.75,2.53,9.44a1.2,1.2,0,0,0,.26,1.71q1.28,4.71,2.53,9.42a1.23,1.23,0,0,0,.27,1.74c-.09,3.18-.12,6.34,2.64,8.65l-.13-.2,2.79,9.36a1.24,1.24,0,0,0,.32,1.72c-.14,3.17.15,6.2,2.72,8.5l-.05-.1c-.06,3.16.16,6.24,2.8,8.51l-.07-.14c0,3.14.15,6.22,2.95,8.37l0,0c.89,1.93,1.79,3.86,2.68,5.8l-.11-.18c0,3.15.3,6.22,3,8.44l-.06-.1,2.58,5.95-.18-.25c.06,3.18.29,6.31,3.13,8.47l-.13-.19,3.09,8.31v0q1.31,2.92,2.62,5.85l-.13-.19c.91,2,1.81,4,2.72,5.92l-.19-.25c.08,3.17.54,6.19,3.27,8.33l-.05-.11c.91,1.94,1.83,3.88,2.74,5.81l-.13-.18q1.41,2.93,2.8,5.87l-.17-.23c1,2,1.92,3.91,2.87,5.86l-.18-.25c.33,5.36,2.77,9.76,6.16,13.74h0l2.76,5.62,0,0,2.83,5.55h0c1.3,5.55,3.56,10.57,8,14.38l-.19-.24,3.06,5.75-.16-.23c1,1.9,2,3.8,3,5.71l-.12-.19,3,5.69-.09-.14,3,5.6,0-.06a12,12,0,0,0,5.4,8.69l-.15-.22,3.13,5.57-.05-.08,5.49,8.62-.13-.18a12,12,0,0,0,5.63,8.62l-.15-.24c1.05,1.89,2.09,3.78,3.14,5.66.6.94,1.2,1.88,1.81,2.82l3.77,5.55,1.92,2.81,6.31,8.42-.13-.18,5.79,8.6,1.86,2.7,6.47,8.52,1.9,2.63,6.5,8.43c1.49,1.84,3,3.69,4.46,5.54l6.7,8.4,7.14,8.33,6.83,8.31,12.81,14c6.83,7.45,13.42,15.14,20.57,22.26,5.15,5.14,9.49,11.37,16.61,14.25l-.29-.28c1.23,4.65,4.67,7.27,8.63,9.42l16.82,15.47,8.28,6.75,8.39,7.21,8.35,6.61,5.61,4.53,8.37,6.37,2.71,2,8.45,6.35,2.8,2,5.52,4,2.61,1.7,8.61,6.17,2.94,2.05c2.5,2.76,3.79,5.63,1.24,9.14a38.18,38.18,0,0,0-2.48,4.48l-4.49,5.3-12.26,14.22-4.47,5.28Z" transform="translate(-25.13 -23.73)"/><path class="cls-1" d="M2601,428.85l-.83-.52-1,.14-9.27-2.82.2.14c-2.25-2.86-5.46-2.69-8.61-2.71l.1.06c-14.38-5.92-29.45-9.07-44.78-11.17l-.81-.47-.91.25a72.62,72.62,0,0,0-28.83-5.68l.21.19c-5.15-3.8-11.16-2.72-16.94-3l.2.2c-1.19-.66-2.32-1.77-3.57-1.92-16.11-2-32.19-4.64-48.37-5.67-24.55-1.57-49.17-2.8-73.76-2.82q-383.36-.3-766.7-.16c-6.48,0-13-.53-19.46-.81l.44.23a11.8,11.8,0,0,0-5.78-8.55l.16.21a11.51,11.51,0,0,0-5.75-8.57l.16.22a11.43,11.43,0,0,0-5.81-8.51l.15.19c-.89-3.47-2.27-6.57-6-7.93l-2.66-3a8.46,8.46,0,0,0-5.71-8.18l-2.63-3c-.08-4-2.08-6.65-5.73-8.14l-2.7-3a14,14,0,0,0-8.45-11l-2.75-2.95a14,14,0,0,0-8.4-10.8c-1.84-2-3.67-3.95-5.5-5.92.18-4.34-3.26-6.39-5.73-9.05s-5.19-5.31-7.6-8.14c-2.54-3-6.19-5.29-7.73-10.44,6-.14,11-.36,16-.36q169.94,0,339.88,0,268.85,0,537.68,0c7.42,0,14.84-.18,22.26-.28l21.7.6c8.35,3.26,17.07,2.38,25.72,2.3l7.86.46c5.43,3.06,11.35,2.46,17.21,2.24l7.76.58c4.51,3,9.56,2.52,14.57,2.31l5,.47c3.52,2.69,7.59,2.54,11.69,2.22l5.14.53c3.48,2.72,7.53,2.61,11.61,2.34l4.75.56c2.66,2.42,5.86,2.53,9.18,2.17l4.78.62c2.64,2.47,5.85,2.58,9.17,2.23l4.63.59c2.68,2.56,6,2.59,9.36,2.38a1.84,1.84,0,0,0,2.09.33c2.57,2.48,5.75,2.66,9.05,2.41a2,2,0,0,0,2.14.37c2.55,2.49,5.74,2.67,9,2.47a1.66,1.66,0,0,0,2,.36l9.19,2.61-.09,0c2.31,2.49,5.28,2.79,8.42,2.54a2.05,2.05,0,0,0,2.15.43l9,2.72-.13-.07c2.29,2.62,5.36,2.82,8.52,2.73l0,0c2.29,2.5,5.26,2.9,8.42,2.75a1.24,1.24,0,0,0,1.68.36l6.67,2.42a1.23,1.23,0,0,0,1.67.37l6.69,2.47h0l8.37,2.91-.11-.06c2.21,2.68,5.29,2.95,8.43,3l-.2-.13,5.82,2.45a1.49,1.49,0,0,0,1.8.48l6.56,2.63-.13-.08,5.69,2.46a1.76,1.76,0,0,0,1.93.54l6.44,2.67-.14-.08,5.73,2.53a1.38,1.38,0,0,0,1.72.5l6.58,2.8-.21-.14,5.78,2.92-.27-.13c-.24,2.61-.49,5.23-.73,7.85L2715,366.15c-12.43,9.34-23.31,20.33-33.78,31.76l-13.62,12.87c-8.48,7.63-17,15.23-25.44,22.89-3,2.75-5.65,6.14-10.38,5.81l.23.19-5.92-2.46-.75-.54-.93.14-6.68-2.48,0,0c-2.26-2.56-5.26-2.9-8.41-2.81l0,0C2607.1,429,2604.12,428.68,2601,428.85Z" transform="translate(-25.13 -23.73)"/><path class="cls-2" d="M3161.34,777.3c-2.28-6.4-4.6-12.79-6.81-19.21a24.2,24.2,0,0,1-.55-4.29c6.49,6.55,14.37,21.52,18.52,34.65l-2.79,2.79Z" transform="translate(-25.13 -23.73)"/><path class="cls-3" d="M3086.07,886l8.36,25.1-2.79,2.78c-6.4-12.38-10.11-25.72-13.94-39l2.79-2.79,2.79,8.37Z" transform="translate(-25.13 -23.73)"/><path class="cls-4" d="M3058.19,607.23c-7.23-3.42-9.42-11.05-13.94-16.73l2.79-2.79a101.3,101.3,0,0,0,7,8.36,13.18,13.18,0,0,1,4.11,11.17Z" transform="translate(-25.13 -23.73)"/><path class="cls-5" d="M3033.1,571l8.39,11.16-2.81,2.81-8.38-11.19Z" transform="translate(-25.13 -23.73)"/><path class="cls-6" d="M2955.05,663l-2.8,2.81-8.37-11.16h5.58Q2952.25,658.81,2955.05,663Z" transform="translate(-25.13 -23.73)"/><path class="cls-7" d="M2868.61,426l8.37,8.34c0,.94,0,1.88,0,2.82v0q-5.58-4.2-11.17-8.39Z" transform="translate(-25.13 -23.73)"/><path class="cls-8" d="M2885.35,439.92c4.89-.48,7.24,4.11,11.14,5.61l-2.79,2.81a8.51,8.51,0,0,1-8.38-5.57Z" transform="translate(-25.13 -23.73)"/><path class="cls-5" d="M2798.93,523.59c0,.93,0,1.87,0,2.8-2.24-1.38-4.54-2.69-6.67-4.22a2.39,2.39,0,0,1,0-2.27c.41-.56,1.87-1.12,2.18-.86A62.87,62.87,0,0,1,2798.93,523.59Z" transform="translate(-25.13 -23.73)"/><path class="cls-7" d="M3063.76,615.61l-5.57-8.38h0a8.44,8.44,0,0,1,8.38,5.57Z" transform="translate(-25.13 -23.73)"/><path class="cls-9" d="M2899.26,453.89l2.8-2.79,5.58,2.79-2.79,2.81Z" transform="translate(-25.13 -23.73)"/><path class="cls-10" d="M2957.81,671.36l8.38,2.79-2.79,5.57Z" transform="translate(-25.13 -23.73)"/><path class="cls-6" d="M2879.76,439.94l-2.79-2.77c0-.94,0-1.88,0-2.82a8.54,8.54,0,0,1,8.37,5.57l0,2.85Z" transform="translate(-25.13 -23.73)"/><path class="cls-6" d="M2810.06,534.75l2.79-2.82,5.56,2.82-2.78,2.8Q2812.86,536.14,2810.06,534.75Z" transform="translate(-25.13 -23.73)"/><path class="cls-7" d="M2985.69,707.6l2.8-2.79,2.79,2.79v5.58Z" transform="translate(-25.13 -23.73)"/><path class="cls-11" d="M2798.9,526.38a29.36,29.36,0,0,1,5,.28c.36.07.41,1.65.6,2.54Z" transform="translate(-25.13 -23.73)"/></g></g></g></svg>