<svg xmlns="http://www.w3.org/2000/svg" viewBox="0 0 1024 268"><defs><style>.cls-1{fill:#ec5d79;}.cls-2{fill:#f398ac;}.cls-3{fill:#f1849a;}.cls-4{fill:#f7b2c1;}.cls-5{fill:#ec5d7b;}.cls-6{fill:#ec5d7a;}.cls-7{fill:#ec5f7c;}.cls-8{fill:#ed5e7c;}.cls-9{fill:#ed607d;}.cls-10{fill:#ec5e7c;}.cls-11{fill:#ed6480;}</style></defs><title>5Asset 2</title><g id="Layer_2" data-name="Layer 2"><g id="Layer_1-2" data-name="Layer 1"><path class="cls-1" d="M67,256.86,53,269H47c-1.89-1-3.84-1.85-5.67-2.93-9.27-5.49-10.28-10.26-4.08-18.78a3.67,3.67,0,0,0,.34-.92,9.45,9.45,0,0,1-1.89-.58,18,18,0,0,1-2.46-1.71c-15.81-12.65-25-29-25.25-49.33-.44-32.43-.14-64.88-.07-97.32,0-1.49.73-3,1.12-4.47L9,94.06l2.91,3c.24,1.16.47,2.33.7,3.49l1.32-.51L12.06,97,10.12,94,9,93,1,72V55a33.77,33.77,0,0,0,1.74-4.42C8.63,26.43,23.71,11,47.2,3.46,49.8,2.63,52.4,1.82,55,1H73c3,.83,5.91,1.64,8.86,2.48C93.66,6.82,103.47,13.39,112,22l1,2,3.93,4.89,0,.09c11.55,18,14.63,36.73,5.61,56.84-8.55,19.05-20.89,35.58-33.8,51.71C81.21,147,73,155.92,64,166.33L16.86,107.62v4.22q0,39.75,0,79.5c0,18.52,7.56,33.44,21.78,45.16a42.18,42.18,0,0,1,4,4.52c.68-.77,1.57-1.73,2.42-2.72C65.78,213.9,86.79,189.78,107,165c11.22-13.78,21.29-28.53,31.42-43.16a19.92,19.92,0,0,0,3.39-11.66c-.93-15.44,5.23-27.26,16.35-37.42C172,60.08,185.52,46.94,199.17,34L205,28.3c3.82-3.46,7.45-7.17,11.55-10.25,1.64-1.23,5.14-2.23,6.36-1.34,2.88,2.1.29,4.32-1.35,6.13Q191.2,56.32,160.82,89.78c-4.19,4.62-3.62,8.49,1.79,9.6,1.9.38,4.95-.93,6.31-2.48,16.1-18.43,32-37.05,47.93-55.62,4.12-4.8,8.28-9.57,12.4-14.37,1.85-2.14,4-4.21,6.71-1.85s.43,4.53-1.16,6.38Q206,65,177.15,98.46c-.65.75-1.33,1.49-2,2.27-1.75,2.2-3.3,4.55-.49,7s5.53,1.83,7.89-.83c3-3.36,6-6.73,8.88-10.15q25-29.2,50-58.43c.33-.37.65-.76,1-1.12,2-2.2,4.36-5.36,7.37-2.58s-.79,4.68-2.33,6.49q-28.85,33.81-57.83,67.51c-2.19,2.55-4.27,5-.59,8,3.3,2.66,6.55,2.35,9.46-1.21Q227,80.54,255.43,45.71c.63-.78,1.14-2.1,1.88-2.24a43.54,43.54,0,0,1,6.27-.38c-.06,1.75.53,3.95-.29,5.19C257.5,57,251.41,65.57,245.43,74.19c-.85,1.22-1.6,2.5-2.4,3.75l-7,10.94A26.72,26.72,0,0,0,233,92c-5.44,7.76-10.87,15.53-16.19,23.38a47.41,47.41,0,0,1-29.24,20.24c-8.35,1.94-15.87,5.28-22.21,10.71-8.69,7.45-17.41,15-25,23.55-14.72,16.48-28.72,33.62-42.91,50.57-7.88,9.41-15.55,19-23.32,28.49ZM64.83,33A30.67,30.67,0,0,0,34.14,63.37C34.06,79.72,47.8,93.56,64.34,93.8S94.79,80.28,94.86,63.32A30.13,30.13,0,0,0,64.83,33ZM15.46,102.29l-1.51.55,1.64,3,1.13-.57Z" transform="translate(-1 -1)"/><path class="cls-2" d="M1025,142v39a6,6,0,0,1-.85.06q0-19.51-.08-39Z" transform="translate(-1 -1)"/><path class="cls-3" d="M1025,142c-.31,0-.62,0-.93,0l-.09-38,1,0Z" transform="translate(-1 -1)"/><path class="cls-4" d="M1024.15,181.06a6,6,0,0,0,.85-.06v36a6.4,6.4,0,0,1-.88.09Z" transform="translate(-1 -1)"/><path class="cls-5" d="M658,162.87c0-17.85,0-35,0-52.16,0-7.37,0-7.37,7.28-7.38h17.61c.11,2.24.24,3.71.24,5.17,0,33.67,0,67.33-.16,101-.14,24.84-17.14,46.31-39.6,50.51-26.76,5-51.07-10.56-57.79-37-6.62-26,5.34-52.35,28.83-62.54a46.53,46.53,0,0,1,39.17.42C654.77,161.45,656,162,658,162.87Zm-24.48,71.27c13.54,0,24.39-11.47,24.34-25.72,0-13.63-11.38-25.34-24.47-25.28-13.3.06-24.39,11.87-24.37,26C609,222.79,620.14,234.14,633.52,234.14Z" transform="translate(-1 -1)"/><path class="cls-6" d="M1024.15,181.06l0,36c-5.16,36.76-44.89,55.84-75.35,36.19-17.07-11-26.33-32.8-22.35-53.55,4.19-21.93,16.69-36.75,38.76-42a45.41,45.41,0,0,1,29.33,2.68c1.47.65,3,1.24,5.35,2.23V104H1024l.09,38Q1024.11,161.54,1024.15,181.06Zm-24.81,27.68c.07-14.06-10.67-25.6-23.84-25.6-13.37,0-24.44,11.34-24.5,25.1-.07,14.64,10.32,25.85,24,25.9C989,234.19,999.27,223.46,999.34,208.74Z" transform="translate(-1 -1)"/><path class="cls-5" d="M409.75,260.87c-26.64.91-52.18-23.25-49.16-56.34,2.23-24.41,17.33-41.95,39-46.87,27.78-6.31,56.06,13.78,59.42,42.15,2.73,23.09-4.73,41.62-24.51,54.5C427.18,259.06,419.41,260.87,409.75,260.87Zm24.38-52c0-14.12-10.51-25.57-23.65-25.7-13.59-.13-24.65,11.14-24.79,25.26-.13,14.44,10.39,25.7,24.07,25.73C423.69,234.17,434.11,223.36,434.13,208.84Z" transform="translate(-1 -1)"/><path class="cls-5" d="M571.52,208.53c-.42,31.27-23.33,54.1-53.33,52.25-19.16-1.18-32.63-11.43-41-28.4-11-22.35-4.41-50.74,15.13-65.82,26.58-20.52,68.44-9.12,77.5,29.14C570.83,199.88,571,204.25,571.52,208.53ZM522,234.14c13.43,0,24-11.15,24-25.28S535.09,183,521.74,183.14c-13.16.11-24.3,11.58-24.53,25.25C497,222.49,508.23,234.18,522,234.14Z" transform="translate(-1 -1)"/><path class="cls-7" d="M347.63,184.15H304.92v73.47h-25V103.69c2.2-.15,3.82-.35,5.44-.35,19.33,0,38.65.11,58-.12,4,0,5.36,1.43,5.34,5.07,0,5.95,0,11.9,0,18.26H304.9c0,9.49-.12,18.59.2,27.66,0,.93,2.72,2.5,4.21,2.53,10.82.21,21.65.11,32.48.11h5.84Z" transform="translate(-1 -1)"/><path class="cls-7" d="M763.77,156.85V184H720.82v73.68H695.7V104.15c3.61-.31,6.7-.78,9.79-.79,17.66-.07,35.32.12,53-.14,4.72-.07,6.07,1.44,5.77,6-.36,5.6-.08,11.24-.08,17.31H720.94c0,9.69-.1,18.94.19,28.19,0,.76,2.68,2,4.13,2.06,10.82.17,21.65.09,32.48.09Z" transform="translate(-1 -1)"/><path class="cls-6" d="M913,257.84H888v-5.4c0-14.83.21-29.66-.06-44.49-.35-19.43-20.52-31.1-36.54-21.19-8.08,5-12.22,12.52-12.25,22.11,0,16.14,0,32.27,0,48.77H814.56c-.23-.42-.52-.7-.52-1,.28-19.46-.52-39,1.18-58.36,1.76-20.17,22.17-44.8,55.16-41.43,22.3,2.27,42,23.67,42.57,48.15C913.33,222.46,913,239.93,913,257.84Z" transform="translate(-1 -1)"/><path class="cls-8" d="M67,256.86,74.08,249H236V88.88l7-10.94c.71,1.72,2,3.43,2,5.15q.16,86,.08,172a28.77,28.77,0,0,1-.36,2.94h-5.52q-83.25-.08-166.48-.18A34.09,34.09,0,0,1,67,256.86Z" transform="translate(-1 -1)"/><path class="cls-9" d="M776.53,157.16H801.3v100.6H776.53Z" transform="translate(-1 -1)"/><path class="cls-10" d="M113,24l-1-2c1.26-.68,2.52-1.94,3.78-2,22.15-.07,44.31-.3,66.45.25,6.67.16,13.34,2.42,19.91,4.11,1.2.31,1.91,2.52,2.85,3.86L199.17,34c-1.26-.69-2.45-1.83-3.78-2-7.53-1-15.07-2.45-22.64-2.63-18.58-.45-37.18-.29-55.78-.38l0-.09C117.27,25.93,116.65,23.73,113,24Z" transform="translate(-1 -1)"/><path class="cls-7" d="M788.58,150c-8.55-.1-14.73-6.94-14.58-16.14.14-8.8,7.09-15.76,15.48-15.51s14.81,7.6,14.63,16.42C803.91,143.79,797.48,150.11,788.58,150Z" transform="translate(-1 -1)"/><path class="cls-11" d="M113,24c3.66-.27,4.28,1.93,3.93,4.89Z" transform="translate(-1 -1)"/><path class="cls-9" d="M15.46,102.29l1.26,3-1.13.57-1.64-3Z" transform="translate(-1 -1)"/><path class="cls-9" d="M10.12,94,12.06,97l-.17.11L9,94.06Z" transform="translate(-1 -1)"/><path class="cls-9" d="M12.06,97l1.85,3.09-1.32.51c-.23-1.16-.46-2.33-.7-3.49Z" transform="translate(-1 -1)"/></g></g></svg>