<?xml version="1.0" encoding="utf-8"?>
<!-- Generator: Adobe Illustrator 23.0.1, SVG Export Plug-In . SVG Version: 6.00 Build 0)  -->
<svg version="1.1" id="Layer_1" xmlns="http://www.w3.org/2000/svg" xmlns:xlink="http://www.w3.org/1999/xlink" x="0px" y="0px"
	 viewBox="0 0 1907 1080" style="enable-background:new 0 0 1907 1080;" xml:space="preserve">
<style type="text/css">
	.st0{fill-rule:evenodd;clip-rule:evenodd;fill:#ED5B79;stroke:#ED5B79;stroke-width:6;stroke-miterlimit:10;}
</style>
<title>5Asset 4</title>
<path class="st0" d="M78.1,86.8c-28.9-7.1-55.5-12.2-63.5-25.5c-7.4-12.3-0.2-22.8,6.9-27.1c4.2-2.5,14.3-6.4,27.1,3.4
	c-2.6-16,5.7-23.1,9.8-25.5c8.2-4.9,20.2-4.9,27.1,6.6C93.4,31.9,85.7,56.6,78.1,86.8 M56.4,8.8c-7.1,4.3-12.3,12-12.1,21.6
	c-8.4-4.7-17.7-3.7-24.8,0.5c-10.3,6.2-16,19.3-8.1,32.3C20.4,78.3,47.7,83,80.9,91.3c8.3-33.2,16.9-59.4,7.8-74.6
	C80.8,3.7,66.6,2.7,56.4,8.8"/>
<path class="st0" d="M217.1,87.5c-28.9-7.1-55.5-12.2-63.5-25.5c-7.4-12.3-0.2-22.8,6.9-27.1c4.2-2.5,14.3-6.4,27.1,3.4
	c-2.6-16,5.7-23.1,9.8-25.5c8.2-4.9,20.2-4.9,27.1,6.6C232.4,32.7,224.8,57.4,217.1,87.5 M195.4,9.6c-7.1,4.3-12.3,12-12.1,21.6
	c-8.4-4.7-17.7-3.7-24.8,0.5c-10.3,6.2-16,19.3-8.1,32.3c9.1,15.1,36.3,19.8,69.5,28.1c8.3-33.2,16.9-59.4,7.8-74.6
	C219.9,4.5,205.7,3.4,195.4,9.6"/>
<path class="st0" d="M356.2,87.1C327.2,80,300.6,75,292.6,61.6c-7.4-12.3-0.2-22.8,6.9-27.1c4.2-2.5,14.3-6.4,27.1,3.4
	c-2.6-16,5.7-23.1,9.8-25.5c8.2-4.9,20.2-4.9,27.1,6.6C371.4,32.3,363.8,57,356.2,87.1 M334.4,9.2c-7.1,4.3-12.3,12-12.1,21.6
	c-8.4-4.7-17.7-3.7-24.8,0.5c-10.3,6.2-16,19.3-8.1,32.3c9.1,15.1,36.3,19.8,69.5,28.1c8.3-33.2,16.9-59.4,7.8-74.6
	C358.9,4.1,344.7,3,334.4,9.2"/>
<path class="st0" d="M495.2,87.9c-28.9-7.1-55.5-12.2-63.5-25.5c-7.4-12.3-0.2-22.8,6.9-27.1c4.2-2.5,14.3-6.4,27.1,3.4
	c-2.6-16,5.7-23.1,9.8-25.5c8.2-4.9,20.2-4.9,27.1,6.6C510.5,33.1,502.8,57.8,495.2,87.9 M473.5,10c-7.1,4.3-12.3,12-12.1,21.6
	c-8.4-4.7-17.7-3.7-24.8,0.5c-10.3,6.2-16,19.3-8.1,32.3c9.1,15.1,36.3,19.8,69.5,28.1c8.3-33.2,16.9-59.4,7.8-74.6
	C497.9,4.9,483.7,3.8,473.5,10"/>
<path class="st0" d="M634.2,87.3c-28.9-7.1-55.5-12.2-63.5-25.5c-7.4-12.3-0.2-22.8,6.9-27.1c4.2-2.5,14.3-6.4,27.1,3.4
	c-2.6-16,5.7-23.1,9.8-25.5c8.2-4.9,20.2-4.9,27.1,6.6C649.5,32.5,641.8,57.2,634.2,87.3 M612.5,9.4c-7.1,4.3-12.3,12-12.1,21.6
	c-8.4-4.7-17.7-3.7-24.8,0.5c-10.3,6.2-16,19.3-8.1,32.3c9.1,15.1,36.3,19.8,69.5,28.1c8.3-33.2,16.9-59.4,7.8-74.6
	C636.9,4.3,622.7,3.2,612.5,9.4"/>
<path class="st0" d="M773.2,88.1c-28.9-7.1-55.5-12.2-63.5-25.5c-7.4-12.3-0.2-22.8,6.9-27.1c4.2-2.5,14.3-6.4,27.1,3.4
	c-2.6-16,5.7-23.1,9.8-25.5c8.2-4.9,20.2-4.9,27.1,6.6C788.5,33.2,780.8,58,773.2,88.1 M751.5,10.2c-7.1,4.3-12.3,12-12.1,21.6
	c-8.4-4.7-17.7-3.7-24.8,0.5c-10.3,6.2-16,19.3-8.1,32.3c9.1,15.1,36.3,19.8,69.5,28.1c8.3-33.2,16.9-59.4,7.8-74.6
	C775.9,5.1,761.7,4,751.5,10.2"/>
<path class="st0" d="M912.3,87.7c-28.9-7.1-55.5-12.2-63.5-25.5c-7.4-12.3-0.2-22.8,6.9-27.1c4.2-2.5,14.3-6.4,27.1,3.4
	c-2.6-16,5.7-23.1,9.8-25.5c8.2-4.9,20.2-4.9,27.1,6.6C927.5,32.9,919.9,57.6,912.3,87.7 M890.5,9.8c-7.1,4.3-12.3,12-12.1,21.6
	c-8.4-4.7-17.7-3.7-24.8,0.5c-10.3,6.2-16,19.3-8.1,32.3c9.1,15.1,36.3,19.8,69.5,28.1c8.3-33.2,16.9-59.4,7.8-74.6
	C915,4.7,900.8,3.6,890.5,9.8"/>
<path class="st0" d="M1051.3,88.5c-28.9-7.1-55.5-12.2-63.5-25.5c-7.4-12.3-0.2-22.8,6.9-27.1c4.2-2.5,14.3-6.4,27.1,3.4
	c-2.6-16,5.7-23.1,9.8-25.5c8.2-4.9,20.2-4.9,27.1,6.6C1066.5,33.6,1058.9,58.4,1051.3,88.5 M1029.5,10.5
	c-7.1,4.3-12.3,12-12.1,21.6c-8.4-4.7-17.7-3.7-24.8,0.5c-10.3,6.2-16,19.3-8.1,32.3c9.1,15.1,36.3,19.8,69.5,28.1
	c8.3-33.2,16.9-59.4,7.8-74.6C1054,5.4,1039.8,4.4,1029.5,10.5"/>
<path class="st0" d="M1190.3,87.2c-28.9-7.1-55.5-12.2-63.5-25.5c-7.4-12.3-0.2-22.8,6.9-27.1c4.2-2.5,14.3-6.4,27.1,3.4
	c-2.6-16,5.7-23.1,9.8-25.5c8.2-4.9,20.2-4.9,27.1,6.6C1205.6,32.4,1197.9,57.1,1190.3,87.2 M1168.6,9.3c-7.1,4.3-12.3,12-12.1,21.6
	c-8.4-4.7-17.7-3.7-24.8,0.5c-10.3,6.2-16,19.3-8.1,32.3c9.1,15.1,36.3,19.8,69.5,28.1c8.3-33.2,16.9-59.4,7.8-74.6
	C1193,4.2,1178.8,3.1,1168.6,9.3"/>
<path class="st0" d="M1329.3,88c-28.9-7.1-55.5-12.2-63.5-25.5c-7.4-12.3-0.2-22.8,6.9-27.1c4.2-2.5,14.3-6.4,27.1,3.4
	c-2.6-16,5.7-23.1,9.8-25.5c8.2-4.9,20.2-4.9,27.1,6.6C1344.6,33.1,1336.9,57.9,1329.3,88 M1307.6,10.1c-7.1,4.3-12.3,12-12.1,21.6
	c-8.4-4.7-17.7-3.7-24.8,0.5c-10.3,6.2-16,19.3-8.1,32.3c9.1,15.1,36.3,19.8,69.5,28.1c8.3-33.2,16.9-59.4,7.8-74.6
	C1332,5,1317.8,3.9,1307.6,10.1"/>
<path class="st0" d="M1468.3,87.6c-28.9-7.1-55.5-12.2-63.5-25.5c-7.4-12.3-0.2-22.8,6.9-27.1c4.2-2.5,14.3-6.4,27.1,3.4
	c-2.6-16,5.7-23.1,9.8-25.5c8.2-4.9,20.2-4.9,27.1,6.6C1483.6,32.8,1476,57.5,1468.3,87.6 M1446.6,9.7c-7.1,4.3-12.3,12-12.1,21.6
	c-8.4-4.7-17.7-3.7-24.8,0.5c-10.3,6.2-16,19.3-8.1,32.3c9.1,15.1,36.3,19.8,69.5,28.1c8.3-33.2,16.9-59.4,7.8-74.6
	C1471.1,4.6,1456.9,3.5,1446.6,9.7"/>
<path class="st0" d="M1607.4,88.4c-28.9-7.1-55.5-12.2-63.5-25.5c-7.4-12.3-0.2-22.8,6.9-27.1c4.2-2.5,14.3-6.4,27.1,3.4
	c-2.6-16,5.7-23.1,9.8-25.5c8.2-4.9,20.2-4.9,27.1,6.6C1622.6,33.5,1615,58.3,1607.4,88.4 M1585.6,10.4c-7.1,4.3-12.3,12-12.1,21.6
	c-8.4-4.7-17.7-3.7-24.8,0.5c-10.3,6.2-16,19.3-8.1,32.3c9.1,15.1,36.3,19.8,69.5,28.1c8.3-33.2,16.9-59.4,7.8-74.6
	C1610.1,5.3,1595.9,4.3,1585.6,10.4"/>
<path class="st0" d="M1746.4,87.8c-28.9-7.1-55.5-12.2-63.5-25.5c-7.4-12.3-0.2-22.8,6.9-27.1c4.2-2.5,14.3-6.4,27.1,3.4
	c-2.6-16,5.7-23.1,9.8-25.5c8.2-4.9,20.2-4.9,27.1,6.6C1761.7,33,1754,57.7,1746.4,87.8 M1724.7,9.9c-7.1,4.3-12.3,12-12.1,21.6
	c-8.4-4.7-17.7-3.7-24.8,0.5c-10.3,6.2-16,19.3-8.1,32.3c9.1,15.1,36.3,19.8,69.5,28.1c8.3-33.2,16.9-59.4,7.8-74.6
	C1749.1,4.8,1734.9,3.7,1724.7,9.9"/>
<path class="st0" d="M1882.7,88.5c-28.9-7.1-55.5-12.2-63.5-25.5c-7.4-12.3-0.2-22.8,6.9-27.1c4.2-2.5,14.3-6.4,27.1,3.4
	c-2.6-16,5.7-23.1,9.8-25.5c8.2-4.9,20.2-4.9,27.1,6.6C1898,33.6,1890.3,58.4,1882.7,88.5 M1861,10.5c-7.1,4.3-12.3,12-12.1,21.6
	c-8.4-4.7-17.7-3.7-24.8,0.5c-10.3,6.2-16,19.3-8.1,32.3c9.1,15.1,36.3,19.8,69.5,28.1c8.3-33.2,16.9-59.4,7.8-74.6
	C1885.4,5.4,1871.2,4.4,1861,10.5"/>
<path class="st0" d="M147.3,183.8c-28.9-7.1-55.5-12.2-63.5-25.5c-7.4-12.3-0.2-22.8,6.9-27.1c4.2-2.5,14.3-6.4,27.1,3.4
	c-2.6-16,5.7-23.1,9.8-25.5c8.2-4.9,20.2-4.9,27.1,6.6C162.6,128.9,154.9,153.7,147.3,183.8 M125.6,105.9
	c-7.1,4.3-12.3,12-12.1,21.6c-8.4-4.7-17.7-3.7-24.8,0.5c-10.3,6.2-16,19.3-8.1,32.3c9.1,15.1,36.3,19.8,69.5,28.1
	c8.3-33.2,16.9-59.4,7.8-74.6C150,100.8,135.8,99.7,125.6,105.9"/>
<path class="st0" d="M286.3,184.6c-28.9-7.1-55.5-12.2-63.5-25.5c-7.4-12.3-0.2-22.8,6.9-27.1c4.2-2.5,14.3-6.4,27.1,3.4
	c-2.6-16,5.7-23.1,9.8-25.5c8.2-4.9,20.2-4.9,27.1,6.6C301.6,129.7,293.9,154.5,286.3,184.6 M264.6,106.6
	c-7.1,4.3-12.3,12-12.1,21.6c-8.4-4.7-17.7-3.7-24.8,0.5c-10.3,6.2-16,19.3-8.1,32.3c9.1,15.1,36.3,19.8,69.5,28.1
	c8.3-33.2,16.9-59.4,7.8-74.6C289,101.5,274.8,100.5,264.6,106.6"/>
<path class="st0" d="M425.3,184.2c-28.9-7.1-55.5-12.2-63.5-25.5c-7.4-12.3-0.2-22.8,6.9-27.1c4.2-2.5,14.3-6.4,27.1,3.4
	c-2.6-16,5.7-23.1,9.8-25.5c8.2-4.9,20.2-4.9,27.1,6.6C440.6,129.3,433,154.1,425.3,184.2 M403.6,106.2c-7.1,4.3-12.3,12-12.1,21.6
	c-8.4-4.7-17.7-3.7-24.8,0.5c-10.3,6.2-16,19.3-8.1,32.3c9.1,15.1,36.3,19.8,69.5,28.1c8.3-33.2,16.9-59.4,7.8-74.6
	C428.1,101.1,413.8,100.1,403.6,106.2"/>
<path class="st0" d="M564.4,185c-28.9-7.1-55.5-12.2-63.5-25.5c-7.4-12.3-0.2-22.8,6.9-27.1c4.2-2.5,14.3-6.4,27.1,3.4
	c-2.6-16,5.7-23.1,9.8-25.5c8.2-4.9,20.2-4.9,27.1,6.6C579.6,130.1,572,154.8,564.4,185 M542.6,107c-7.1,4.3-12.3,12-12.1,21.6
	c-8.4-4.7-17.7-3.7-24.8,0.5c-10.3,6.2-16,19.3-8.1,32.3c9.1,15.1,36.3,19.8,69.5,28.1c8.3-33.2,16.9-59.4,7.8-74.6
	C567.1,101.9,552.9,100.9,542.6,107"/>
<path class="st0" d="M703.4,184.4c-28.9-7.1-55.5-12.2-63.5-25.5c-7.4-12.3-0.2-22.8,6.9-27.1c4.2-2.5,14.3-6.4,27.1,3.4
	c-2.6-16,5.7-23.1,9.8-25.5c8.2-4.9,20.2-4.9,27.1,6.6C718.6,129.5,711,154.3,703.4,184.4 M681.7,106.4c-7.1,4.3-12.3,12-12.1,21.6
	c-8.4-4.7-17.7-3.7-24.8,0.5c-10.3,6.2-16,19.3-8.1,32.3c9.1,15.1,36.3,19.8,69.5,28.1c8.3-33.2,16.9-59.4,7.8-74.6
	C706.1,101.3,691.9,100.3,681.7,106.4"/>
<path class="st0" d="M842.4,185.1c-28.9-7.1-55.5-12.2-63.5-25.5c-7.4-12.3-0.2-22.8,6.9-27.1c4.2-2.5,14.3-6.4,27.1,3.4
	c-2.6-16,5.7-23.1,9.8-25.5c8.2-4.9,20.2-4.9,27.1,6.6C857.7,130.3,850,155,842.4,185.1 M820.7,107.2c-7.1,4.3-12.3,12-12.1,21.6
	c-8.4-4.7-17.7-3.7-24.8,0.5c-10.3,6.2-16,19.3-8.1,32.3c9.1,15.1,36.3,19.8,69.5,28.1c8.3-33.2,16.9-59.4,7.8-74.6
	C845.1,102.1,830.9,101.1,820.7,107.2"/>
<path class="st0" d="M981.4,184.8c-28.9-7.1-55.5-12.2-63.5-25.5c-7.4-12.3-0.2-22.8,6.9-27.1c4.2-2.5,14.3-6.4,27.1,3.4
	c-2.6-16,5.7-23.1,9.8-25.5c8.2-4.9,20.2-4.9,27.1,6.6C996.7,129.9,989,154.6,981.4,184.8 M959.7,106.8c-7.1,4.3-12.3,12-12.1,21.6
	c-8.4-4.7-17.7-3.7-24.8,0.5c-10.3,6.2-16,19.3-8.1,32.3c9.1,15.1,36.3,19.8,69.5,28.1c8.3-33.2,16.9-59.4,7.8-74.6
	C984.1,101.7,969.9,100.7,959.7,106.8"/>
<path class="st0" d="M1120.4,185.5c-28.9-7.1-55.5-12.2-63.5-25.5c-7.4-12.3-0.2-22.8,6.9-27.1c4.2-2.5,14.3-6.4,27.1,3.4
	c-2.6-16,5.7-23.1,9.8-25.5c8.2-4.9,20.2-4.9,27.1,6.6C1135.7,130.7,1128.1,155.4,1120.4,185.5 M1098.7,107.6
	c-7.1,4.3-12.3,12-12.1,21.6c-8.4-4.7-17.7-3.7-24.8,0.5c-10.3,6.2-16,19.3-8.1,32.3c9.1,15.1,36.3,19.8,69.5,28.1
	c8.3-33.2,16.9-59.4,7.8-74.6C1123.2,102.5,1109,101.4,1098.7,107.6"/>
<path class="st0" d="M1259.5,184.3c-28.9-7.1-55.5-12.2-63.5-25.5c-7.4-12.3-0.2-22.8,6.9-27.1c4.2-2.5,14.3-6.4,27.1,3.4
	c-2.6-16,5.7-23.1,9.8-25.5c8.2-4.9,20.2-4.9,27.1,6.6C1274.7,129.4,1267.1,154.2,1259.5,184.3 M1237.7,106.3
	c-7.1,4.3-12.3,12-12.1,21.6c-8.4-4.7-17.7-3.7-24.8,0.5c-10.3,6.2-16,19.3-8.1,32.3c9.1,15.1,36.3,19.8,69.5,28.1
	c8.3-33.2,16.9-59.4,7.8-74.6C1262.2,101.2,1248,100.2,1237.7,106.3"/>
<path class="st0" d="M1398.5,185.1c-28.9-7.1-55.5-12.2-63.5-25.5c-7.4-12.3-0.2-22.8,6.9-27.1c4.2-2.5,14.3-6.4,27.1,3.4
	c-2.6-16,5.7-23.1,9.8-25.5c8.2-4.9,20.2-4.9,27.1,6.6C1413.8,130.2,1406.1,154.9,1398.5,185.1 M1376.8,107.1
	c-7.1,4.3-12.3,12-12.1,21.6c-8.4-4.7-17.7-3.7-24.8,0.5c-10.3,6.2-16,19.3-8.1,32.3c9.1,15.1,36.3,19.8,69.5,28.1
	c8.3-33.2,16.9-59.4,7.8-74.6C1401.2,102,1387,101,1376.8,107.1"/>
<path class="st0" d="M1537.5,184.7c-28.9-7.1-55.5-12.2-63.5-25.5c-7.4-12.3-0.2-22.8,6.9-27.1c4.2-2.5,14.3-6.4,27.1,3.4
	c-2.6-16,5.7-23.1,9.8-25.5c8.2-4.9,20.2-4.9,27.1,6.6C1552.8,129.8,1545.1,154.6,1537.5,184.7 M1515.8,106.7
	c-7.1,4.3-12.3,12-12.1,21.6c-8.4-4.7-17.7-3.7-24.8,0.5c-10.3,6.2-16,19.3-8.1,32.3c9.1,15.1,36.3,19.8,69.5,28.1
	c8.3-33.2,16.9-59.4,7.8-74.6C1540.2,101.6,1526,100.6,1515.8,106.7"/>
<path class="st0" d="M1676.5,185.4c-28.9-7.1-55.5-12.2-63.5-25.5c-7.4-12.3-0.2-22.8,6.9-27.1c4.2-2.5,14.3-6.4,27.1,3.4
	c-2.6-16,5.7-23.1,9.8-25.5c8.2-4.9,20.2-4.9,27.1,6.6C1691.8,130.6,1684.2,155.3,1676.5,185.4 M1654.8,107.5
	c-7.1,4.3-12.3,12-12.1,21.6c-8.4-4.7-17.7-3.7-24.8,0.5c-10.3,6.2-16,19.3-8.1,32.3c9.1,15.1,36.3,19.8,69.5,28.1
	c8.3-33.2,16.9-59.4,7.8-74.6C1679.3,102.4,1665,101.3,1654.8,107.5"/>
<path class="st0" d="M1815.6,184.9c-28.9-7.1-55.5-12.2-63.5-25.5c-7.4-12.3-0.2-22.8,6.9-27.1c4.2-2.5,14.3-6.4,27.1,3.4
	c-2.6-16,5.7-23.1,9.8-25.5c8.2-4.9,20.2-4.9,27.1,6.6C1830.8,130,1823.2,154.7,1815.6,184.9 M1793.8,106.9
	c-7.1,4.3-12.3,12-12.1,21.6c-8.4-4.7-17.7-3.7-24.8,0.5c-10.3,6.2-16,19.3-8.1,32.3c9.1,15.1,36.3,19.8,69.5,28.1
	c8.3-33.2,16.9-59.4,7.8-74.6C1818.3,101.8,1804.1,100.8,1793.8,106.9"/>
<path class="st0" d="M80.1,283.6c-28.9-7.1-55.5-12.2-63.5-25.5c-7.4-12.3-0.2-22.8,6.9-27.1c4.2-2.5,14.3-6.4,27.1,3.4
	c-2.6-16,5.7-23.1,9.8-25.5c8.2-4.9,20.2-4.9,27.1,6.6C95.4,228.8,87.7,253.5,80.1,283.6 M58.4,205.7c-7.1,4.3-12.3,12-12.1,21.6
	c-8.4-4.7-17.7-3.7-24.8,0.5c-10.3,6.2-16,19.3-8.1,32.3c9.1,15.1,36.3,19.8,69.5,28.1c8.3-33.2,16.9-59.4,7.8-74.6
	C82.8,200.6,68.6,199.5,58.4,205.7"/>
<path class="st0" d="M219.1,284.4c-28.9-7.1-55.5-12.2-63.5-25.5c-7.4-12.3-0.2-22.8,6.9-27.1c4.2-2.5,14.3-6.4,27.1,3.4
	c-2.6-16,5.7-23.1,9.8-25.5c8.2-4.9,20.2-4.9,27.1,6.6C234.4,229.5,226.7,254.3,219.1,284.4 M197.4,206.4
	c-7.1,4.3-12.3,12-12.1,21.6c-8.4-4.7-17.7-3.7-24.8,0.5c-10.3,6.2-16,19.3-8.1,32.3c9.1,15.1,36.3,19.8,69.5,28.1
	c8.3-33.2,16.9-59.4,7.8-74.6C221.8,201.3,207.6,200.3,197.4,206.4"/>
<path class="st0" d="M358.2,284c-28.9-7.1-55.5-12.2-63.5-25.5c-7.4-12.3-0.2-22.8,6.9-27.1c4.2-2.5,14.3-6.4,27.1,3.4
	c-2.6-16,5.7-23.1,9.8-25.5c8.2-4.9,20.2-4.9,27.1,6.6C373.4,229.1,365.8,253.9,358.2,284 M336.4,206.1c-7.1,4.3-12.3,12-12.1,21.6
	c-8.4-4.7-17.7-3.7-24.8,0.5c-10.3,6.2-16,19.3-8.1,32.3c9.1,15.1,36.3,19.8,69.5,28.1c8.3-33.2,16.9-59.4,7.8-74.6
	C360.9,201,346.7,199.9,336.4,206.1"/>
<path class="st0" d="M497.2,284.8c-28.9-7.1-55.5-12.2-63.5-25.5c-7.4-12.3-0.2-22.8,6.9-27.1c4.2-2.5,14.3-6.4,27.1,3.4
	c-2.6-16,5.7-23.1,9.8-25.5c8.2-4.9,20.2-4.9,27.1,6.6C512.4,229.9,504.8,254.7,497.2,284.8 M475.4,206.8
	c-7.1,4.3-12.3,12-12.1,21.6c-8.4-4.7-17.7-3.7-24.8,0.5c-10.3,6.2-16,19.3-8.1,32.3c9.1,15.1,36.3,19.8,69.5,28.1
	c8.3-33.2,16.9-59.4,7.8-74.6C499.9,201.7,485.7,200.7,475.4,206.8"/>
<path class="st0" d="M636.2,284.2c-28.9-7.1-55.5-12.2-63.5-25.5c-7.4-12.3-0.2-22.8,6.9-27.1c4.2-2.5,14.3-6.4,27.1,3.4
	c-2.6-16,5.7-23.1,9.8-25.5c8.2-4.9,20.2-4.9,27.1,6.6C651.5,229.3,643.8,254.1,636.2,284.2 M614.5,206.2
	c-7.1,4.3-12.3,12-12.1,21.6c-8.4-4.7-17.7-3.7-24.8,0.5c-10.3,6.2-16,19.3-8.1,32.3c9.1,15.1,36.3,19.8,69.5,28.1
	c8.3-33.2,16.9-59.4,7.8-74.6C638.9,201.2,624.7,200.1,614.5,206.2"/>
<path class="st0" d="M775.2,285c-28.9-7.1-55.5-12.2-63.5-25.5c-7.4-12.3-0.2-22.8,6.9-27.1c4.2-2.5,14.3-6.4,27.1,3.4
	c-2.6-16,5.7-23.1,9.8-25.5c8.2-4.9,20.2-4.9,27.1,6.6C790.5,230.1,782.8,254.8,775.2,285 M753.5,207c-7.1,4.3-12.3,12-12.1,21.6
	c-8.4-4.7-17.7-3.7-24.8,0.5c-10.3,6.2-16,19.3-8.1,32.3c9.1,15.1,36.3,19.8,69.5,28.1c8.3-33.2,16.9-59.4,7.8-74.6
	C777.9,201.9,763.7,200.9,753.5,207"/>
<path class="st0" d="M914.2,284.6c-28.9-7.1-55.5-12.2-63.5-25.5c-7.4-12.3-0.2-22.8,6.9-27.1c4.2-2.5,14.3-6.4,27.1,3.4
	c-2.6-16,5.7-23.1,9.8-25.5c8.2-4.9,20.2-4.9,27.1,6.6C929.5,229.7,921.9,254.5,914.2,284.6 M892.5,206.6
	c-7.1,4.3-12.3,12-12.1,21.6c-8.4-4.7-17.7-3.7-24.8,0.5c-10.3,6.2-16,19.3-8.1,32.3c9.1,15.1,36.3,19.8,69.5,28.1
	c8.3-33.2,16.9-59.4,7.8-74.6C917,201.5,902.8,200.5,892.5,206.6"/>
<path class="st0" d="M1053.3,285.3c-28.9-7.1-55.5-12.2-63.5-25.5c-7.4-12.3-0.2-22.8,6.9-27.1c4.2-2.5,14.3-6.4,27.1,3.4
	c-2.6-16,5.7-23.1,9.8-25.5c8.2-4.9,20.2-4.9,27.1,6.6C1068.5,230.5,1060.9,255.2,1053.3,285.3 M1031.5,207.4
	c-7.1,4.3-12.3,12-12.1,21.6c-8.4-4.7-17.7-3.7-24.8,0.5c-10.3,6.2-16,19.3-8.1,32.3c9.1,15.1,36.3,19.8,69.5,28.1
	c8.3-33.2,16.9-59.4,7.8-74.6C1056,202.3,1041.8,201.2,1031.5,207.4"/>
<path class="st0" d="M1192.3,284.1c-28.9-7.1-55.5-12.2-63.5-25.5c-7.4-12.3-0.2-22.8,6.9-27.1c4.2-2.5,14.3-6.4,27.1,3.4
	c-2.6-16,5.7-23.1,9.8-25.5c8.2-4.9,20.2-4.9,27.1,6.6C1207.6,229.2,1199.9,254,1192.3,284.1 M1170.6,206.2
	c-7.1,4.3-12.3,12-12.1,21.6c-8.4-4.7-17.7-3.7-24.8,0.5c-10.3,6.2-16,19.3-8.1,32.3c9.1,15.1,36.3,19.8,69.5,28.1
	c8.3-33.2,16.9-59.4,7.8-74.6C1195,201.1,1180.8,200,1170.6,206.2"/>
<path class="st0" d="M1331.3,284.9c-28.9-7.1-55.5-12.2-63.5-25.5c-7.4-12.3-0.2-22.8,6.9-27.1c4.2-2.5,14.3-6.4,27.1,3.4
	c-2.6-16,5.7-23.1,9.8-25.5c8.2-4.9,20.2-4.9,27.1,6.6C1346.6,230,1338.9,254.7,1331.3,284.9 M1309.6,206.9
	c-7.1,4.3-12.3,12-12.1,21.6c-8.4-4.7-17.7-3.7-24.8,0.5c-10.3,6.2-16,19.3-8.1,32.3c9.1,15.1,36.3,19.8,69.5,28.1
	c8.3-33.2,16.9-59.4,7.8-74.6C1334,201.8,1319.8,200.8,1309.6,206.9"/>
<path class="st0" d="M1470.3,284.5c-28.9-7.1-55.5-12.2-63.5-25.5c-7.4-12.3-0.2-22.8,6.9-27.1c4.2-2.5,14.3-6.4,27.1,3.4
	c-2.6-16,5.7-23.1,9.8-25.5c8.2-4.9,20.2-4.9,27.1,6.6C1485.6,229.6,1477.9,254.4,1470.3,284.5 M1448.6,206.5
	c-7.1,4.3-12.3,12-12.1,21.6c-8.4-4.7-17.7-3.7-24.8,0.5c-10.3,6.2-16,19.3-8.1,32.3c9.1,15.1,36.3,19.8,69.5,28.1
	c8.3-33.2,16.9-59.4,7.8-74.6C1473,201.4,1458.8,200.4,1448.6,206.5"/>
<path class="st0" d="M1609.4,285.2c-28.9-7.1-55.5-12.2-63.5-25.5c-7.4-12.3-0.2-22.8,6.9-27.1c4.2-2.5,14.3-6.4,27.1,3.4
	c-2.6-16,5.7-23.1,9.8-25.5c8.2-4.9,20.2-4.9,27.1,6.6C1624.6,230.4,1617,255.1,1609.4,285.2 M1587.6,207.3
	c-7.1,4.3-12.3,12-12.1,21.6c-8.4-4.7-17.7-3.7-24.8,0.5c-10.3,6.2-16,19.3-8.1,32.3c9.1,15.1,36.3,19.8,69.5,28.1
	c8.3-33.2,16.9-59.4,7.8-74.6C1612.1,202.2,1597.9,201.2,1587.6,207.3"/>
<path class="st0" d="M1748.4,284.7c-28.9-7.1-55.5-12.2-63.5-25.5c-7.4-12.3-0.2-22.8,6.9-27.1c4.2-2.5,14.3-6.4,27.1,3.4
	c-2.6-16,5.7-23.1,9.8-25.5c8.2-4.9,20.2-4.9,27.1,6.6C1763.6,229.8,1756,254.6,1748.4,284.7 M1726.6,206.7
	c-7.1,4.3-12.3,12-12.1,21.6c-8.4-4.7-17.7-3.7-24.8,0.5c-10.3,6.2-16,19.3-8.1,32.3c9.1,15.1,36.3,19.8,69.5,28.1
	c8.3-33.2,16.9-59.4,7.8-74.6C1751.1,201.6,1736.9,200.6,1726.6,206.7"/>
<path class="st0" d="M1884.7,285.3c-28.9-7.1-55.5-12.2-63.5-25.5c-7.4-12.3-0.2-22.8,6.9-27.1c4.2-2.5,14.3-6.4,27.1,3.4
	c-2.6-16,5.7-23.1,9.8-25.5c8.2-4.9,20.2-4.9,27.1,6.6C1900,230.5,1892.3,255.2,1884.7,285.3 M1863,207.4
	c-7.1,4.3-12.3,12-12.1,21.6c-8.4-4.7-17.7-3.7-24.8,0.5c-10.3,6.2-16,19.3-8.1,32.3c9.1,15.1,36.3,19.8,69.5,28.1
	c8.3-33.2,16.9-59.4,7.8-74.6C1887.4,202.3,1873.2,201.2,1863,207.4"/>
<path class="st0" d="M149.3,380.7c-28.9-7.1-55.5-12.2-63.5-25.5c-7.4-12.3-0.2-22.8,6.9-27.1c4.2-2.5,14.3-6.4,27.1,3.4
	c-2.6-16,5.7-23.1,9.8-25.5c8.2-4.9,20.2-4.9,27.1,6.6C164.5,325.8,156.9,350.5,149.3,380.7 M127.6,302.7
	c-7.1,4.3-12.3,12-12.1,21.6c-8.4-4.7-17.7-3.7-24.8,0.5c-10.3,6.2-16,19.3-8.1,32.3c9.1,15.1,36.3,19.8,69.5,28.1
	c8.3-33.2,16.9-59.4,7.8-74.6C152,297.6,137.8,296.6,127.6,302.7"/>
<path class="st0" d="M288.3,381.4c-28.9-7.1-55.5-12.2-63.5-25.5c-7.4-12.3-0.2-22.8,6.9-27.1c4.2-2.5,14.3-6.4,27.1,3.4
	c-2.6-16,5.7-23.1,9.8-25.5c8.2-4.9,20.2-4.9,27.1,6.6C303.6,326.6,295.9,351.3,288.3,381.4 M266.6,303.5
	c-7.1,4.3-12.3,12-12.1,21.6c-8.4-4.7-17.7-3.7-24.8,0.5c-10.3,6.2-16,19.3-8.1,32.3c9.1,15.1,36.3,19.8,69.5,28.1
	c8.3-33.2,16.9-59.4,7.8-74.6C291,298.4,276.8,297.3,266.6,303.5"/>
<path class="st0" d="M427.3,381c-28.9-7.1-55.5-12.2-63.5-25.5c-7.4-12.3-0.2-22.8,6.9-27.1c4.2-2.5,14.3-6.4,27.1,3.4
	c-2.6-16,5.7-23.1,9.8-25.5c8.2-4.9,20.2-4.9,27.1,6.6C442.6,326.2,434.9,350.9,427.3,381 M405.6,303.1c-7.1,4.3-12.3,12-12.1,21.6
	c-8.4-4.7-17.7-3.7-24.8,0.5c-10.3,6.2-16,19.3-8.1,32.3c9.1,15.1,36.3,19.8,69.5,28.1c8.3-33.2,16.9-59.4,7.8-74.6
	C430,298,415.8,297,405.6,303.1"/>
<path class="st0" d="M566.3,381.8c-28.9-7.1-55.5-12.2-63.5-25.5c-7.4-12.3-0.2-22.8,6.9-27.1c4.2-2.5,14.3-6.4,27.1,3.4
	c-2.6-16,5.7-23.1,9.8-25.5c8.2-4.9,20.2-4.9,27.1,6.6C581.6,327,574,351.7,566.3,381.8 M544.6,303.9c-7.1,4.3-12.3,12-12.1,21.6
	c-8.4-4.7-17.7-3.7-24.8,0.5c-10.3,6.2-16,19.3-8.1,32.3c9.1,15.1,36.3,19.8,69.5,28.1c8.3-33.2,16.9-59.4,7.8-74.6
	C569.1,298.8,554.9,297.7,544.6,303.9"/>
<path class="st0" d="M705.4,381.2c-28.9-7.1-55.5-12.2-63.5-25.5c-7.4-12.3-0.2-22.8,6.9-27.1c4.2-2.5,14.3-6.4,27.1,3.4
	c-2.6-16,5.7-23.1,9.8-25.5c8.2-4.9,20.2-4.9,27.1,6.6C720.6,326.4,713,351.1,705.4,381.2 M683.6,303.3c-7.1,4.3-12.3,12-12.1,21.6
	c-8.4-4.7-17.7-3.7-24.8,0.5c-10.3,6.2-16,19.3-8.1,32.3c9.1,15.1,36.3,19.8,69.5,28.1c8.3-33.2,16.9-59.4,7.8-74.6
	C708.1,298.2,693.9,297.1,683.6,303.3"/>
<path class="st0" d="M844.4,382c-28.9-7.1-55.5-12.2-63.5-25.5c-7.4-12.3-0.2-22.8,6.9-27.1c4.2-2.5,14.3-6.4,27.1,3.4
	c-2.6-16,5.7-23.1,9.8-25.5c8.2-4.9,20.2-4.9,27.1,6.6C859.7,327.2,852,351.9,844.4,382 M822.7,304.1c-7.1,4.3-12.3,12-12.1,21.6
	c-8.4-4.7-17.7-3.7-24.8,0.5c-10.3,6.2-16,19.3-8.1,32.3c9.1,15.1,36.3,19.8,69.5,28.1c8.3-33.2,16.9-59.4,7.8-74.6
	C847.1,299,832.9,297.9,822.7,304.1"/>
<path class="st0" d="M983.4,381.6c-28.9-7.1-55.5-12.2-63.5-25.5c-7.4-12.3-0.2-22.8,6.9-27.1c4.2-2.5,14.3-6.4,27.1,3.4
	c-2.6-16,5.7-23.1,9.8-25.5c8.2-4.9,20.2-4.9,27.1,6.6C998.7,326.8,991,351.5,983.4,381.6 M961.7,303.7c-7.1,4.3-12.3,12-12.1,21.6
	c-8.4-4.7-17.7-3.7-24.8,0.5c-10.3,6.2-16,19.3-8.1,32.3c9.1,15.1,36.3,19.8,69.5,28.1c8.3-33.2,16.9-59.4,7.8-74.6
	C986.1,298.6,971.9,297.5,961.7,303.7"/>
<path class="st0" d="M1122.4,382.4c-28.9-7.1-55.5-12.2-63.5-25.5c-7.4-12.3-0.2-22.8,6.9-27.1c4.2-2.5,14.3-6.4,27.1,3.4
	c-2.6-16,5.7-23.1,9.8-25.5c8.2-4.9,20.2-4.9,27.1,6.6C1137.7,327.5,1130.1,352.3,1122.4,382.4 M1100.7,304.5
	c-7.1,4.3-12.3,12-12.1,21.6c-8.4-4.7-17.7-3.7-24.8,0.5c-10.3,6.2-16,19.3-8.1,32.3c9.1,15.1,36.3,19.8,69.5,28.1
	c8.3-33.2,16.9-59.4,7.8-74.6C1125.2,299.4,1111,298.3,1100.7,304.5"/>
<path class="st0" d="M1261.5,381.1c-28.9-7.1-55.5-12.2-63.5-25.5c-7.4-12.3-0.2-22.8,6.9-27.1c4.2-2.5,14.3-6.4,27.1,3.4
	c-2.6-16,5.7-23.1,9.8-25.5c8.2-4.9,20.2-4.9,27.1,6.6C1276.7,326.3,1269.1,351,1261.5,381.1 M1239.7,303.2
	c-7.1,4.3-12.3,12-12.1,21.6c-8.4-4.7-17.7-3.7-24.8,0.5c-10.3,6.2-16,19.3-8.1,32.3c9.1,15.1,36.3,19.8,69.5,28.1
	c8.3-33.2,16.9-59.4,7.8-74.6C1264.2,298.1,1250,297,1239.7,303.2"/>
<path class="st0" d="M1400.5,381.9c-28.9-7.1-55.5-12.2-63.5-25.5c-7.4-12.3-0.2-22.8,6.9-27.1c4.2-2.5,14.3-6.4,27.1,3.4
	c-2.6-16,5.7-23.1,9.8-25.5c8.2-4.9,20.2-4.9,27.1,6.6C1415.8,327.1,1408.1,351.8,1400.5,381.9 M1378.8,304
	c-7.1,4.3-12.3,12-12.1,21.6c-8.4-4.7-17.7-3.7-24.8,0.5c-10.3,6.2-16,19.3-8.1,32.3c9.1,15.1,36.3,19.8,69.5,28.1
	c8.3-33.2,16.9-59.4,7.8-74.6C1403.2,298.9,1389,297.8,1378.8,304"/>
<path class="st0" d="M1539.5,381.5c-28.9-7.1-55.5-12.2-63.5-25.5c-7.4-12.3-0.2-22.8,6.9-27.1c4.2-2.5,14.3-6.4,27.1,3.4
	c-2.6-16,5.7-23.1,9.8-25.5c8.2-4.9,20.2-4.9,27.1,6.6C1554.8,326.7,1547.1,351.4,1539.5,381.5 M1517.8,303.6
	c-7.1,4.3-12.3,12-12.1,21.6c-8.4-4.7-17.7-3.7-24.8,0.5c-10.3,6.2-16,19.3-8.1,32.3c9.1,15.1,36.3,19.8,69.5,28.1
	c8.3-33.2,16.9-59.4,7.8-74.6C1542.2,298.5,1528,297.4,1517.8,303.6"/>
<path class="st0" d="M1678.5,382.3c-28.9-7.1-55.5-12.2-63.5-25.5c-7.4-12.3-0.2-22.8,6.9-27.1c4.2-2.5,14.3-6.4,27.1,3.4
	c-2.6-16,5.7-23.1,9.8-25.5c8.2-4.9,20.2-4.9,27.1,6.6C1693.8,327.4,1686.1,352.2,1678.5,382.3 M1656.8,304.4
	c-7.1,4.3-12.3,12-12.1,21.6c-8.4-4.7-17.7-3.7-24.8,0.5c-10.3,6.2-16,19.3-8.1,32.3c9.1,15.1,36.3,19.8,69.5,28.1
	c8.3-33.2,16.9-59.4,7.8-74.6C1681.2,299.3,1667,298.2,1656.8,304.4"/>
<path class="st0" d="M1817.6,381.7c-28.9-7.1-55.5-12.2-63.5-25.5c-7.4-12.3-0.2-22.8,6.9-27.1c4.2-2.5,14.3-6.4,27.1,3.4
	c-2.6-16,5.7-23.1,9.8-25.5c8.2-4.9,20.2-4.9,27.1,6.6C1832.8,326.9,1825.2,351.6,1817.6,381.7 M1795.8,303.8
	c-7.1,4.3-12.3,12-12.1,21.6c-8.4-4.7-17.7-3.7-24.8,0.5c-10.3,6.2-16,19.3-8.1,32.3c9.1,15.1,36.3,19.8,69.5,28.1
	c8.3-33.2,16.9-59.4,7.8-74.6C1820.3,298.7,1806.1,297.6,1795.8,303.8"/>
<path class="st0" d="M79.1,483.5c-28.9-7.1-55.5-12.2-63.5-25.5c-7.4-12.3-0.2-22.8,6.9-27.1c4.2-2.5,14.3-6.4,27.1,3.4
	c-2.6-16,5.7-23.1,9.8-25.5c8.2-4.9,20.2-4.9,27.1,6.6C94.4,428.6,86.7,453.3,79.1,483.5 M57.4,405.5c-7.1,4.3-12.3,12-12.1,21.6
	c-8.4-4.7-17.7-3.7-24.8,0.5c-10.3,6.2-16,19.3-8.1,32.3c9.1,15.1,36.3,19.8,69.5,28.1c8.3-33.2,16.9-59.4,7.8-74.6
	C81.8,400.4,67.6,399.4,57.4,405.5"/>
<path class="st0" d="M218.1,484.2c-28.9-7.1-55.5-12.2-63.5-25.5c-7.4-12.3-0.2-22.8,6.9-27.1c4.2-2.5,14.3-6.4,27.1,3.4
	c-2.6-16,5.7-23.1,9.8-25.5c8.2-4.9,20.2-4.9,27.1,6.6C233.4,429.4,225.7,454.1,218.1,484.2 M196.4,406.3
	c-7.1,4.3-12.3,12-12.1,21.6c-8.4-4.7-17.7-3.7-24.8,0.5c-10.3,6.2-16,19.3-8.1,32.3c9.1,15.1,36.3,19.8,69.5,28.1
	c8.3-33.2,16.9-59.4,7.8-74.6C220.9,401.2,206.6,400.1,196.4,406.3"/>
<path class="st0" d="M357.2,483.8c-28.9-7.1-55.5-12.2-63.5-25.5c-7.4-12.3-0.2-22.8,6.9-27.1c4.2-2.5,14.3-6.4,27.1,3.4
	c-2.6-16,5.7-23.1,9.8-25.5c8.2-4.9,20.2-4.9,27.1,6.6C372.4,429,364.8,453.7,357.2,483.8 M335.4,405.9c-7.1,4.3-12.3,12-12.1,21.6
	c-8.4-4.7-17.7-3.7-24.8,0.5c-10.3,6.2-16,19.3-8.1,32.3c9.1,15.1,36.3,19.8,69.5,28.1c8.3-33.2,16.9-59.4,7.8-74.6
	C359.9,400.8,345.7,399.7,335.4,405.9"/>
<path class="st0" d="M496.2,484.6c-28.9-7.1-55.5-12.2-63.5-25.5c-7.4-12.3-0.2-22.8,6.9-27.1c4.2-2.5,14.3-6.4,27.1,3.4
	c-2.6-16,5.7-23.1,9.8-25.5c8.2-4.9,20.2-4.9,27.1,6.6C511.4,429.8,503.8,454.5,496.2,484.6 M474.5,406.7
	c-7.1,4.3-12.3,12-12.1,21.6c-8.4-4.7-17.7-3.7-24.8,0.5c-10.3,6.2-16,19.3-8.1,32.3c9.1,15.1,36.3,19.8,69.5,28.1
	c8.3-33.2,16.9-59.4,7.8-74.6C498.9,401.6,484.7,400.5,474.5,406.7"/>
<path class="st0" d="M635.2,484c-28.9-7.1-55.5-12.2-63.5-25.5c-7.4-12.3-0.2-22.8,6.9-27.1c4.2-2.5,14.3-6.4,27.1,3.4
	c-2.6-16,5.7-23.1,9.8-25.5c8.2-4.9,20.2-4.9,27.1,6.6C650.5,429.2,642.8,453.9,635.2,484 M613.5,406.1c-7.1,4.3-12.3,12-12.1,21.6
	c-8.4-4.7-17.7-3.7-24.8,0.5c-10.3,6.2-16,19.3-8.1,32.3c9.1,15.1,36.3,19.8,69.5,28.1c8.3-33.2,16.9-59.4,7.8-74.6
	C637.9,401,623.7,399.9,613.5,406.1"/>
<path class="st0" d="M774.2,484.8c-28.9-7.1-55.5-12.2-63.5-25.5c-7.4-12.3-0.2-22.8,6.9-27.1c4.2-2.5,14.3-6.4,27.1,3.4
	c-2.6-16,5.7-23.1,9.8-25.5c8.2-4.9,20.2-4.9,27.1,6.6C789.5,429.9,781.8,454.7,774.2,484.8 M752.5,406.9
	c-7.1,4.3-12.3,12-12.1,21.6c-8.4-4.7-17.7-3.7-24.8,0.5c-10.3,6.2-16,19.3-8.1,32.3c9.1,15.1,36.3,19.8,69.5,28.1
	c8.3-33.2,16.9-59.4,7.8-74.6C776.9,401.8,762.7,400.7,752.5,406.9"/>
<path class="st0" d="M913.2,484.4c-28.9-7.1-55.5-12.2-63.5-25.5c-7.4-12.3-0.2-22.8,6.9-27.1c4.2-2.5,14.3-6.4,27.1,3.4
	c-2.6-16,5.7-23.1,9.8-25.5c8.2-4.9,20.2-4.9,27.1,6.6C928.5,429.6,920.9,454.3,913.2,484.4 M891.5,406.5
	c-7.1,4.3-12.3,12-12.1,21.6c-8.4-4.7-17.7-3.7-24.8,0.5c-10.3,6.2-16,19.3-8.1,32.3c9.1,15.1,36.3,19.8,69.5,28.1
	c8.3-33.2,16.9-59.4,7.8-74.6C916,401.4,901.8,400.3,891.5,406.5"/>
<path class="st0" d="M1052.3,485.2c-28.9-7.1-55.5-12.2-63.5-25.5c-7.4-12.3-0.2-22.8,6.9-27.1c4.2-2.5,14.3-6.4,27.1,3.4
	c-2.6-16,5.7-23.1,9.8-25.5c8.2-4.9,20.2-4.9,27.1,6.6C1067.5,430.3,1059.9,455.1,1052.3,485.2 M1030.5,407.2
	c-7.1,4.3-12.3,12-12.1,21.6c-8.4-4.7-17.7-3.7-24.8,0.5c-10.3,6.2-16,19.3-8.1,32.3c9.1,15.1,36.3,19.8,69.5,28.1
	c8.3-33.2,16.9-59.4,7.8-74.6C1055,402.1,1040.8,401.1,1030.5,407.2"/>
<path class="st0" d="M1191.3,483.9c-28.9-7.1-55.5-12.2-63.5-25.5c-7.4-12.3-0.2-22.8,6.9-27.1c4.2-2.5,14.3-6.4,27.1,3.4
	c-2.6-16,5.7-23.1,9.8-25.5c8.2-4.9,20.2-4.9,27.1,6.6C1206.6,429.1,1198.9,453.8,1191.3,483.9 M1169.6,406
	c-7.1,4.3-12.3,12-12.1,21.6c-8.4-4.7-17.7-3.7-24.8,0.5c-10.3,6.2-16,19.3-8.1,32.3c9.1,15.1,36.3,19.8,69.5,28.1
	c8.3-33.2,16.9-59.4,7.8-74.6C1194,400.9,1179.8,399.8,1169.6,406"/>
<path class="st0" d="M1330.3,484.7c-28.9-7.1-55.5-12.2-63.5-25.5c-7.4-12.3-0.2-22.8,6.9-27.1c4.2-2.5,14.3-6.4,27.1,3.4
	c-2.6-16,5.7-23.1,9.8-25.5c8.2-4.9,20.2-4.9,27.1,6.6C1345.6,429.9,1337.9,454.6,1330.3,484.7 M1308.6,406.8
	c-7.1,4.3-12.3,12-12.1,21.6c-8.4-4.7-17.7-3.7-24.8,0.5c-10.3,6.2-16,19.3-8.1,32.3c9.1,15.1,36.3,19.8,69.5,28.1
	c8.3-33.2,16.9-59.4,7.8-74.6C1333,401.7,1318.8,400.6,1308.6,406.8"/>
<path class="st0" d="M1469.3,484.3c-28.9-7.1-55.5-12.2-63.5-25.5c-7.4-12.3-0.2-22.8,6.9-27.1c4.2-2.5,14.3-6.4,27.1,3.4
	c-2.6-16,5.7-23.1,9.8-25.5c8.2-4.9,20.2-4.9,27.1,6.6C1484.6,429.5,1477,454.2,1469.3,484.3 M1447.6,406.4
	c-7.1,4.3-12.3,12-12.1,21.6c-8.4-4.7-17.7-3.7-24.8,0.5c-10.3,6.2-16,19.3-8.1,32.3c9.1,15.1,36.3,19.8,69.5,28.1
	c8.3-33.2,16.9-59.4,7.8-74.6C1472.1,401.3,1457.8,400.2,1447.6,406.4"/>
<path class="st0" d="M1608.4,485.1c-28.9-7.1-55.5-12.2-63.5-25.5c-7.4-12.3-0.2-22.8,6.9-27.1c4.2-2.5,14.3-6.4,27.1,3.4
	c-2.6-16,5.7-23.1,9.8-25.5c8.2-4.9,20.2-4.9,27.1,6.6C1623.6,430.2,1616,455,1608.4,485.1 M1586.6,407.1
	c-7.1,4.3-12.3,12-12.1,21.6c-8.4-4.7-17.7-3.7-24.8,0.5c-10.3,6.2-16,19.3-8.1,32.3c9.1,15.1,36.3,19.8,69.5,28.1
	c8.3-33.2,16.9-59.4,7.8-74.6C1611.1,402.1,1596.9,401,1586.6,407.1"/>
<path class="st0" d="M1747.4,484.5c-28.9-7.1-55.5-12.2-63.5-25.5c-7.4-12.3-0.2-22.8,6.9-27.1c4.2-2.5,14.3-6.4,27.1,3.4
	c-2.6-16,5.7-23.1,9.8-25.5c8.2-4.9,20.2-4.9,27.1,6.6C1762.6,429.7,1755,454.4,1747.4,484.5 M1725.7,406.6
	c-7.1,4.3-12.3,12-12.1,21.6c-8.4-4.7-17.7-3.7-24.8,0.5c-10.3,6.2-16,19.3-8.1,32.3c9.1,15.1,36.3,19.8,69.5,28.1
	c8.3-33.2,16.9-59.4,7.8-74.6C1750.1,401.5,1735.9,400.4,1725.7,406.6"/>
<path class="st0" d="M1883.7,485.2c-28.9-7.1-55.5-12.2-63.5-25.5c-7.4-12.3-0.2-22.8,6.9-27.1c4.2-2.5,14.3-6.4,27.1,3.4
	c-2.6-16,5.7-23.1,9.8-25.5c8.2-4.9,20.2-4.9,27.1,6.6C1899,430.3,1891.3,455.1,1883.7,485.2 M1862,407.2
	c-7.1,4.3-12.3,12-12.1,21.6c-8.4-4.7-17.7-3.7-24.8,0.5c-10.3,6.2-16,19.3-8.1,32.3c9.1,15.1,36.3,19.8,69.5,28.1
	c8.3-33.2,16.9-59.4,7.8-74.6C1886.4,402.1,1872.2,401.1,1862,407.2"/>
<path class="st0" d="M148.3,580.5c-28.9-7.1-55.5-12.2-63.5-25.5c-7.4-12.3-0.2-22.8,6.9-27.1c4.2-2.5,14.3-6.4,27.1,3.4
	c-2.6-16,5.7-23.1,9.8-25.5c8.2-4.9,20.2-4.9,27.1,6.6C163.6,525.7,155.9,550.4,148.3,580.5 M126.6,502.6
	c-7.1,4.3-12.3,12-12.1,21.6c-8.4-4.7-17.7-3.7-24.8,0.5c-10.3,6.2-16,19.3-8.1,32.3c9.1,15.1,36.3,19.8,69.5,28.1
	c8.3-33.2,16.9-59.4,7.8-74.6C151,497.5,136.8,496.4,126.6,502.6"/>
<path class="st0" d="M287.3,581.3c-28.9-7.1-55.5-12.2-63.5-25.5c-7.4-12.3-0.2-22.8,6.9-27.1c4.2-2.5,14.3-6.4,27.1,3.4
	c-2.6-16,5.7-23.1,9.8-25.5c8.2-4.9,20.2-4.9,27.1,6.6C302.6,526.4,294.9,551.2,287.3,581.3 M265.6,503.3
	c-7.1,4.3-12.3,12-12.1,21.6c-8.4-4.7-17.7-3.7-24.8,0.5c-10.3,6.2-16,19.3-8.1,32.3c9.1,15.1,36.3,19.8,69.5,28.1
	c8.3-33.2,16.9-59.4,7.8-74.6C290,498.2,275.8,497.2,265.6,503.3"/>
<path class="st0" d="M426.3,580.9c-28.9-7.1-55.5-12.2-63.5-25.5c-7.4-12.3-0.2-22.8,6.9-27.1c4.2-2.5,14.3-6.4,27.1,3.4
	c-2.6-16,5.7-23.1,9.8-25.5c8.2-4.9,20.2-4.9,27.1,6.6C441.6,526,433.9,550.8,426.3,580.9 M404.6,502.9c-7.1,4.3-12.3,12-12.1,21.6
	c-8.4-4.7-17.7-3.7-24.8,0.5c-10.3,6.2-16,19.3-8.1,32.3c9.1,15.1,36.3,19.8,69.5,28.1c8.3-33.2,16.9-59.4,7.8-74.6
	C429,497.9,414.8,496.8,404.6,502.9"/>
<path class="st0" d="M565.4,581.7c-28.9-7.1-55.5-12.2-63.5-25.5c-7.4-12.3-0.2-22.8,6.9-27.1c4.2-2.5,14.3-6.4,27.1,3.4
	c-2.6-16,5.7-23.1,9.8-25.5c8.2-4.9,20.2-4.9,27.1,6.6C580.6,526.8,573,551.5,565.4,581.7 M543.6,503.7c-7.1,4.3-12.3,12-12.1,21.6
	c-8.4-4.7-17.7-3.7-24.8,0.5c-10.3,6.2-16,19.3-8.1,32.3c9.1,15.1,36.3,19.8,69.5,28.1c8.3-33.2,16.9-59.4,7.8-74.6
	C568.1,498.6,553.9,497.6,543.6,503.7"/>
<path class="st0" d="M704.4,581.1c-28.9-7.1-55.5-12.2-63.5-25.5c-7.4-12.3-0.2-22.8,6.9-27.1c4.2-2.5,14.3-6.4,27.1,3.4
	c-2.6-16,5.7-23.1,9.8-25.5c8.2-4.9,20.2-4.9,27.1,6.6C719.6,526.2,712,551,704.4,581.1 M682.6,503.1c-7.1,4.3-12.3,12-12.1,21.6
	c-8.4-4.7-17.7-3.7-24.8,0.5c-10.3,6.2-16,19.3-8.1,32.3c9.1,15.1,36.3,19.8,69.5,28.1c8.3-33.2,16.9-59.4,7.8-74.6
	C707.1,498,692.9,497,682.6,503.1"/>
<path class="st0" d="M843.4,581.9c-28.9-7.1-55.5-12.2-63.5-25.5c-7.4-12.3-0.2-22.8,6.9-27.1c4.2-2.5,14.3-6.4,27.1,3.4
	c-2.6-16,5.7-23.1,9.8-25.5c8.2-4.9,20.2-4.9,27.1,6.6C858.7,527,851,551.7,843.4,581.9 M821.7,503.9c-7.1,4.3-12.3,12-12.1,21.6
	c-8.4-4.7-17.7-3.7-24.8,0.5c-10.3,6.2-16,19.3-8.1,32.3c9.1,15.1,36.3,19.8,69.5,28.1c8.3-33.2,16.9-59.4,7.8-74.6
	C846.1,498.8,831.9,497.8,821.7,503.9"/>
<path class="st0" d="M982.4,581.5c-28.9-7.1-55.5-12.2-63.5-25.5c-7.4-12.3-0.2-22.8,6.9-27.1c4.2-2.5,14.3-6.4,27.1,3.4
	c-2.6-16,5.7-23.1,9.8-25.5c8.2-4.9,20.2-4.9,27.1,6.6C997.7,526.6,990,551.4,982.4,581.5 M960.7,503.5c-7.1,4.3-12.3,12-12.1,21.6
	c-8.4-4.7-17.7-3.7-24.8,0.5c-10.3,6.2-16,19.3-8.1,32.3c9.1,15.1,36.3,19.8,69.5,28.1c8.3-33.2,16.9-59.4,7.8-74.6
	C985.1,498.4,970.9,497.4,960.7,503.5"/>
<path class="st0" d="M1121.4,582.2c-28.9-7.1-55.5-12.2-63.5-25.5c-7.4-12.3-0.2-22.8,6.9-27.1c4.2-2.5,14.3-6.4,27.1,3.4
	c-2.6-16,5.7-23.1,9.8-25.5c8.2-4.9,20.2-4.9,27.1,6.6C1136.7,527.4,1129.1,552.1,1121.4,582.2 M1099.7,504.3
	c-7.1,4.3-12.3,12-12.1,21.6c-8.4-4.7-17.7-3.7-24.8,0.5c-10.3,6.2-16,19.3-8.1,32.3c9.1,15.1,36.3,19.8,69.5,28.1
	c8.3-33.2,16.9-59.4,7.8-74.6C1124.2,499.2,1110,498.1,1099.7,504.3"/>
<path class="st0" d="M1260.5,581c-28.9-7.1-55.5-12.2-63.5-25.5c-7.4-12.3-0.2-22.8,6.9-27.1c4.2-2.5,14.3-6.4,27.1,3.4
	c-2.6-16,5.7-23.1,9.8-25.5c8.2-4.9,20.2-4.9,27.1,6.6C1275.7,526.1,1268.1,550.9,1260.5,581 M1238.7,503
	c-7.1,4.3-12.3,12-12.1,21.6c-8.4-4.7-17.7-3.7-24.8,0.5c-10.3,6.2-16,19.3-8.1,32.3c9.1,15.1,36.3,19.8,69.5,28.1
	c8.3-33.2,16.9-59.4,7.8-74.6C1263.2,497.9,1249,496.9,1238.7,503"/>
<path class="st0" d="M1399.5,581.8c-28.9-7.1-55.5-12.2-63.5-25.5c-7.4-12.3-0.2-22.8,6.9-27.1c4.2-2.5,14.3-6.4,27.1,3.4
	c-2.6-16,5.7-23.1,9.8-25.5c8.2-4.9,20.2-4.9,27.1,6.6C1414.8,526.9,1407.1,551.6,1399.5,581.8 M1377.8,503.8
	c-7.1,4.3-12.3,12-12.1,21.6c-8.4-4.7-17.7-3.7-24.8,0.5c-10.3,6.2-16,19.3-8.1,32.3c9.1,15.1,36.3,19.8,69.5,28.1
	c8.3-33.2,16.9-59.4,7.8-74.6C1402.2,498.7,1388,497.7,1377.8,503.8"/>
<path class="st0" d="M1538.5,581.4c-28.9-7.1-55.5-12.2-63.5-25.5c-7.4-12.3-0.2-22.8,6.9-27.1c4.2-2.5,14.3-6.4,27.1,3.4
	c-2.6-16,5.7-23.1,9.8-25.5c8.2-4.9,20.2-4.9,27.1,6.6C1553.8,526.5,1546.1,551.3,1538.5,581.4 M1516.8,503.4
	c-7.1,4.3-12.3,12-12.1,21.6c-8.4-4.7-17.7-3.7-24.8,0.5c-10.3,6.2-16,19.3-8.1,32.3c9.1,15.1,36.3,19.8,69.5,28.1
	c8.3-33.2,16.9-59.4,7.8-74.6C1541.2,498.3,1527,497.3,1516.8,503.4"/>
<path class="st0" d="M1677.5,582.1c-28.9-7.1-55.5-12.2-63.5-25.5c-7.4-12.3-0.2-22.8,6.9-27.1c4.2-2.5,14.3-6.4,27.1,3.4
	c-2.6-16,5.7-23.1,9.8-25.5c8.2-4.9,20.2-4.9,27.1,6.6C1692.8,527.3,1685.1,552,1677.5,582.1 M1655.8,504.2
	c-7.1,4.3-12.3,12-12.1,21.6c-8.4-4.7-17.7-3.7-24.8,0.5c-10.3,6.2-16,19.3-8.1,32.3c9.1,15.1,36.3,19.8,69.5,28.1
	c8.3-33.2,16.9-59.4,7.8-74.6C1680.3,499.1,1666,498,1655.8,504.2"/>
<path class="st0" d="M1816.6,581.6c-28.9-7.1-55.5-12.2-63.5-25.5c-7.4-12.3-0.2-22.8,6.9-27.1c4.2-2.5,14.3-6.4,27.1,3.4
	c-2.6-16,5.7-23.1,9.8-25.5c8.2-4.9,20.2-4.9,27.1,6.6C1831.8,526.7,1824.2,551.4,1816.6,581.6 M1794.8,503.6
	c-7.1,4.3-12.3,12-12.1,21.6c-8.4-4.7-17.7-3.7-24.8,0.5c-10.3,6.2-16,19.3-8.1,32.3c9.1,15.1,36.3,19.8,69.5,28.1
	c8.3-33.2,16.9-59.4,7.8-74.6C1819.3,498.5,1805.1,497.5,1794.8,503.6"/>
<path class="st0" d="M81.1,680.3c-28.9-7.1-55.5-12.2-63.5-25.5c-7.4-12.3-0.2-22.8,6.9-27.1c4.2-2.5,14.3-6.4,27.1,3.4
	c-2.6-16,5.7-23.1,9.8-25.5c8.2-4.9,20.2-4.9,27.1,6.6C96.4,625.5,88.7,650.2,81.1,680.3 M59.4,602.4c-7.1,4.3-12.3,12-12.1,21.6
	c-8.4-4.7-17.7-3.7-24.8,0.5c-10.3,6.2-16,19.3-8.1,32.3c9.1,15.1,36.3,19.8,69.5,28.1c8.3-33.2,16.9-59.4,7.8-74.6
	C83.8,597.3,69.6,596.2,59.4,602.4"/>
<path class="st0" d="M220.1,681.1c-28.9-7.1-55.5-12.2-63.5-25.5c-7.4-12.3-0.2-22.8,6.9-27.1c4.2-2.5,14.3-6.4,27.1,3.4
	c-2.6-16,5.7-23.1,9.8-25.5c8.2-4.9,20.2-4.9,27.1,6.6C235.4,626.2,227.7,651,220.1,681.1 M198.4,603.1c-7.1,4.3-12.3,12-12.1,21.6
	c-8.4-4.7-17.7-3.7-24.8,0.5c-10.3,6.2-16,19.3-8.1,32.3c9.1,15.1,36.3,19.8,69.5,28.1c8.3-33.2,16.9-59.4,7.8-74.6
	C222.8,598,208.6,597,198.4,603.1"/>
<path class="st0" d="M359.1,680.7c-28.9-7.1-55.5-12.2-63.5-25.5c-7.4-12.3-0.2-22.8,6.9-27.1c4.2-2.5,14.3-6.4,27.1,3.4
	c-2.6-16,5.7-23.1,9.8-25.5c8.2-4.9,20.2-4.9,27.1,6.6C374.4,625.8,366.8,650.6,359.1,680.7 M337.4,602.8
	c-7.1,4.3-12.3,12-12.1,21.6c-8.4-4.7-17.7-3.7-24.8,0.5c-10.3,6.2-16,19.3-8.1,32.3c9.1,15.1,36.3,19.8,69.5,28.1
	c8.3-33.2,16.9-59.4,7.8-74.6C361.9,597.7,347.7,596.6,337.4,602.8"/>
<path class="st0" d="M498.2,681.5c-28.9-7.1-55.5-12.2-63.5-25.5c-7.4-12.3-0.2-22.8,6.9-27.1c4.2-2.5,14.3-6.4,27.1,3.4
	c-2.6-16,5.7-23.1,9.8-25.5c8.2-4.9,20.2-4.9,27.1,6.6C513.4,626.6,505.8,651.4,498.2,681.5 M476.4,603.5
	c-7.1,4.3-12.3,12-12.1,21.6c-8.4-4.7-17.7-3.7-24.8,0.5c-10.3,6.2-16,19.3-8.1,32.3c9.1,15.1,36.3,19.8,69.5,28.1
	c8.3-33.2,16.9-59.4,7.8-74.6C500.9,598.4,486.7,597.4,476.4,603.5"/>
<path class="st0" d="M637.2,680.9c-28.9-7.1-55.5-12.2-63.5-25.5c-7.4-12.3-0.2-22.8,6.9-27.1c4.2-2.5,14.3-6.4,27.1,3.4
	c-2.6-16,5.7-23.1,9.8-25.5c8.2-4.9,20.2-4.9,27.1,6.6C652.5,626,644.8,650.8,637.2,680.9 M615.5,603c-7.1,4.3-12.3,12-12.1,21.6
	c-8.4-4.7-17.7-3.7-24.8,0.5c-10.3,6.2-16,19.3-8.1,32.3c9.1,15.1,36.3,19.8,69.5,28.1c8.3-33.2,16.9-59.4,7.8-74.6
	C639.9,597.9,625.7,596.8,615.5,603"/>
<path class="st0" d="M776.2,681.7c-28.9-7.1-55.5-12.2-63.5-25.5c-7.4-12.3-0.2-22.8,6.9-27.1c4.2-2.5,14.3-6.4,27.1,3.4
	c-2.6-16,5.7-23.1,9.8-25.5c8.2-4.9,20.2-4.9,27.1,6.6C791.5,626.8,783.8,651.5,776.2,681.7 M754.5,603.7
	c-7.1,4.3-12.3,12-12.1,21.6c-8.4-4.7-17.7-3.7-24.8,0.5c-10.3,6.2-16,19.3-8.1,32.3c9.1,15.1,36.3,19.8,69.5,28.1
	c8.3-33.2,16.9-59.4,7.8-74.6C778.9,598.6,764.7,597.6,754.5,603.7"/>
<path class="st0" d="M915.2,681.3c-28.9-7.1-55.5-12.2-63.5-25.5c-7.4-12.3-0.2-22.8,6.9-27.1c4.2-2.5,14.3-6.4,27.1,3.4
	c-2.6-16,5.7-23.1,9.8-25.5c8.2-4.9,20.2-4.9,27.1,6.6C930.5,626.4,922.9,651.2,915.2,681.3 M893.5,603.3
	c-7.1,4.3-12.3,12-12.1,21.6c-8.4-4.7-17.7-3.7-24.8,0.5c-10.3,6.2-16,19.3-8.1,32.3c9.1,15.1,36.3,19.8,69.5,28.1
	c8.3-33.2,16.9-59.4,7.8-74.6C918,598.2,903.7,597.2,893.5,603.3"/>
<path class="st0" d="M1054.3,682c-28.9-7.1-55.5-12.2-63.5-25.5c-7.4-12.3-0.2-22.8,6.9-27.1c4.2-2.5,14.3-6.4,27.1,3.4
	c-2.6-16,5.7-23.1,9.8-25.5c8.2-4.9,20.2-4.9,27.1,6.6C1069.5,627.2,1061.9,651.9,1054.3,682 M1032.5,604.1
	c-7.1,4.3-12.3,12-12.1,21.6c-8.4-4.7-17.7-3.7-24.8,0.5c-10.3,6.2-16,19.3-8.1,32.3c9.1,15.1,36.3,19.8,69.5,28.1
	c8.3-33.2,16.9-59.4,7.8-74.6C1057,599,1042.8,598,1032.5,604.1"/>
<path class="st0" d="M1193.3,680.8c-28.9-7.1-55.5-12.2-63.5-25.5c-7.4-12.3-0.2-22.8,6.9-27.1c4.2-2.5,14.3-6.4,27.1,3.4
	c-2.6-16,5.7-23.1,9.8-25.5c8.2-4.9,20.2-4.9,27.1,6.6C1208.5,625.9,1200.9,650.7,1193.3,680.8 M1171.6,602.9
	c-7.1,4.3-12.3,12-12.1,21.6c-8.4-4.7-17.7-3.7-24.8,0.5c-10.3,6.2-16,19.3-8.1,32.3c9.1,15.1,36.3,19.8,69.5,28.1
	c8.3-33.2,16.9-59.4,7.8-74.6C1196,597.8,1181.8,596.7,1171.6,602.9"/>
<path class="st0" d="M1332.3,681.6c-28.9-7.1-55.5-12.2-63.5-25.5c-7.4-12.3-0.2-22.8,6.9-27.1c4.2-2.5,14.3-6.4,27.1,3.4
	c-2.6-16,5.7-23.1,9.8-25.5c8.2-4.9,20.2-4.9,27.1,6.6C1347.6,626.7,1339.9,651.5,1332.3,681.6 M1310.6,603.6
	c-7.1,4.3-12.3,12-12.1,21.6c-8.4-4.7-17.7-3.7-24.8,0.5c-10.3,6.2-16,19.3-8.1,32.3c9.1,15.1,36.3,19.8,69.5,28.1
	c8.3-33.2,16.9-59.4,7.8-74.6C1335,598.5,1320.8,597.5,1310.6,603.6"/>
<path class="st0" d="M1471.3,681.2c-28.9-7.1-55.5-12.2-63.5-25.5c-7.4-12.3-0.2-22.8,6.9-27.1c4.2-2.5,14.3-6.4,27.1,3.4
	c-2.6-16,5.7-23.1,9.8-25.5c8.2-4.9,20.2-4.9,27.1,6.6C1486.6,626.3,1478.9,651.1,1471.3,681.2 M1449.6,603.2
	c-7.1,4.3-12.3,12-12.1,21.6c-8.4-4.7-17.7-3.7-24.8,0.5c-10.3,6.2-16,19.3-8.1,32.3c9.1,15.1,36.3,19.8,69.5,28.1
	c8.3-33.2,16.9-59.4,7.8-74.6C1474,598.1,1459.8,597.1,1449.6,603.2"/>
<path class="st0" d="M1610.3,682c-28.9-7.1-55.5-12.2-63.5-25.5c-7.4-12.3-0.2-22.8,6.9-27.1c4.2-2.5,14.3-6.4,27.1,3.4
	c-2.6-16,5.7-23.1,9.8-25.5c8.2-4.9,20.2-4.9,27.1,6.6C1625.6,627.1,1618,651.8,1610.3,682 M1588.6,604c-7.1,4.3-12.3,12-12.1,21.6
	c-8.4-4.7-17.7-3.7-24.8,0.5c-10.3,6.2-16,19.3-8.1,32.3c9.1,15.1,36.3,19.8,69.5,28.1c8.3-33.2,16.9-59.4,7.8-74.6
	C1613.1,598.9,1598.9,597.9,1588.6,604"/>
<path class="st0" d="M1749.4,681.4c-28.9-7.1-55.5-12.2-63.5-25.5c-7.4-12.3-0.2-22.8,6.9-27.1c4.2-2.5,14.3-6.4,27.1,3.4
	c-2.6-16,5.7-23.1,9.8-25.5c8.2-4.9,20.2-4.9,27.1,6.6C1764.6,626.5,1757,651.3,1749.4,681.4 M1727.6,603.4
	c-7.1,4.3-12.3,12-12.1,21.6c-8.4-4.7-17.7-3.7-24.8,0.5c-10.3,6.2-16,19.3-8.1,32.3c9.1,15.1,36.3,19.8,69.5,28.1
	c8.3-33.2,16.9-59.4,7.8-74.6C1752.1,598.3,1737.9,597.3,1727.6,603.4"/>
<path class="st0" d="M1885.7,682c-28.9-7.1-55.5-12.2-63.5-25.5c-7.4-12.3-0.2-22.8,6.9-27.1c4.2-2.5,14.3-6.4,27.1,3.4
	c-2.6-16,5.7-23.1,9.8-25.5c8.2-4.9,20.2-4.9,27.1,6.6C1901,627.2,1893.3,651.9,1885.7,682 M1864,604.1c-7.1,4.3-12.3,12-12.1,21.6
	c-8.4-4.7-17.7-3.7-24.8,0.5c-10.3,6.2-16,19.3-8.1,32.3c9.1,15.1,36.3,19.8,69.5,28.1c8.3-33.2,16.9-59.4,7.8-74.6
	C1888.4,599,1874.2,598,1864,604.1"/>
<path class="st0" d="M150.3,777.4c-28.9-7.1-55.5-12.2-63.5-25.5c-7.4-12.3-0.2-22.8,6.9-27.1c4.2-2.5,14.3-6.4,27.1,3.4
	c-2.6-16,5.7-23.1,9.8-25.5c8.2-4.9,20.2-4.9,27.1,6.6C165.5,722.5,157.9,747.3,150.3,777.4 M128.5,699.4
	c-7.1,4.3-12.3,12-12.1,21.6c-8.4-4.7-17.7-3.7-24.8,0.5c-10.3,6.2-16,19.3-8.1,32.3c9.1,15.1,36.3,19.8,69.5,28.1
	c8.3-33.2,16.9-59.4,7.8-74.6C153,694.3,138.8,693.3,128.5,699.4"/>
<path class="st0" d="M289.3,778.1c-28.9-7.1-55.5-12.2-63.5-25.5c-7.4-12.3-0.2-22.8,6.9-27.1c4.2-2.5,14.3-6.4,27.1,3.4
	c-2.6-16,5.7-23.1,9.8-25.5c8.2-4.9,20.2-4.9,27.1,6.6C304.6,723.3,296.9,748,289.3,778.1 M267.6,700.2c-7.1,4.3-12.3,12-12.1,21.6
	c-8.4-4.7-17.7-3.7-24.8,0.5c-10.3,6.2-16,19.3-8.1,32.3c9.1,15.1,36.3,19.8,69.5,28.1c8.3-33.2,16.9-59.4,7.8-74.6
	C292,695.1,277.8,694,267.6,700.2"/>
<path class="st0" d="M428.3,777.8c-28.9-7.1-55.5-12.2-63.5-25.5c-7.4-12.3-0.2-22.8,6.9-27.1c4.2-2.5,14.3-6.4,27.1,3.4
	c-2.6-16,5.7-23.1,9.8-25.5c8.2-4.9,20.2-4.9,27.1,6.6C443.6,722.9,435.9,747.6,428.3,777.8 M406.6,699.8
	c-7.1,4.3-12.3,12-12.1,21.6c-8.4-4.7-17.7-3.7-24.8,0.5c-10.3,6.2-16,19.3-8.1,32.3c9.1,15.1,36.3,19.8,69.5,28.1
	c8.3-33.2,16.9-59.4,7.8-74.6C431,694.7,416.8,693.7,406.6,699.8"/>
<path class="st0" d="M567.3,778.5c-28.9-7.1-55.5-12.2-63.5-25.5c-7.4-12.3-0.2-22.8,6.9-27.1c4.2-2.5,14.3-6.4,27.1,3.4
	c-2.6-16,5.7-23.1,9.8-25.5c8.2-4.9,20.2-4.9,27.1,6.6C582.6,723.7,575,748.4,567.3,778.5 M545.6,700.6c-7.1,4.3-12.3,12-12.1,21.6
	c-8.4-4.7-17.7-3.7-24.8,0.5c-10.3,6.2-16,19.3-8.1,32.3c9.1,15.1,36.3,19.8,69.5,28.1c8.3-33.2,16.9-59.4,7.8-74.6
	C570.1,695.5,555.9,694.4,545.6,700.6"/>
<path class="st0" d="M706.4,777.9c-28.9-7.1-55.5-12.2-63.5-25.5c-7.4-12.3-0.2-22.8,6.9-27.1c4.2-2.5,14.3-6.4,27.1,3.4
	c-2.6-16,5.7-23.1,9.8-25.5c8.2-4.9,20.2-4.9,27.1,6.6C721.6,723.1,714,747.8,706.4,777.9 M684.6,700c-7.1,4.3-12.3,12-12.1,21.6
	c-8.4-4.7-17.7-3.7-24.8,0.5c-10.3,6.2-16,19.3-8.1,32.3c9.1,15.1,36.3,19.8,69.5,28.1c8.3-33.2,16.9-59.4,7.8-74.6
	C709.1,694.9,694.9,693.8,684.6,700"/>
<path class="st0" d="M845.4,778.7c-28.9-7.1-55.5-12.2-63.5-25.5c-7.4-12.3-0.2-22.8,6.9-27.1c4.2-2.5,14.3-6.4,27.1,3.4
	c-2.6-16,5.7-23.1,9.8-25.5c8.2-4.9,20.2-4.9,27.1,6.6C860.7,723.9,853,748.6,845.4,778.7 M823.7,700.8c-7.1,4.3-12.3,12-12.1,21.6
	c-8.4-4.7-17.7-3.7-24.8,0.5c-10.3,6.2-16,19.3-8.1,32.3c9.1,15.1,36.3,19.8,69.5,28.1c8.3-33.2,16.9-59.4,7.8-74.6
	C848.1,695.7,833.9,694.6,823.7,700.8"/>
<path class="st0" d="M984.4,778.3c-28.9-7.1-55.5-12.2-63.5-25.5c-7.4-12.3-0.2-22.8,6.9-27.1c4.2-2.5,14.3-6.4,27.1,3.4
	c-2.6-16,5.7-23.1,9.8-25.5c8.2-4.9,20.2-4.9,27.1,6.6C999.7,723.5,992,748.2,984.4,778.3 M962.7,700.4c-7.1,4.3-12.3,12-12.1,21.6
	c-8.4-4.7-17.7-3.7-24.8,0.5c-10.3,6.2-16,19.3-8.1,32.3c9.1,15.1,36.3,19.8,69.5,28.1c8.3-33.2,16.9-59.4,7.8-74.6
	C987.1,695.3,972.9,694.2,962.7,700.4"/>
<path class="st0" d="M1123.4,779.1c-28.9-7.1-55.5-12.2-63.5-25.5c-7.4-12.3-0.2-22.8,6.9-27.1c4.2-2.5,14.3-6.4,27.1,3.4
	c-2.6-16,5.7-23.1,9.8-25.5c8.2-4.9,20.2-4.9,27.1,6.6C1138.7,724.2,1131,749,1123.4,779.1 M1101.7,701.2
	c-7.1,4.3-12.3,12-12.1,21.6c-8.4-4.7-17.7-3.7-24.8,0.5c-10.3,6.2-16,19.3-8.1,32.3c9.1,15.1,36.3,19.8,69.5,28.1
	c8.3-33.2,16.9-59.4,7.8-74.6C1126.2,696.1,1111.9,695,1101.7,701.2"/>
<path class="st0" d="M1262.5,777.8c-28.9-7.1-55.5-12.2-63.5-25.5c-7.4-12.3-0.2-22.8,6.9-27.1c4.2-2.5,14.3-6.4,27.1,3.4
	c-2.6-16,5.7-23.1,9.8-25.5c8.2-4.9,20.2-4.9,27.1,6.6C1277.7,723,1270.1,747.7,1262.5,777.8 M1240.7,699.9
	c-7.1,4.3-12.3,12-12.1,21.6c-8.4-4.7-17.7-3.7-24.8,0.5c-10.3,6.2-16,19.3-8.1,32.3c9.1,15.1,36.3,19.8,69.5,28.1
	c8.3-33.2,16.9-59.4,7.8-74.6C1265.2,694.8,1251,693.8,1240.7,699.9"/>
<path class="st0" d="M1401.5,778.6c-28.9-7.1-55.5-12.2-63.5-25.5c-7.4-12.3-0.2-22.8,6.9-27.1c4.2-2.5,14.3-6.4,27.1,3.4
	c-2.6-16,5.7-23.1,9.8-25.5c8.2-4.9,20.2-4.9,27.1,6.6C1416.7,723.8,1409.1,748.5,1401.5,778.6 M1379.7,700.7
	c-7.1,4.3-12.3,12-12.1,21.6c-8.4-4.7-17.7-3.7-24.8,0.5c-10.3,6.2-16,19.3-8.1,32.3c9.1,15.1,36.3,19.8,69.5,28.1
	c8.3-33.2,16.9-59.4,7.8-74.6C1404.2,695.6,1390,694.5,1379.7,700.7"/>
<path class="st0" d="M1540.5,778.2c-28.9-7.1-55.5-12.2-63.5-25.5c-7.4-12.3-0.2-22.8,6.9-27.1c4.2-2.5,14.3-6.4,27.1,3.4
	c-2.6-16,5.7-23.1,9.8-25.5c8.2-4.9,20.2-4.9,27.1,6.6C1555.8,723.4,1548.1,748.1,1540.5,778.2 M1518.8,700.3
	c-7.1,4.3-12.3,12-12.1,21.6c-8.4-4.7-17.7-3.7-24.8,0.5c-10.3,6.2-16,19.3-8.1,32.3c9.1,15.1,36.3,19.8,69.5,28.1
	c8.3-33.2,16.9-59.4,7.8-74.6C1543.2,695.2,1529,694.1,1518.8,700.3"/>
<path class="st0" d="M1679.5,779c-28.9-7.1-55.5-12.2-63.5-25.5c-7.4-12.3-0.2-22.8,6.9-27.1c4.2-2.5,14.3-6.4,27.1,3.4
	c-2.6-16,5.7-23.1,9.8-25.5c8.2-4.9,20.2-4.9,27.1,6.6C1694.8,724.1,1687.1,748.9,1679.5,779 M1657.8,701.1
	c-7.1,4.3-12.3,12-12.1,21.6c-8.4-4.7-17.7-3.7-24.8,0.5c-10.3,6.2-16,19.3-8.1,32.3c9.1,15.1,36.3,19.8,69.5,28.1
	c8.3-33.2,16.9-59.4,7.8-74.6C1682.2,696,1668,694.9,1657.8,701.1"/>
<path class="st0" d="M1818.5,778.4c-28.9-7.1-55.5-12.2-63.5-25.5c-7.4-12.3-0.2-22.8,6.9-27.1c4.2-2.5,14.3-6.4,27.1,3.4
	c-2.6-16,5.7-23.1,9.8-25.5c8.2-4.9,20.2-4.9,27.1,6.6C1833.8,723.6,1826.2,748.3,1818.5,778.4 M1796.8,700.5
	c-7.1,4.3-12.3,12-12.1,21.6c-8.4-4.7-17.7-3.7-24.8,0.5c-10.3,6.2-16,19.3-8.1,32.3c9.1,15.1,36.3,19.8,69.5,28.1
	c8.3-33.2,16.9-59.4,7.8-74.6C1821.3,695.4,1807.1,694.3,1796.8,700.5"/>
<path class="st0" d="M79.1,881.2c-28.9-7.1-55.5-12.2-63.5-25.5c-7.4-12.3-0.2-22.8,6.9-27.1c4.2-2.5,14.3-6.4,27.1,3.4
	c-2.6-16,5.7-23.1,9.8-25.5c8.2-4.9,20.2-4.9,27.1,6.6C94.4,826.3,86.7,851,79.1,881.2 M57.4,803.2c-7.1,4.3-12.3,12-12.1,21.6
	c-8.4-4.7-17.7-3.7-24.8,0.5c-10.3,6.2-16,19.3-8.1,32.3c9.1,15.1,36.3,19.8,69.5,28.1c8.3-33.2,16.9-59.4,7.8-74.6
	C81.8,798.1,67.6,797.1,57.4,803.2"/>
<path class="st0" d="M218.1,881.9c-28.9-7.1-55.5-12.2-63.5-25.5c-7.4-12.3-0.2-22.8,6.9-27.1c4.2-2.5,14.3-6.4,27.1,3.4
	c-2.6-16,5.7-23.1,9.8-25.5c8.2-4.9,20.2-4.9,27.1,6.6C233.4,827.1,225.7,851.8,218.1,881.9 M196.4,804c-7.1,4.3-12.3,12-12.1,21.6
	c-8.4-4.7-17.7-3.7-24.8,0.5c-10.3,6.2-16,19.3-8.1,32.3c9.1,15.1,36.3,19.8,69.5,28.1c8.3-33.2,16.9-59.4,7.8-74.6
	C220.9,798.9,206.6,797.8,196.4,804"/>
<path class="st0" d="M357.2,881.5c-28.9-7.1-55.5-12.2-63.5-25.5c-7.4-12.3-0.2-22.8,6.9-27.1c4.2-2.5,14.3-6.4,27.1,3.4
	c-2.6-16,5.7-23.1,9.8-25.5c8.2-4.9,20.2-4.9,27.1,6.6C372.4,826.7,364.8,851.4,357.2,881.5 M335.4,803.6
	c-7.1,4.3-12.3,12-12.1,21.6c-8.4-4.7-17.7-3.7-24.8,0.5c-10.3,6.2-16,19.3-8.1,32.3c9.1,15.1,36.3,19.8,69.5,28.1
	c8.3-33.2,16.9-59.4,7.8-74.6C359.9,798.5,345.7,797.4,335.4,803.6"/>
<path class="st0" d="M496.2,882.3c-28.9-7.1-55.5-12.2-63.5-25.5c-7.4-12.3-0.2-22.8,6.9-27.1c4.2-2.5,14.3-6.4,27.1,3.4
	c-2.6-16,5.7-23.1,9.8-25.5c8.2-4.9,20.2-4.9,27.1,6.6C511.4,827.5,503.8,852.2,496.2,882.3 M474.5,804.4
	c-7.1,4.3-12.3,12-12.1,21.6c-8.4-4.7-17.7-3.7-24.8,0.5c-10.3,6.2-16,19.3-8.1,32.3c9.1,15.1,36.3,19.8,69.5,28.1
	c8.3-33.2,16.9-59.4,7.8-74.6C498.9,799.3,484.7,798.2,474.5,804.4"/>
<path class="st0" d="M635.2,881.7c-28.9-7.1-55.5-12.2-63.5-25.5c-7.4-12.3-0.2-22.8,6.9-27.1c4.2-2.5,14.3-6.4,27.1,3.4
	c-2.6-16,5.7-23.1,9.8-25.5c8.2-4.9,20.2-4.9,27.1,6.6C650.5,826.9,642.8,851.6,635.2,881.7 M613.5,803.8
	c-7.1,4.3-12.3,12-12.1,21.6c-8.4-4.7-17.7-3.7-24.8,0.5c-10.3,6.2-16,19.3-8.1,32.3c9.1,15.1,36.3,19.8,69.5,28.1
	c8.3-33.2,16.9-59.4,7.8-74.6C637.9,798.7,623.7,797.6,613.5,803.8"/>
<path class="st0" d="M774.2,882.5c-28.9-7.1-55.5-12.2-63.5-25.5c-7.4-12.3-0.2-22.8,6.9-27.1c4.2-2.5,14.3-6.4,27.1,3.4
	c-2.6-16,5.7-23.1,9.8-25.5c8.2-4.9,20.2-4.9,27.1,6.6C789.5,827.6,781.8,852.4,774.2,882.5 M752.5,804.6
	c-7.1,4.3-12.3,12-12.1,21.6c-8.4-4.7-17.7-3.7-24.8,0.5c-10.3,6.2-16,19.3-8.1,32.3c9.1,15.1,36.3,19.8,69.5,28.1
	c8.3-33.2,16.9-59.4,7.8-74.6C776.9,799.5,762.7,798.4,752.5,804.6"/>
<path class="st0" d="M913.2,882.1c-28.9-7.1-55.5-12.2-63.5-25.5c-7.4-12.3-0.2-22.8,6.9-27.1c4.2-2.5,14.3-6.4,27.1,3.4
	c-2.6-16,5.7-23.1,9.8-25.5c8.2-4.9,20.2-4.9,27.1,6.6C928.5,827.3,920.9,852,913.2,882.1 M891.5,804.2c-7.1,4.3-12.3,12-12.1,21.6
	c-8.4-4.7-17.7-3.7-24.8,0.5c-10.3,6.2-16,19.3-8.1,32.3c9.1,15.1,36.3,19.8,69.5,28.1c8.3-33.2,16.9-59.4,7.8-74.6
	C916,799.1,901.8,798,891.5,804.2"/>
<path class="st0" d="M1052.3,882.9c-28.9-7.1-55.5-12.2-63.5-25.5c-7.4-12.3-0.2-22.8,6.9-27.1c4.2-2.5,14.3-6.4,27.1,3.4
	c-2.6-16,5.7-23.1,9.8-25.5c8.2-4.9,20.2-4.9,27.1,6.6C1067.5,828,1059.9,852.8,1052.3,882.9 M1030.5,804.9
	c-7.1,4.3-12.3,12-12.1,21.6c-8.4-4.7-17.7-3.7-24.8,0.5c-10.3,6.2-16,19.3-8.1,32.3c9.1,15.1,36.3,19.8,69.5,28.1
	c8.3-33.2,16.9-59.4,7.8-74.6C1055,799.8,1040.8,798.8,1030.5,804.9"/>
<path class="st0" d="M1191.3,881.6c-28.9-7.1-55.5-12.2-63.5-25.5c-7.4-12.3-0.2-22.8,6.9-27.1c4.2-2.5,14.3-6.4,27.1,3.4
	c-2.6-16,5.7-23.1,9.8-25.5c8.2-4.9,20.2-4.9,27.1,6.6C1206.6,826.8,1198.9,851.5,1191.3,881.6 M1169.6,803.7
	c-7.1,4.3-12.3,12-12.1,21.6c-8.4-4.7-17.7-3.7-24.8,0.5c-10.3,6.2-16,19.3-8.1,32.3c9.1,15.1,36.3,19.8,69.5,28.1
	c8.3-33.2,16.9-59.4,7.8-74.6C1194,798.6,1179.8,797.5,1169.6,803.7"/>
<path class="st0" d="M1330.3,882.4c-28.9-7.1-55.5-12.2-63.5-25.5c-7.4-12.3-0.2-22.8,6.9-27.1c4.2-2.5,14.3-6.4,27.1,3.4
	c-2.6-16,5.7-23.1,9.8-25.5c8.2-4.9,20.2-4.9,27.1,6.6C1345.6,827.5,1337.9,852.3,1330.3,882.4 M1308.6,804.5
	c-7.1,4.3-12.3,12-12.1,21.6c-8.4-4.7-17.7-3.7-24.8,0.5c-10.3,6.2-16,19.3-8.1,32.3c9.1,15.1,36.3,19.8,69.5,28.1
	c8.3-33.2,16.9-59.4,7.8-74.6C1333,799.4,1318.8,798.3,1308.6,804.5"/>
<path class="st0" d="M1469.3,882c-28.9-7.1-55.5-12.2-63.5-25.5c-7.4-12.3-0.2-22.8,6.9-27.1c4.2-2.5,14.3-6.4,27.1,3.4
	c-2.6-16,5.7-23.1,9.8-25.5c8.2-4.9,20.2-4.9,27.1,6.6C1484.6,827.2,1477,851.9,1469.3,882 M1447.6,804.1
	c-7.1,4.3-12.3,12-12.1,21.6c-8.4-4.7-17.7-3.7-24.8,0.5c-10.3,6.2-16,19.3-8.1,32.3c9.1,15.1,36.3,19.8,69.5,28.1
	c8.3-33.2,16.9-59.4,7.8-74.6C1472.1,799,1457.8,797.9,1447.6,804.1"/>
<path class="st0" d="M1608.4,882.8c-28.9-7.1-55.5-12.2-63.5-25.5c-7.4-12.3-0.2-22.8,6.9-27.1c4.2-2.5,14.3-6.4,27.1,3.4
	c-2.6-16,5.7-23.1,9.8-25.5c8.2-4.9,20.2-4.9,27.1,6.6C1623.6,827.9,1616,852.7,1608.4,882.8 M1586.6,804.8
	c-7.1,4.3-12.3,12-12.1,21.6c-8.4-4.7-17.7-3.7-24.8,0.5c-10.3,6.2-16,19.3-8.1,32.3c9.1,15.1,36.3,19.8,69.5,28.1
	c8.3-33.2,16.9-59.4,7.8-74.6C1611.1,799.8,1596.9,798.7,1586.6,804.8"/>
<path class="st0" d="M1747.4,882.2c-28.9-7.1-55.5-12.2-63.5-25.5c-7.4-12.3-0.2-22.8,6.9-27.1c4.2-2.5,14.3-6.4,27.1,3.4
	c-2.6-16,5.7-23.1,9.8-25.5c8.2-4.9,20.2-4.9,27.1,6.6C1762.6,827.4,1755,852.1,1747.4,882.2 M1725.7,804.3
	c-7.1,4.3-12.3,12-12.1,21.6c-8.4-4.7-17.7-3.7-24.8,0.5c-10.3,6.2-16,19.3-8.1,32.3c9.1,15.1,36.3,19.8,69.5,28.1
	c8.3-33.2,16.9-59.4,7.8-74.6C1750.1,799.2,1735.9,798.1,1725.7,804.3"/>
<path class="st0" d="M1883.7,882.9c-28.9-7.1-55.5-12.2-63.5-25.5c-7.4-12.3-0.2-22.8,6.9-27.1c4.2-2.5,14.3-6.4,27.1,3.4
	c-2.6-16,5.7-23.1,9.8-25.5c8.2-4.9,20.2-4.9,27.1,6.6C1899,828,1891.3,852.8,1883.7,882.9 M1862,804.9c-7.1,4.3-12.3,12-12.1,21.6
	c-8.4-4.7-17.7-3.7-24.8,0.5c-10.3,6.2-16,19.3-8.1,32.3c9.1,15.1,36.3,19.8,69.5,28.1c8.3-33.2,16.9-59.4,7.8-74.6
	C1886.4,799.8,1872.2,798.8,1862,804.9"/>
<path class="st0" d="M148.3,978.2c-28.9-7.1-55.5-12.2-63.5-25.5c-7.4-12.3-0.2-22.8,6.9-27.1c4.2-2.5,14.3-6.4,27.1,3.4
	c-2.6-16,5.7-23.1,9.8-25.5c8.2-4.9,20.2-4.9,27.1,6.6C163.6,923.3,155.9,948.1,148.3,978.2 M126.6,900.3
	c-7.1,4.3-12.3,12-12.1,21.6c-8.4-4.7-17.7-3.7-24.8,0.5c-10.3,6.2-16,19.3-8.1,32.3c9.1,15.1,36.3,19.8,69.5,28.1
	c8.3-33.2,16.9-59.4,7.8-74.6C151,895.2,136.8,894.1,126.6,900.3"/>
<path class="st0" d="M287.3,979c-28.9-7.1-55.5-12.2-63.5-25.5c-7.4-12.3-0.2-22.8,6.9-27.1c4.2-2.5,14.3-6.4,27.1,3.4
	c-2.6-16,5.7-23.1,9.8-25.5c8.2-4.9,20.2-4.9,27.1,6.6C302.6,924.1,294.9,948.9,287.3,979 M265.6,901c-7.1,4.3-12.3,12-12.1,21.6
	c-8.4-4.7-17.7-3.7-24.8,0.5c-10.3,6.2-16,19.3-8.1,32.3c9.1,15.1,36.3,19.8,69.5,28.1c8.3-33.2,16.9-59.4,7.8-74.6
	C290,895.9,275.8,894.9,265.6,901"/>
<path class="st0" d="M426.3,978.6c-28.9-7.1-55.5-12.2-63.5-25.5c-7.4-12.3-0.2-22.8,6.9-27.1c4.2-2.5,14.3-6.4,27.1,3.4
	c-2.6-16,5.7-23.1,9.8-25.5c8.2-4.9,20.2-4.9,27.1,6.6C441.6,923.7,433.9,948.5,426.3,978.6 M404.6,900.6
	c-7.1,4.3-12.3,12-12.1,21.6c-8.4-4.7-17.7-3.7-24.8,0.5c-10.3,6.2-16,19.3-8.1,32.3c9.1,15.1,36.3,19.8,69.5,28.1
	c8.3-33.2,16.9-59.4,7.8-74.6C429,895.6,414.8,894.5,404.6,900.6"/>
<path class="st0" d="M565.4,979.4c-28.9-7.1-55.5-12.2-63.5-25.5c-7.4-12.3-0.2-22.8,6.9-27.1c4.2-2.5,14.3-6.4,27.1,3.4
	c-2.6-16,5.7-23.1,9.8-25.5c8.2-4.9,20.2-4.9,27.1,6.6C580.6,924.5,573,949.2,565.4,979.4 M543.6,901.4c-7.1,4.3-12.3,12-12.1,21.6
	c-8.4-4.7-17.7-3.7-24.8,0.5c-10.3,6.2-16,19.3-8.1,32.3c9.1,15.1,36.3,19.8,69.5,28.1c8.3-33.2,16.9-59.4,7.8-74.6
	C568.1,896.3,553.9,895.3,543.6,901.4"/>
<path class="st0" d="M704.4,978.8c-28.9-7.1-55.5-12.2-63.5-25.5c-7.4-12.3-0.2-22.8,6.9-27.1c4.2-2.5,14.3-6.4,27.1,3.4
	c-2.6-16,5.7-23.1,9.8-25.5c8.2-4.9,20.2-4.9,27.1,6.6C719.6,923.9,712,948.7,704.4,978.8 M682.6,900.8c-7.1,4.3-12.3,12-12.1,21.6
	c-8.4-4.7-17.7-3.7-24.8,0.5c-10.3,6.2-16,19.3-8.1,32.3c9.1,15.1,36.3,19.8,69.5,28.1c8.3-33.2,16.9-59.4,7.8-74.6
	C707.1,895.7,692.9,894.7,682.6,900.8"/>
<path class="st0" d="M843.4,979.6c-28.9-7.1-55.5-12.2-63.5-25.5c-7.4-12.3-0.2-22.8,6.9-27.1c4.2-2.5,14.3-6.4,27.1,3.4
	c-2.6-16,5.7-23.1,9.8-25.5c8.2-4.9,20.2-4.9,27.1,6.6C858.7,924.7,851,949.4,843.4,979.6 M821.7,901.6c-7.1,4.3-12.3,12-12.1,21.6
	c-8.4-4.7-17.7-3.7-24.8,0.5c-10.3,6.2-16,19.3-8.1,32.3c9.1,15.1,36.3,19.8,69.5,28.1c8.3-33.2,16.9-59.4,7.8-74.6
	C846.1,896.5,831.9,895.5,821.7,901.6"/>
<path class="st0" d="M982.4,979.2c-28.9-7.1-55.5-12.2-63.5-25.5c-7.4-12.3-0.2-22.8,6.9-27.1c4.2-2.5,14.3-6.4,27.1,3.4
	c-2.6-16,5.7-23.1,9.8-25.5c8.2-4.9,20.2-4.9,27.1,6.6C997.7,924.3,990,949.1,982.4,979.2 M960.7,901.2c-7.1,4.3-12.3,12-12.1,21.6
	c-8.4-4.7-17.7-3.7-24.8,0.5c-10.3,6.2-16,19.3-8.1,32.3c9.1,15.1,36.3,19.8,69.5,28.1c8.3-33.2,16.9-59.4,7.8-74.6
	C985.1,896.1,970.9,895.1,960.7,901.2"/>
<path class="st0" d="M1121.4,979.9c-28.9-7.1-55.5-12.2-63.5-25.5c-7.4-12.3-0.2-22.8,6.9-27.1c4.2-2.5,14.3-6.4,27.1,3.4
	c-2.6-16,5.7-23.1,9.8-25.5c8.2-4.9,20.2-4.9,27.1,6.6C1136.7,925.1,1129.1,949.8,1121.4,979.9 M1099.7,902
	c-7.1,4.3-12.3,12-12.1,21.6c-8.4-4.7-17.7-3.7-24.8,0.5c-10.3,6.2-16,19.3-8.1,32.3c9.1,15.1,36.3,19.8,69.5,28.1
	c8.3-33.2,16.9-59.4,7.8-74.6C1124.2,896.9,1110,895.8,1099.7,902"/>
<path class="st0" d="M1260.5,978.7c-28.9-7.1-55.5-12.2-63.5-25.5c-7.4-12.3-0.2-22.8,6.9-27.1c4.2-2.5,14.3-6.4,27.1,3.4
	c-2.6-16,5.7-23.1,9.8-25.5c8.2-4.9,20.2-4.9,27.1,6.6C1275.7,923.8,1268.1,948.6,1260.5,978.7 M1238.7,900.7
	c-7.1,4.3-12.3,12-12.1,21.6c-8.4-4.7-17.7-3.7-24.8,0.5c-10.3,6.2-16,19.3-8.1,32.3c9.1,15.1,36.3,19.8,69.5,28.1
	c8.3-33.2,16.9-59.4,7.8-74.6C1263.2,895.6,1249,894.6,1238.7,900.7"/>
<path class="st0" d="M1399.5,979.5c-28.9-7.1-55.5-12.2-63.5-25.5c-7.4-12.3-0.2-22.8,6.9-27.1c4.2-2.5,14.3-6.4,27.1,3.4
	c-2.6-16,5.7-23.1,9.8-25.5c8.2-4.9,20.2-4.9,27.1,6.6C1414.8,924.6,1407.1,949.3,1399.5,979.5 M1377.8,901.5
	c-7.1,4.3-12.3,12-12.1,21.6c-8.4-4.7-17.7-3.7-24.8,0.5c-10.3,6.2-16,19.3-8.1,32.3c9.1,15.1,36.3,19.8,69.5,28.1
	c8.3-33.2,16.9-59.4,7.8-74.6C1402.2,896.4,1388,895.4,1377.8,901.5"/>
<path class="st0" d="M1538.5,979.1c-28.9-7.1-55.5-12.2-63.5-25.5c-7.4-12.3-0.2-22.8,6.9-27.1c4.2-2.5,14.3-6.4,27.1,3.4
	c-2.6-16,5.7-23.1,9.8-25.5c8.2-4.9,20.2-4.9,27.1,6.6C1553.8,924.2,1546.1,949,1538.5,979.1 M1516.8,901.1
	c-7.1,4.3-12.3,12-12.1,21.6c-8.4-4.7-17.7-3.7-24.8,0.5c-10.3,6.2-16,19.3-8.1,32.3c9.1,15.1,36.3,19.8,69.5,28.1
	c8.3-33.2,16.9-59.4,7.8-74.6C1541.2,896,1527,895,1516.8,901.1"/>
<path class="st0" d="M1677.5,979.8c-28.9-7.1-55.5-12.2-63.5-25.5c-7.4-12.3-0.2-22.8,6.9-27.1c4.2-2.5,14.3-6.4,27.1,3.4
	c-2.6-16,5.7-23.1,9.8-25.5c8.2-4.9,20.2-4.9,27.1,6.6C1692.8,925,1685.1,949.7,1677.5,979.8 M1655.8,901.9
	c-7.1,4.3-12.3,12-12.1,21.6c-8.4-4.7-17.7-3.7-24.8,0.5c-10.3,6.2-16,19.3-8.1,32.3c9.1,15.1,36.3,19.8,69.5,28.1
	c8.3-33.2,16.9-59.4,7.8-74.6C1680.3,896.8,1666,895.7,1655.8,901.9"/>
<path class="st0" d="M1816.6,979.3c-28.9-7.1-55.5-12.2-63.5-25.5c-7.4-12.3-0.2-22.8,6.9-27.1c4.2-2.5,14.3-6.4,27.1,3.4
	c-2.6-16,5.7-23.1,9.8-25.5c8.2-4.9,20.2-4.9,27.1,6.6C1831.8,924.4,1824.2,949.1,1816.6,979.3 M1794.8,901.3
	c-7.1,4.3-12.3,12-12.1,21.6c-8.4-4.7-17.7-3.7-24.8,0.5c-10.3,6.2-16,19.3-8.1,32.3c9.1,15.1,36.3,19.8,69.5,28.1
	c8.3-33.2,16.9-59.4,7.8-74.6C1819.3,896.2,1805.1,895.2,1794.8,901.3"/>
<path class="st0" d="M81.1,1078c-28.9-7.1-55.5-12.2-63.5-25.5c-7.4-12.3-0.2-22.8,6.9-27.1c4.2-2.5,14.3-6.4,27.1,3.4
	c-2.6-16,5.7-23.1,9.8-25.5c8.2-4.9,20.2-4.9,27.1,6.6C96.4,1023.2,88.7,1047.9,81.1,1078 M59.4,1000.1c-7.1,4.3-12.3,12-12.1,21.6
	c-8.4-4.7-17.7-3.7-24.8,0.5c-10.3,6.2-16,19.3-8.1,32.3c9.1,15.1,36.3,19.8,69.5,28.1c8.3-33.2,16.9-59.4,7.8-74.6
	C83.8,995,69.6,993.9,59.4,1000.1"/>
<path class="st0" d="M220.1,1078.8c-28.9-7.1-55.5-12.2-63.5-25.5c-7.4-12.3-0.2-22.8,6.9-27.1c4.2-2.5,14.3-6.4,27.1,3.4
	c-2.6-16,5.7-23.1,9.8-25.5c8.2-4.9,20.2-4.9,27.1,6.6C235.4,1023.9,227.7,1048.7,220.1,1078.8 M198.4,1000.8
	c-7.1,4.3-12.3,12-12.1,21.6c-8.4-4.7-17.7-3.7-24.8,0.5c-10.3,6.2-16,19.3-8.1,32.3c9.1,15.1,36.3,19.8,69.5,28.1
	c8.3-33.2,16.9-59.4,7.8-74.6C222.8,995.7,208.6,994.7,198.4,1000.8"/>
<path class="st0" d="M359.1,1078.4c-28.9-7.1-55.5-12.2-63.5-25.5c-7.4-12.3-0.2-22.8,6.9-27.1c4.2-2.5,14.3-6.4,27.1,3.4
	c-2.6-16,5.7-23.1,9.8-25.5c8.2-4.9,20.2-4.9,27.1,6.6C374.4,1023.5,366.8,1048.3,359.1,1078.4 M337.4,1000.5
	c-7.1,4.3-12.3,12-12.1,21.6c-8.4-4.7-17.7-3.7-24.8,0.5c-10.3,6.2-16,19.3-8.1,32.3c9.1,15.1,36.3,19.8,69.5,28.1
	c8.3-33.2,16.9-59.4,7.8-74.6C361.9,995.4,347.7,994.3,337.4,1000.5"/>
<path class="st0" d="M498.2,1079.2c-28.9-7.1-55.5-12.2-63.5-25.5c-7.4-12.3-0.2-22.8,6.9-27.1c4.2-2.5,14.3-6.4,27.1,3.4
	c-2.6-16,5.7-23.1,9.8-25.5c8.2-4.9,20.2-4.9,27.1,6.6C513.4,1024.3,505.8,1049.1,498.2,1079.2 M476.4,1001.2
	c-7.1,4.3-12.3,12-12.1,21.6c-8.4-4.7-17.7-3.7-24.8,0.5c-10.3,6.2-16,19.3-8.1,32.3c9.1,15.1,36.3,19.8,69.5,28.1
	c8.3-33.2,16.9-59.4,7.8-74.6C500.9,996.1,486.7,995.1,476.4,1001.2"/>
<path class="st0" d="M637.2,1078.6c-28.9-7.1-55.5-12.2-63.5-25.5c-7.4-12.3-0.2-22.8,6.9-27.1c4.2-2.5,14.3-6.4,27.1,3.4
	c-2.6-16,5.7-23.1,9.8-25.5c8.2-4.9,20.2-4.9,27.1,6.6C652.5,1023.7,644.8,1048.5,637.2,1078.6 M615.5,1000.6
	c-7.1,4.3-12.3,12-12.1,21.6c-8.4-4.7-17.7-3.7-24.8,0.5c-10.3,6.2-16,19.3-8.1,32.3c9.1,15.1,36.3,19.8,69.5,28.1
	c8.3-33.2,16.9-59.4,7.8-74.6C639.9,995.6,625.7,994.5,615.5,1000.6"/>
<path class="st0" d="M776.2,1079.4c-28.9-7.1-55.5-12.2-63.5-25.5c-7.4-12.3-0.2-22.8,6.9-27.1c4.2-2.5,14.3-6.4,27.1,3.4
	c-2.6-16,5.7-23.1,9.8-25.5c8.2-4.9,20.2-4.9,27.1,6.6C791.5,1024.5,783.8,1049.2,776.2,1079.4 M754.5,1001.4
	c-7.1,4.3-12.3,12-12.1,21.6c-8.4-4.7-17.7-3.7-24.8,0.5c-10.3,6.2-16,19.3-8.1,32.3c9.1,15.1,36.3,19.8,69.5,28.1
	c8.3-33.2,16.9-59.4,7.8-74.6C778.9,996.3,764.7,995.3,754.5,1001.4"/>
<path class="st0" d="M915.2,1079c-28.9-7.1-55.5-12.2-63.5-25.5c-7.4-12.3-0.2-22.8,6.9-27.1c4.2-2.5,14.3-6.4,27.1,3.4
	c-2.6-16,5.7-23.1,9.8-25.5c8.2-4.9,20.2-4.9,27.1,6.6C930.5,1024.1,922.9,1048.9,915.2,1079 M893.5,1001
	c-7.1,4.3-12.3,12-12.1,21.6c-8.4-4.7-17.7-3.7-24.8,0.5c-10.3,6.2-16,19.3-8.1,32.3c9.1,15.1,36.3,19.8,69.5,28.1
	c8.3-33.2,16.9-59.4,7.8-74.6C918,995.9,903.7,994.9,893.5,1001"/>
<path class="st0" d="M1054.3,1079.7c-28.9-7.1-55.5-12.2-63.5-25.5c-7.4-12.3-0.2-22.8,6.9-27.1c4.2-2.5,14.3-6.4,27.1,3.4
	c-2.6-16,5.7-23.1,9.8-25.5c8.2-4.9,20.2-4.9,27.1,6.6C1069.5,1024.9,1061.9,1049.6,1054.3,1079.7 M1032.5,1001.8
	c-7.1,4.3-12.3,12-12.1,21.6c-8.4-4.7-17.7-3.7-24.8,0.5c-10.3,6.2-16,19.3-8.1,32.3c9.1,15.1,36.3,19.8,69.5,28.1
	c8.3-33.2,16.9-59.4,7.8-74.6C1057,996.7,1042.8,995.7,1032.5,1001.8"/>
<path class="st0" d="M1193.3,1078.5c-28.9-7.1-55.5-12.2-63.5-25.5c-7.4-12.3-0.2-22.8,6.9-27.1c4.2-2.5,14.3-6.4,27.1,3.4
	c-2.6-16,5.7-23.1,9.8-25.5c8.2-4.9,20.2-4.9,27.1,6.6C1208.5,1023.6,1200.9,1048.4,1193.3,1078.5 M1171.6,1000.6
	c-7.1,4.3-12.3,12-12.1,21.6c-8.4-4.7-17.7-3.7-24.8,0.5c-10.3,6.2-16,19.3-8.1,32.3c9.1,15.1,36.3,19.8,69.5,28.1
	c8.3-33.2,16.9-59.4,7.8-74.6C1196,995.5,1181.8,994.4,1171.6,1000.6"/>
<path class="st0" d="M1332.3,1079.3c-28.9-7.1-55.5-12.2-63.5-25.5c-7.4-12.3-0.2-22.8,6.9-27.1c4.2-2.5,14.3-6.4,27.1,3.4
	c-2.6-16,5.7-23.1,9.8-25.5c8.2-4.9,20.2-4.9,27.1,6.6C1347.6,1024.4,1339.9,1049.2,1332.3,1079.3 M1310.6,1001.3
	c-7.1,4.3-12.3,12-12.1,21.6c-8.4-4.7-17.7-3.7-24.8,0.5c-10.3,6.2-16,19.3-8.1,32.3c9.1,15.1,36.3,19.8,69.5,28.1
	c8.3-33.2,16.9-59.4,7.8-74.6C1335,996.2,1320.8,995.2,1310.6,1001.3"/>
<path class="st0" d="M1471.3,1078.9c-28.9-7.1-55.5-12.2-63.5-25.5c-7.4-12.3-0.2-22.8,6.9-27.1c4.2-2.5,14.3-6.4,27.1,3.4
	c-2.6-16,5.7-23.1,9.8-25.5c8.2-4.9,20.2-4.9,27.1,6.6C1486.6,1024,1478.9,1048.8,1471.3,1078.9 M1449.6,1000.9
	c-7.1,4.3-12.3,12-12.1,21.6c-8.4-4.7-17.7-3.7-24.8,0.5c-10.3,6.2-16,19.3-8.1,32.3c9.1,15.1,36.3,19.8,69.5,28.1
	c8.3-33.2,16.9-59.4,7.8-74.6C1474,995.8,1459.8,994.8,1449.6,1000.9"/>
<path class="st0" d="M1610.3,1079.7c-28.9-7.1-55.5-12.2-63.5-25.5c-7.4-12.3-0.2-22.8,6.9-27.1c4.2-2.5,14.3-6.4,27.1,3.4
	c-2.6-16,5.7-23.1,9.8-25.5c8.2-4.9,20.2-4.9,27.1,6.6C1625.6,1024.8,1618,1049.5,1610.3,1079.7 M1588.6,1001.7
	c-7.1,4.3-12.3,12-12.1,21.6c-8.4-4.7-17.7-3.7-24.8,0.5c-10.3,6.2-16,19.3-8.1,32.3c9.1,15.1,36.3,19.8,69.5,28.1
	c8.3-33.2,16.9-59.4,7.8-74.6C1613.1,996.6,1598.9,995.6,1588.6,1001.7"/>
<path class="st0" d="M1749.4,1079.1c-28.9-7.1-55.5-12.2-63.5-25.5c-7.4-12.3-0.2-22.8,6.9-27.1c4.2-2.5,14.3-6.4,27.1,3.4
	c-2.6-16,5.7-23.1,9.8-25.5c8.2-4.9,20.2-4.9,27.1,6.6C1764.6,1024.2,1757,1049,1749.4,1079.1 M1727.6,1001.1
	c-7.1,4.3-12.3,12-12.1,21.6c-8.4-4.7-17.7-3.7-24.8,0.5c-10.3,6.2-16,19.3-8.1,32.3c9.1,15.1,36.3,19.8,69.5,28.1
	c8.3-33.2,16.9-59.4,7.8-74.6C1752.1,996,1737.9,995,1727.6,1001.1"/>
<path class="st0" d="M1885.7,1079.7c-28.9-7.1-55.5-12.2-63.5-25.5c-7.4-12.3-0.2-22.8,6.9-27.1c4.2-2.5,14.3-6.4,27.1,3.4
	c-2.6-16,5.7-23.1,9.8-25.5c8.2-4.9,20.2-4.9,27.1,6.6C1901,1024.9,1893.3,1049.6,1885.7,1079.7 M1864,1001.8
	c-7.1,4.3-12.3,12-12.1,21.6c-8.4-4.7-17.7-3.7-24.8,0.5c-10.3,6.2-16,19.3-8.1,32.3c9.1,15.1,36.3,19.8,69.5,28.1
	c8.3-33.2,16.9-59.4,7.8-74.6C1888.4,996.7,1874.2,995.7,1864,1001.8"/>
</svg>
