<?xml version="1.0" encoding="utf-8"?>
<!-- Generator: Adobe Illustrator 23.0.1, SVG Export Plug-In . SVG Version: 6.00 Build 0)  -->
<svg version="1.1" id="Layer_1" xmlns="http://www.w3.org/2000/svg" xmlns:xlink="http://www.w3.org/1999/xlink" x="0px" y="0px"
	 viewBox="0 0 512 512" style="enable-background:new 0 0 512 512;" xml:space="preserve">
<style type="text/css">
	.st0{fill:#EC5D79;}
</style>
<path class="st0" d="M432,96h-48V32c0-17.7-14.3-32-32-32H160c-17.7,0-32,14.3-32,32v64H80c-17.7,0-32,14.3-32,32
	c0,17.7,14.3,32,32,32h0v320c0,17.7,14.3,32,32,32h288c17.7,0,32-14.3,32-32v0V160c17.7,0,32-14.3,32-32C464,110.3,449.7,96,432,96z
	 M192,432c0,8.8-7.2,16-16,16s-16-7.2-16-16V240c0-8.8,7.2-16,16-16s16,7.2,16,16V432z M192,64h128v32H192V64z M272,432
	c0,8.8-7.2,16-16,16s-16-7.2-16-16V240c0-8.8,7.2-16,16-16s16,7.2,16,16V432z M352,432c0,8.8-7.2,16-16,16s-16-7.2-16-16V240
	c0-8.8,7.2-16,16-16s16,7.2,16,16V432z"/>
</svg>
